{"glyphs":{"0":{"ha":797,"x_min":69,"x_max":727,"o":"m 398 0 q 256 36 317 0 q 153 132 194 72 q 90 266 111 192 q 69 417 69 340 q 90 567 69 493 q 153 700 111 640 q 256 795 194 759 q 398 830 317 830 q 541 795 479 830 q 644 700 602 759 q 706 567 685 640 q 727 417 727 493 q 706 266 727 340 q 644 132 685 192 q 541 36 602 72 q 398 0 479 0 m 400 61 q 508 105 471 61 q 544 220 544 149 l 544 601 q 510 727 544 676 q 400 779 476 779 q 292 729 326 779 q 257 603 257 678 l 257 220 q 292 103 257 145 q 400 61 326 61 z "},"1":{"ha":627,"x_min":191,"x_max":407,"o":"m 241 2 l 241 656 q 191 753 241 734 l 192 833 l 407 828 l 407 2 l 241 2 z "},"2":{"ha":729,"x_min":56,"x_max":681,"o":"m 56 23 l 56 190 q 144 248 91 214 q 255 323 197 282 q 363 411 313 365 q 446 507 414 457 q 478 609 478 557 q 436 731 478 682 q 322 780 395 780 q 198 744 247 780 q 132 660 149 707 q 144 663 138 662 q 161 664 150 664 q 222 638 198 664 q 245 578 245 611 q 219 519 245 544 q 160 494 193 494 q 86 529 116 494 q 57 608 57 564 q 86 708 57 664 q 164 781 116 751 q 269 826 212 810 q 380 841 325 841 q 516 814 453 841 q 617 734 579 786 q 656 609 656 682 q 619 486 656 542 q 522 384 582 429 q 390 303 462 339 q 247 239 318 266 q 119 191 176 212 l 543 191 q 609 200 580 191 q 656 233 638 209 l 681 221 l 587 24 l 56 23 z "},"3":{"ha":729,"x_min":63,"x_max":674,"o":"m 319 -6 q 183 21 245 -6 q 89 97 122 47 q 69 135 76 115 q 63 179 63 156 q 91 257 63 223 q 163 291 119 291 q 225 264 199 291 q 251 203 251 238 q 226 140 251 167 q 162 113 200 113 q 126 122 144 113 q 205 58 157 81 q 303 35 252 35 q 411 62 362 35 q 490 137 461 89 q 519 244 519 184 q 490 349 519 303 q 415 421 462 395 q 311 447 368 447 q 200 417 252 447 l 164 443 l 519 661 l 222 661 q 153 651 178 661 q 108 619 127 641 l 84 631 l 178 826 l 641 829 l 619 662 l 435 554 q 555 511 501 546 q 641 419 609 476 q 674 292 674 362 q 623 134 674 200 q 491 31 572 67 q 319 -6 410 -6 z "},"4":{"ha":729,"x_min":24,"x_max":713,"o":"m 24 259 l 24 353 l 478 839 l 478 839 l 478 839 l 575 839 l 575 390 q 689 436 646 398 l 713 425 l 668 259 l 575 259 l 575 12 l 387 12 l 387 259 l 24 259 m 125 387 l 387 387 l 387 675 l 125 387 z "},"5":{"ha":683,"x_min":79,"x_max":638,"o":"m 310 -37 q 201 -16 255 -37 q 113 45 148 5 q 79 142 79 84 q 108 222 79 188 q 181 256 137 256 q 241 230 215 256 q 267 169 267 205 q 243 110 267 135 q 183 84 219 84 q 166 87 174 84 q 217 26 182 51 q 303 1 252 1 q 392 27 353 1 q 454 96 432 53 q 476 189 476 139 q 433 314 476 265 q 317 383 391 363 q 142 387 242 402 l 222 836 l 506 836 q 572 847 544 836 q 615 885 600 859 l 638 874 l 542 668 l 229 668 l 209 558 q 436 538 343 574 q 580 428 530 501 q 630 259 630 354 q 584 109 630 176 q 466 2 539 42 q 310 -37 394 -37 z "},"6":{"ha":737,"x_min":61,"x_max":698,"o":"m 400 -2 q 218 53 294 -2 q 101 201 141 109 q 61 404 61 294 q 106 632 61 530 q 238 794 152 734 q 449 854 325 854 q 551 839 501 854 q 634 791 601 823 q 667 705 667 758 q 645 644 667 669 q 588 618 623 618 q 532 642 554 618 q 509 699 509 666 q 521 743 509 725 q 551 771 534 762 q 462 793 509 793 q 355 761 402 793 q 281 677 308 729 q 253 563 253 625 q 255 546 253 554 q 385 572 318 572 q 541 534 470 572 q 655 431 612 497 q 698 281 698 366 q 657 134 698 198 q 548 34 616 69 q 400 -2 480 -2 m 414 64 q 501 96 468 64 q 549 177 534 128 q 565 275 565 226 q 548 379 565 328 q 497 465 531 431 q 406 499 462 499 q 322 469 355 499 q 274 392 289 439 q 258 296 258 346 q 274 188 258 242 q 324 99 289 134 q 414 64 359 64 z "},"7":{"ha":652,"x_min":50,"x_max":649,"o":"m 288 0 l 219 0 l 500 642 l 171 642 q 110 631 135 642 q 73 593 84 619 l 50 604 l 108 830 l 649 830 l 288 0 z "},"8":{"ha":765,"x_min":69,"x_max":716,"o":"m 385 0 q 236 25 308 0 q 116 104 163 51 q 69 237 69 156 q 120 384 69 325 q 249 470 171 442 q 150 535 190 492 q 110 648 110 579 q 154 766 110 721 q 266 830 198 810 q 403 851 333 851 q 534 830 471 851 q 638 767 597 810 q 679 653 679 723 q 637 536 679 581 q 531 469 594 491 q 663 388 609 443 q 716 247 716 332 q 668 107 716 162 q 543 26 619 52 q 385 0 468 0 m 388 497 q 477 542 446 497 q 508 644 508 588 q 477 747 508 700 q 389 793 447 793 q 323 771 350 793 q 283 715 296 749 q 270 644 270 681 q 300 542 270 588 q 388 497 331 497 m 390 76 q 472 104 439 76 q 522 174 505 131 q 539 262 539 216 q 523 349 539 307 q 474 419 506 391 q 396 447 442 447 q 388 446 392 446 q 384 446 387 446 q 307 417 338 444 q 260 348 275 390 q 244 262 244 307 q 260 173 244 215 q 309 104 277 131 q 390 76 341 76 z "},"9":{"ha":729,"x_min":58,"x_max":686,"o":"m 309 3 q 210 17 259 3 q 129 59 161 30 q 97 138 97 88 q 119 196 97 171 q 177 221 141 221 q 232 199 209 221 q 255 144 255 177 q 242 102 255 119 q 214 75 230 84 q 289 58 249 58 q 396 93 353 58 q 464 182 440 127 q 491 295 487 236 q 352 262 426 262 q 203 300 270 262 q 97 404 137 338 q 58 553 58 470 q 97 701 58 637 q 203 802 137 765 q 352 838 270 838 q 531 786 456 838 q 646 649 605 735 q 686 459 686 563 q 662 286 686 368 q 590 140 638 204 q 471 40 542 76 q 309 3 400 3 m 362 351 q 443 379 412 351 q 490 451 475 407 q 505 544 505 495 q 490 646 505 596 q 441 730 475 697 q 354 764 407 764 q 271 734 303 764 q 224 659 240 705 q 208 566 208 613 q 225 465 208 515 q 274 383 241 416 q 362 351 308 351 z "},"A":{"ha":888,"x_min":51,"x_max":878,"o":"m 51 -12 q 109 87 71 42 q 201 163 147 133 l 322 365 q 223 451 263 394 q 184 588 184 508 q 229 741 184 676 q 345 841 273 806 q 500 877 418 877 q 701 817 609 877 l 778 882 l 803 861 l 784 839 q 762 793 769 818 q 756 734 756 767 l 756 292 q 763 193 756 234 q 806 126 771 153 l 845 159 l 878 120 l 725 -3 q 586 119 646 49 l 456 8 q 274 75 377 75 q 164 52 218 75 q 73 -12 111 29 l 51 -12 m 248 556 q 271 455 248 499 q 332 383 295 412 l 550 748 q 464 764 508 764 q 354 737 403 764 q 276 663 304 709 q 248 556 248 616 m 394 421 l 606 421 l 606 718 q 580 734 594 727 l 394 421 m 324 302 l 331 315 l 253 185 q 355 201 302 201 q 537 147 455 201 l 606 206 l 606 302 l 324 302 z "},"Á":{"ha":888,"x_min":51,"x_max":878,"o":"m 529 972 l 520 980 l 618 1184 l 678 1138 l 529 972 m 51 -12 q 109 87 71 42 q 201 163 147 133 l 322 365 q 223 451 263 394 q 184 588 184 508 q 229 741 184 676 q 345 841 273 806 q 500 877 418 877 q 701 817 609 877 l 778 882 l 803 861 l 784 839 q 762 793 769 818 q 756 734 756 767 l 756 292 q 763 193 756 234 q 806 126 771 153 l 845 159 l 878 120 l 725 -3 q 586 119 646 49 l 456 8 q 274 75 377 75 q 164 52 218 75 q 73 -12 111 29 l 51 -12 m 248 556 q 271 455 248 499 q 332 383 295 412 l 550 748 q 464 764 508 764 q 354 737 403 764 q 276 663 304 709 q 248 556 248 616 m 394 421 l 606 421 l 606 718 q 580 734 594 727 l 394 421 m 324 302 l 331 315 l 253 185 q 355 201 302 201 q 537 147 455 201 l 606 206 l 606 302 l 324 302 z "},"Ă":{"ha":888,"x_min":51,"x_max":878,"o":"m 575 980 q 479 1006 520 980 q 412 1068 438 1032 l 491 1138 q 544 1093 510 1110 q 623 1075 578 1075 q 716 1123 693 1075 l 745 1109 q 683 1021 725 1061 q 575 980 642 980 m 51 -12 q 109 87 71 42 q 201 163 147 133 l 322 365 q 223 451 263 394 q 184 588 184 508 q 229 741 184 676 q 345 841 273 806 q 500 877 418 877 q 701 817 609 877 l 778 882 l 803 861 l 784 839 q 762 793 769 818 q 756 734 756 767 l 756 292 q 763 193 756 234 q 806 126 771 153 l 845 159 l 878 120 l 725 -3 q 586 119 646 49 l 456 8 q 274 75 377 75 q 164 52 218 75 q 73 -12 111 29 l 51 -12 m 248 556 q 271 455 248 499 q 332 383 295 412 l 550 748 q 464 764 508 764 q 354 737 403 764 q 276 663 304 709 q 248 556 248 616 m 394 421 l 606 421 l 606 718 q 580 734 594 727 l 394 421 m 324 302 l 331 315 l 253 185 q 355 201 302 201 q 537 147 455 201 l 606 206 l 606 302 l 324 302 z "},"Â":{"ha":888,"x_min":51,"x_max":878,"o":"m 407 951 l 387 972 l 593 1177 l 736 1043 l 650 951 l 525 1068 l 407 951 m 51 -12 q 109 87 71 42 q 201 163 147 133 l 322 365 q 223 451 263 394 q 184 588 184 508 q 229 741 184 676 q 345 841 273 806 q 500 877 418 877 q 701 817 609 877 l 778 882 l 803 861 l 784 839 q 762 793 769 818 q 756 734 756 767 l 756 292 q 763 193 756 234 q 806 126 771 153 l 845 159 l 878 120 l 725 -3 q 586 119 646 49 l 456 8 q 274 75 377 75 q 164 52 218 75 q 73 -12 111 29 l 51 -12 m 248 556 q 271 455 248 499 q 332 383 295 412 l 550 748 q 464 764 508 764 q 354 737 403 764 q 276 663 304 709 q 248 556 248 616 m 394 421 l 606 421 l 606 718 q 580 734 594 727 l 394 421 m 324 302 l 331 315 l 253 185 q 355 201 302 201 q 537 147 455 201 l 606 206 l 606 302 l 324 302 z "},"Ä":{"ha":888,"x_min":51,"x_max":878,"o":"m 714 998 l 609 1103 l 713 1207 l 818 1102 l 714 998 m 448 998 l 343 1103 l 447 1207 l 552 1102 l 448 998 m 51 -12 q 109 87 71 42 q 201 163 147 133 l 322 365 q 223 451 263 394 q 184 588 184 508 q 229 741 184 676 q 345 841 273 806 q 500 877 418 877 q 701 817 609 877 l 778 882 l 803 861 l 784 839 q 762 793 769 818 q 756 734 756 767 l 756 292 q 763 193 756 234 q 806 126 771 153 l 845 159 l 878 120 l 725 -3 q 586 119 646 49 l 456 8 q 274 75 377 75 q 164 52 218 75 q 73 -12 111 29 l 51 -12 m 248 556 q 271 455 248 499 q 332 383 295 412 l 550 748 q 464 764 508 764 q 354 737 403 764 q 276 663 304 709 q 248 556 248 616 m 394 421 l 606 421 l 606 718 q 580 734 594 727 l 394 421 m 324 302 l 331 315 l 253 185 q 355 201 302 201 q 537 147 455 201 l 606 206 l 606 302 l 324 302 z "},"À":{"ha":888,"x_min":51,"x_max":878,"o":"m 668 972 l 520 1138 l 579 1184 l 678 980 l 668 972 m 51 -12 q 109 87 71 42 q 201 163 147 133 l 322 365 q 223 451 263 394 q 184 588 184 508 q 229 741 184 676 q 345 841 273 806 q 500 877 418 877 q 701 817 609 877 l 778 882 l 803 861 l 784 839 q 762 793 769 818 q 756 734 756 767 l 756 292 q 763 193 756 234 q 806 126 771 153 l 845 159 l 878 120 l 725 -3 q 586 119 646 49 l 456 8 q 274 75 377 75 q 164 52 218 75 q 73 -12 111 29 l 51 -12 m 248 556 q 271 455 248 499 q 332 383 295 412 l 550 748 q 464 764 508 764 q 354 737 403 764 q 276 663 304 709 q 248 556 248 616 m 394 421 l 606 421 l 606 718 q 580 734 594 727 l 394 421 m 324 302 l 331 315 l 253 185 q 355 201 302 201 q 537 147 455 201 l 606 206 l 606 302 l 324 302 z "},"Ā":{"ha":888,"x_min":51,"x_max":878,"o":"m 755 1003 l 439 1005 l 439 1128 l 755 1127 l 755 1003 m 51 -12 q 109 87 71 42 q 201 163 147 133 l 322 365 q 223 451 263 394 q 184 588 184 508 q 229 741 184 676 q 345 841 273 806 q 500 877 418 877 q 701 817 609 877 l 778 882 l 803 861 l 784 839 q 762 793 769 818 q 756 734 756 767 l 756 292 q 763 193 756 234 q 806 126 771 153 l 845 159 l 878 120 l 725 -3 q 586 119 646 49 l 456 8 q 274 75 377 75 q 164 52 218 75 q 73 -12 111 29 l 51 -12 m 248 556 q 271 455 248 499 q 332 383 295 412 l 550 748 q 464 764 508 764 q 354 737 403 764 q 276 663 304 709 q 248 556 248 616 m 394 421 l 606 421 l 606 718 q 580 734 594 727 l 394 421 m 324 302 l 331 315 l 253 185 q 355 201 302 201 q 537 147 455 201 l 606 206 l 606 302 l 324 302 z "},"Ą":{"ha":888,"x_min":51,"x_max":878,"o":"m 774 -237 q 730 -206 759 -227 q 671 -155 701 -185 q 620 -87 641 -125 q 598 -7 598 -50 q 624 82 598 44 q 684 140 650 119 l 809 58 q 734 5 766 44 q 701 -90 701 -34 q 725 -172 701 -138 q 781 -225 748 -206 l 774 -237 m 51 -12 q 109 87 71 42 q 201 163 147 133 l 322 365 q 223 451 263 394 q 184 588 184 508 q 229 741 184 676 q 345 841 273 806 q 500 877 418 877 q 701 817 609 877 l 778 882 l 803 861 l 784 839 q 762 793 769 818 q 756 734 756 767 l 756 292 q 763 193 756 234 q 806 126 771 153 l 845 159 l 878 120 l 725 -3 q 586 119 646 49 l 456 8 q 274 75 377 75 q 164 52 218 75 q 73 -12 111 29 l 51 -12 m 248 556 q 271 455 248 499 q 332 383 295 412 l 550 748 q 464 764 508 764 q 354 737 403 764 q 276 663 304 709 q 248 556 248 616 m 394 421 l 606 421 l 606 718 q 580 734 594 727 l 394 421 m 324 302 l 331 315 l 253 185 q 355 201 302 201 q 537 147 455 201 l 606 206 l 606 302 l 324 302 z "},"Å":{"ha":888,"x_min":51,"x_max":878,"o":"m 557 884 q 480 916 512 884 q 448 993 448 948 q 480 1070 448 1038 q 557 1102 512 1102 q 634 1070 602 1102 q 666 993 666 1038 q 634 916 666 948 q 557 884 602 884 m 557 917 q 611 939 588 917 q 633 993 633 962 q 611 1047 633 1024 q 557 1069 588 1069 q 503 1047 525 1069 q 480 993 480 1024 q 503 939 480 962 q 557 917 525 917 m 51 -12 q 109 87 71 42 q 201 163 147 133 l 322 365 q 223 451 263 394 q 184 588 184 508 q 229 741 184 676 q 345 841 273 806 q 500 877 418 877 q 701 817 609 877 l 778 882 l 803 861 l 784 839 q 762 793 769 818 q 756 734 756 767 l 756 292 q 763 193 756 234 q 806 126 771 153 l 845 159 l 878 120 l 725 -3 q 586 119 646 49 l 456 8 q 274 75 377 75 q 164 52 218 75 q 73 -12 111 29 l 51 -12 m 248 556 q 271 455 248 499 q 332 383 295 412 l 550 748 q 464 764 508 764 q 354 737 403 764 q 276 663 304 709 q 248 556 248 616 m 394 421 l 606 421 l 606 718 q 580 734 594 727 l 394 421 m 324 302 l 331 315 l 253 185 q 355 201 302 201 q 537 147 455 201 l 606 206 l 606 302 l 324 302 z "},"Ã":{"ha":888,"x_min":51,"x_max":878,"o":"m 655 970 q 588 982 617 970 q 530 1006 559 994 q 465 1019 501 1019 q 412 1008 434 1019 q 374 980 390 997 l 345 997 q 387 1049 363 1022 q 442 1093 410 1075 q 515 1111 473 1111 q 584 1099 553 1111 q 646 1075 615 1087 q 714 1064 677 1064 q 763 1075 743 1064 q 794 1106 782 1087 l 823 1090 q 760 1008 802 1045 q 655 970 719 970 m 51 -12 q 109 87 71 42 q 201 163 147 133 l 322 365 q 223 451 263 394 q 184 588 184 508 q 229 741 184 676 q 345 841 273 806 q 500 877 418 877 q 701 817 609 877 l 778 882 l 803 861 l 784 839 q 762 793 769 818 q 756 734 756 767 l 756 292 q 763 193 756 234 q 806 126 771 153 l 845 159 l 878 120 l 725 -3 q 586 119 646 49 l 456 8 q 274 75 377 75 q 164 52 218 75 q 73 -12 111 29 l 51 -12 m 248 556 q 271 455 248 499 q 332 383 295 412 l 550 748 q 464 764 508 764 q 354 737 403 764 q 276 663 304 709 q 248 556 248 616 m 394 421 l 606 421 l 606 718 q 580 734 594 727 l 394 421 m 324 302 l 331 315 l 253 185 q 355 201 302 201 q 537 147 455 201 l 606 206 l 606 302 l 324 302 z "},"Æ":{"ha":1375,"x_min":27,"x_max":1332,"o":"m 27 -12 q 85 88 46 42 q 177 163 124 134 l 304 373 q 240 417 273 388 q 183 492 206 447 q 160 600 160 537 q 203 747 160 682 q 318 851 247 813 q 476 889 390 889 q 682 825 588 889 l 753 894 l 779 873 q 731 745 731 830 l 731 672 l 1090 890 l 1090 890 l 1090 890 q 1182 833 1133 858 q 1286 791 1230 809 l 1322 822 l 1332 810 l 1194 667 q 1053 735 1122 696 l 1053 532 l 1323 532 l 1182 385 l 1053 385 l 1053 112 q 1200 167 1138 119 q 1292 278 1262 215 l 1315 278 q 1270 134 1311 203 q 1156 23 1229 66 q 984 -20 1083 -20 q 862 1 927 -20 q 739 67 797 22 q 640 182 681 111 l 630 179 l 432 8 q 250 75 353 75 q 140 52 193 75 q 49 -12 87 29 l 27 -12 m 968 344 l 764 258 q 872 153 804 192 q 1020 111 940 113 l 1020 755 q 977 782 998 767 l 968 777 l 968 344 m 223 567 q 230 516 223 547 q 257 451 237 485 q 315 390 277 418 l 535 756 q 440 775 490 775 q 330 748 380 775 q 252 674 281 721 q 223 567 223 626 m 378 433 l 582 433 l 582 729 q 565 741 574 736 l 378 433 m 818 315 l 818 686 l 731 633 l 731 328 q 749 286 738 306 l 818 315 m 331 201 q 513 147 431 201 l 582 207 l 582 314 l 307 314 l 229 185 q 331 201 278 201 z "},"B":{"ha":990,"x_min":60,"x_max":959,"o":"m 80 -37 q 202 102 126 43 q 376 181 278 161 q 398 227 390 201 q 406 287 406 252 l 406 649 q 560 796 471 731 q 758 897 649 861 l 944 678 l 801 576 q 885 537 846 560 q 959 486 925 514 l 959 196 l 572 -5 q 462 38 520 23 q 346 52 405 52 q 209 28 269 52 q 108 -37 149 3 l 80 -37 m 142 110 l 131 138 q 190 219 179 166 q 201 346 201 273 l 201 425 l 167 425 q 114 408 134 425 q 100 358 94 391 l 78 358 q 60 426 60 390 q 80 495 60 468 q 128 536 100 523 q 164 548 146 544 q 201 554 183 552 l 201 584 l 201 584 q 222 656 201 633 q 271 697 242 678 q 369 758 321 727 q 356 758 362 758 q 285 771 316 758 q 213 785 253 785 q 162 771 183 785 q 133 734 141 757 l 105 734 q 148 803 120 770 q 216 857 176 836 q 307 878 256 878 q 385 867 347 878 q 464 856 424 856 q 521 865 494 856 q 567 884 547 873 l 560 859 l 389 725 q 361 691 370 709 q 351 639 351 672 l 351 352 q 321 231 351 280 q 244 153 292 183 q 142 110 196 124 m 793 618 l 639 800 l 639 503 l 793 618 m 461 189 q 538 182 501 189 q 605 161 574 175 l 605 793 q 573 757 587 779 q 560 708 560 735 l 560 406 q 542 311 560 350 q 496 243 524 272 q 436 189 468 214 q 461 189 448 189 m 639 495 l 639 340 l 791 417 q 719 461 757 441 q 639 495 681 480 m 639 303 l 639 219 l 808 303 l 808 388 l 639 303 m 808 139 l 808 266 l 639 182 l 639 146 q 713 95 678 125 l 808 139 z "},"C":{"ha":866,"x_min":108,"x_max":858,"o":"m 502 -21 q 347 13 419 -21 q 222 106 275 47 q 138 241 168 166 q 108 400 108 317 q 152 596 108 508 q 267 746 196 684 q 424 837 339 808 l 434 819 q 310 704 358 780 l 616 890 l 616 890 l 616 890 q 707 833 659 858 q 811 791 756 809 l 848 822 l 858 810 l 720 667 q 579 735 647 696 l 579 112 q 718 170 660 123 q 807 278 777 218 l 829 278 q 780 124 824 191 q 664 18 736 57 q 502 -21 591 -21 m 493 344 l 293 260 q 389 151 328 192 q 538 110 450 110 q 545 110 542 110 l 545 755 q 502 782 523 767 l 493 777 l 493 344 m 250 461 q 280 288 250 365 l 344 315 l 344 685 l 282 648 q 250 461 250 565 z "},"Ć":{"ha":866,"x_min":108,"x_max":858,"o":"m 530 944 l 521 953 l 619 1156 l 679 1110 l 530 944 m 502 -21 q 347 13 419 -21 q 222 106 275 47 q 138 241 168 166 q 108 400 108 317 q 152 596 108 508 q 267 746 196 684 q 424 837 339 808 l 434 819 q 310 704 358 780 l 616 890 l 616 890 l 616 890 q 707 833 659 858 q 811 791 756 809 l 848 822 l 858 810 l 720 667 q 579 735 647 696 l 579 112 q 718 170 660 123 q 807 278 777 218 l 829 278 q 780 124 824 191 q 664 18 736 57 q 502 -21 591 -21 m 493 344 l 293 260 q 389 151 328 192 q 538 110 450 110 q 545 110 542 110 l 545 755 q 502 782 523 767 l 493 777 l 493 344 m 250 461 q 280 288 250 365 l 344 315 l 344 685 l 282 648 q 250 461 250 565 z "},"Č":{"ha":866,"x_min":108,"x_max":858,"o":"m 587 949 l 431 1093 l 515 1184 l 652 1058 l 775 1184 l 797 1163 l 587 949 m 502 -21 q 347 13 419 -21 q 222 106 275 47 q 138 241 168 166 q 108 400 108 317 q 152 596 108 508 q 267 746 196 684 q 424 837 339 808 l 434 819 q 310 704 358 780 l 616 890 l 616 890 l 616 890 q 707 833 659 858 q 811 791 756 809 l 848 822 l 858 810 l 720 667 q 579 735 647 696 l 579 112 q 718 170 660 123 q 807 278 777 218 l 829 278 q 780 124 824 191 q 664 18 736 57 q 502 -21 591 -21 m 493 344 l 293 260 q 389 151 328 192 q 538 110 450 110 q 545 110 542 110 l 545 755 q 502 782 523 767 l 493 777 l 493 344 m 250 461 q 280 288 250 365 l 344 315 l 344 685 l 282 648 q 250 461 250 565 z "},"Ç":{"ha":866,"x_min":108,"x_max":858,"o":"m 413 -260 l 406 -252 q 457 -219 428 -243 q 486 -154 486 -196 q 452 -83 486 -110 q 378 -47 418 -57 l 503 12 q 561 -28 534 -1 q 589 -94 589 -54 q 577 -137 589 -112 q 527 -193 565 -162 q 413 -260 490 -225 m 502 -21 q 347 13 419 -21 q 222 106 275 47 q 138 241 168 166 q 108 400 108 317 q 152 596 108 508 q 267 746 196 684 q 424 837 339 808 l 434 819 q 310 704 358 780 l 616 890 l 616 890 l 616 890 q 707 833 659 858 q 811 791 756 809 l 848 822 l 858 810 l 720 667 q 579 735 647 696 l 579 112 q 718 170 660 123 q 807 278 777 218 l 829 278 q 780 124 824 191 q 664 18 736 57 q 502 -21 591 -21 m 493 344 l 293 260 q 389 151 328 192 q 538 110 450 110 q 545 110 542 110 l 545 755 q 502 782 523 767 l 493 777 l 493 344 m 250 461 q 280 288 250 365 l 344 315 l 344 685 l 282 648 q 250 461 250 565 z "},"Ĉ":{"ha":866,"x_min":108,"x_max":858,"o":"m 409 924 l 388 944 l 594 1149 l 737 1015 l 652 924 l 527 1041 l 409 924 m 502 -21 q 347 13 419 -21 q 222 106 275 47 q 138 241 168 166 q 108 400 108 317 q 152 596 108 508 q 267 746 196 684 q 424 837 339 808 l 434 819 q 310 704 358 780 l 616 890 l 616 890 l 616 890 q 707 833 659 858 q 811 791 756 809 l 848 822 l 858 810 l 720 667 q 579 735 647 696 l 579 112 q 718 170 660 123 q 807 278 777 218 l 829 278 q 780 124 824 191 q 664 18 736 57 q 502 -21 591 -21 m 493 344 l 293 260 q 389 151 328 192 q 538 110 450 110 q 545 110 542 110 l 545 755 q 502 782 523 767 l 493 777 l 493 344 m 250 461 q 280 288 250 365 l 344 315 l 344 685 l 282 648 q 250 461 250 565 z "},"Ċ":{"ha":866,"x_min":108,"x_max":858,"o":"m 588 979 l 483 1084 l 587 1189 l 692 1083 l 588 979 m 502 -21 q 347 13 419 -21 q 222 106 275 47 q 138 241 168 166 q 108 400 108 317 q 152 596 108 508 q 267 746 196 684 q 424 837 339 808 l 434 819 q 310 704 358 780 l 616 890 l 616 890 l 616 890 q 707 833 659 858 q 811 791 756 809 l 848 822 l 858 810 l 720 667 q 579 735 647 696 l 579 112 q 718 170 660 123 q 807 278 777 218 l 829 278 q 780 124 824 191 q 664 18 736 57 q 502 -21 591 -21 m 493 344 l 293 260 q 389 151 328 192 q 538 110 450 110 q 545 110 542 110 l 545 755 q 502 782 523 767 l 493 777 l 493 344 m 250 461 q 280 288 250 365 l 344 315 l 344 685 l 282 648 q 250 461 250 565 z "},"D":{"ha":911,"x_min":57,"x_max":887,"o":"m 57 -36 q 153 86 93 32 q 297 164 214 140 q 363 234 332 197 q 394 337 394 272 l 394 545 q 405 643 394 601 q 444 715 416 685 l 407 715 q 367 663 382 692 q 352 587 352 634 l 352 497 l 352 378 q 322 258 352 307 q 245 180 293 209 q 142 137 197 150 l 132 164 q 192 247 181 192 q 203 373 203 301 l 203 376 l 175 376 q 122 358 139 376 q 109 309 105 339 l 87 309 q 68 377 68 341 q 108 471 68 444 q 203 506 148 498 l 203 534 q 223 611 203 586 q 274 656 243 635 l 366 715 l 205 715 q 139 747 159 715 q 121 824 120 779 q 133 910 122 869 l 157 909 q 186 868 163 880 q 243 856 208 856 l 559 856 q 752 806 679 856 q 855 669 824 756 q 887 471 887 582 q 865 297 887 381 q 811 148 843 213 l 522 -10 q 322 53 432 53 q 197 30 258 53 q 90 -36 137 7 l 57 -36 m 597 705 q 559 713 579 711 q 520 715 539 715 l 520 481 l 711 578 q 668 657 696 624 q 597 705 640 690 m 414 181 q 486 174 450 181 l 486 709 q 439 644 451 684 q 426 545 426 603 l 426 337 q 405 244 426 281 q 355 176 384 206 q 414 181 384 181 m 520 444 l 520 355 l 729 462 q 719 545 727 507 l 520 444 m 666 96 q 712 251 694 170 q 730 425 730 332 l 520 318 l 520 167 q 666 96 601 146 z "},"Ď":{"ha":911,"x_min":57,"x_max":887,"o":"m 517 926 l 361 1069 l 446 1161 l 582 1035 l 706 1161 l 728 1140 l 517 926 m 57 -36 q 153 86 93 32 q 297 164 214 140 q 363 234 332 197 q 394 337 394 272 l 394 545 q 405 643 394 601 q 444 715 416 685 l 407 715 q 367 663 382 692 q 352 587 352 634 l 352 497 l 352 378 q 322 258 352 307 q 245 180 293 209 q 142 137 197 150 l 132 164 q 192 247 181 192 q 203 373 203 301 l 203 376 l 175 376 q 122 358 139 376 q 109 309 105 339 l 87 309 q 68 377 68 341 q 108 471 68 444 q 203 506 148 498 l 203 534 q 223 611 203 586 q 274 656 243 635 l 366 715 l 205 715 q 139 747 159 715 q 121 824 120 779 q 133 910 122 869 l 157 909 q 186 868 163 880 q 243 856 208 856 l 559 856 q 752 806 679 856 q 855 669 824 756 q 887 471 887 582 q 865 297 887 381 q 811 148 843 213 l 522 -10 q 322 53 432 53 q 197 30 258 53 q 90 -36 137 7 l 57 -36 m 597 705 q 559 713 579 711 q 520 715 539 715 l 520 481 l 711 578 q 668 657 696 624 q 597 705 640 690 m 414 181 q 486 174 450 181 l 486 709 q 439 644 451 684 q 426 545 426 603 l 426 337 q 405 244 426 281 q 355 176 384 206 q 414 181 384 181 m 520 444 l 520 355 l 729 462 q 719 545 727 507 l 520 444 m 666 96 q 712 251 694 170 q 730 425 730 332 l 520 318 l 520 167 q 666 96 601 146 z "},"Đ":{"ha":865,"x_min":17,"x_max":847,"o":"m 17 -36 q 114 86 53 32 q 258 164 175 140 q 323 234 293 197 q 354 337 354 272 l 354 390 l 313 388 l 313 378 q 283 258 313 307 q 205 180 253 209 q 103 137 157 150 l 93 164 q 152 247 141 192 q 163 373 163 301 l 163 378 l 135 376 q 88 362 108 374 q 68 321 68 350 q 69 309 68 315 l 47 309 q 28 374 28 338 q 68 468 28 438 q 163 509 109 498 l 163 534 q 183 611 163 586 q 235 656 204 635 l 326 715 l 166 715 q 100 747 119 715 q 82 824 81 779 q 94 910 82 869 l 118 909 q 146 868 124 880 q 204 856 169 856 l 520 856 q 712 806 640 856 q 816 669 785 756 q 847 471 847 582 q 825 297 847 381 q 772 148 803 213 l 483 -10 q 282 53 392 53 q 158 30 219 53 q 51 -36 97 7 l 17 -36 m 313 587 l 313 523 q 334 524 324 523 q 354 527 345 525 l 354 545 q 365 643 354 601 q 405 715 376 685 l 368 715 q 328 663 343 692 q 313 587 313 634 m 558 705 q 520 713 539 711 q 480 715 500 715 l 480 481 l 671 578 q 628 657 656 624 q 558 705 601 690 m 375 181 q 447 174 411 181 l 447 709 q 399 644 412 684 q 387 545 387 603 l 387 337 q 366 244 387 281 q 316 176 345 206 q 375 181 345 181 m 480 444 l 480 355 l 690 462 q 679 545 688 507 l 480 444 m 626 96 q 673 251 655 170 q 691 425 691 332 l 480 318 l 480 167 q 626 96 561 146 z "},"Ð":{"ha":865,"x_min":17,"x_max":847,"o":"m 17 -36 q 114 86 53 32 q 258 164 175 140 q 323 234 293 197 q 354 337 354 272 l 354 390 l 313 388 l 313 378 q 283 258 313 307 q 205 180 253 209 q 103 137 157 150 l 93 164 q 152 247 141 192 q 163 373 163 301 l 163 378 l 135 376 q 88 362 108 374 q 68 321 68 350 q 69 309 68 315 l 47 309 q 28 374 28 338 q 68 468 28 438 q 163 509 109 498 l 163 534 q 183 611 163 586 q 235 656 204 635 l 326 715 l 166 715 q 100 747 119 715 q 82 824 81 779 q 94 910 82 869 l 118 909 q 146 868 124 880 q 204 856 169 856 l 520 856 q 712 806 640 856 q 816 669 785 756 q 847 471 847 582 q 825 297 847 381 q 772 148 803 213 l 483 -10 q 282 53 392 53 q 158 30 219 53 q 51 -36 97 7 l 17 -36 m 313 587 l 313 523 q 334 524 324 523 q 354 527 345 525 l 354 545 q 365 643 354 601 q 405 715 376 685 l 368 715 q 328 663 343 692 q 313 587 313 634 m 558 705 q 520 713 539 711 q 480 715 500 715 l 480 481 l 671 578 q 628 657 656 624 q 558 705 601 690 m 375 181 q 447 174 411 181 l 447 709 q 399 644 412 684 q 387 545 387 603 l 387 337 q 366 244 387 281 q 316 176 345 206 q 375 181 345 181 m 480 444 l 480 355 l 690 462 q 679 545 688 507 l 480 444 m 626 96 q 673 251 655 170 q 691 425 691 332 l 480 318 l 480 167 q 626 96 561 146 z "},"E":{"ha":853,"x_min":109,"x_max":858,"o":"m 512 -20 q 355 14 428 -20 q 226 109 281 49 q 140 245 171 169 q 109 406 109 322 q 152 600 109 513 q 268 749 196 688 q 424 837 340 810 l 435 819 q 311 704 358 780 l 616 890 l 616 890 l 616 890 q 708 833 660 858 q 813 791 756 809 l 848 822 l 858 810 l 720 667 q 579 735 647 696 l 579 532 l 848 532 l 707 385 l 579 385 l 579 112 q 725 170 663 123 q 818 278 786 218 l 840 278 q 792 124 837 191 q 675 19 748 57 q 512 -20 602 -20 m 494 344 l 293 260 q 390 151 328 192 q 542 110 453 110 q 546 110 544 110 l 546 755 q 503 782 524 767 l 494 777 l 494 344 m 250 459 q 280 288 250 363 l 345 315 l 345 685 l 284 648 q 250 459 250 565 z "},"É":{"ha":853,"x_min":109,"x_max":858,"o":"m 553 944 l 544 953 l 642 1156 l 703 1110 l 553 944 m 512 -20 q 355 14 428 -20 q 226 109 281 49 q 140 245 171 169 q 109 406 109 322 q 152 600 109 513 q 268 749 196 688 q 424 837 340 810 l 435 819 q 311 704 358 780 l 616 890 l 616 890 l 616 890 q 708 833 660 858 q 813 791 756 809 l 848 822 l 858 810 l 720 667 q 579 735 647 696 l 579 532 l 848 532 l 707 385 l 579 385 l 579 112 q 725 170 663 123 q 818 278 786 218 l 840 278 q 792 124 837 191 q 675 19 748 57 q 512 -20 602 -20 m 494 344 l 293 260 q 390 151 328 192 q 542 110 453 110 q 546 110 544 110 l 546 755 q 503 782 524 767 l 494 777 l 494 344 m 250 459 q 280 288 250 363 l 345 315 l 345 685 l 284 648 q 250 459 250 565 z "},"Ĕ":{"ha":853,"x_min":109,"x_max":858,"o":"m 542 953 q 445 979 486 953 q 378 1041 404 1005 l 457 1110 q 510 1065 477 1082 q 589 1047 544 1047 q 683 1095 660 1047 l 712 1081 q 650 993 691 1034 q 542 953 609 953 m 512 -20 q 355 14 428 -20 q 226 109 281 49 q 140 245 171 169 q 109 406 109 322 q 152 600 109 513 q 268 749 196 688 q 424 837 340 810 l 435 819 q 311 704 358 780 l 616 890 l 616 890 l 616 890 q 708 833 660 858 q 813 791 756 809 l 848 822 l 858 810 l 720 667 q 579 735 647 696 l 579 532 l 848 532 l 707 385 l 579 385 l 579 112 q 725 170 663 123 q 818 278 786 218 l 840 278 q 792 124 837 191 q 675 19 748 57 q 512 -20 602 -20 m 494 344 l 293 260 q 390 151 328 192 q 542 110 453 110 q 546 110 544 110 l 546 755 q 503 782 524 767 l 494 777 l 494 344 m 250 459 q 280 288 250 363 l 345 315 l 345 685 l 284 648 q 250 459 250 565 z "},"Ě":{"ha":853,"x_min":109,"x_max":858,"o":"m 552 949 l 396 1093 l 480 1184 l 617 1058 l 741 1184 l 763 1163 l 552 949 m 512 -20 q 355 14 428 -20 q 226 109 281 49 q 140 245 171 169 q 109 406 109 322 q 152 600 109 513 q 268 749 196 688 q 424 837 340 810 l 435 819 q 311 704 358 780 l 616 890 l 616 890 l 616 890 q 708 833 660 858 q 813 791 756 809 l 848 822 l 858 810 l 720 667 q 579 735 647 696 l 579 532 l 848 532 l 707 385 l 579 385 l 579 112 q 725 170 663 123 q 818 278 786 218 l 840 278 q 792 124 837 191 q 675 19 748 57 q 512 -20 602 -20 m 494 344 l 293 260 q 390 151 328 192 q 542 110 453 110 q 546 110 544 110 l 546 755 q 503 782 524 767 l 494 777 l 494 344 m 250 459 q 280 288 250 363 l 345 315 l 345 685 l 284 648 q 250 459 250 565 z "},"Ê":{"ha":853,"x_min":109,"x_max":858,"o":"m 432 924 l 411 944 l 617 1149 l 760 1015 l 675 924 l 550 1041 l 432 924 m 512 -20 q 355 14 428 -20 q 226 109 281 49 q 140 245 171 169 q 109 406 109 322 q 152 600 109 513 q 268 749 196 688 q 424 837 340 810 l 435 819 q 311 704 358 780 l 616 890 l 616 890 l 616 890 q 708 833 660 858 q 813 791 756 809 l 848 822 l 858 810 l 720 667 q 579 735 647 696 l 579 532 l 848 532 l 707 385 l 579 385 l 579 112 q 725 170 663 123 q 818 278 786 218 l 840 278 q 792 124 837 191 q 675 19 748 57 q 512 -20 602 -20 m 494 344 l 293 260 q 390 151 328 192 q 542 110 453 110 q 546 110 544 110 l 546 755 q 503 782 524 767 l 494 777 l 494 344 m 250 459 q 280 288 250 363 l 345 315 l 345 685 l 284 648 q 250 459 250 565 z "},"Ë":{"ha":853,"x_min":109,"x_max":858,"o":"m 738 970 l 633 1075 l 737 1179 l 843 1074 l 738 970 m 472 970 l 367 1075 l 471 1179 l 576 1074 l 472 970 m 512 -20 q 355 14 428 -20 q 226 109 281 49 q 140 245 171 169 q 109 406 109 322 q 152 600 109 513 q 268 749 196 688 q 424 837 340 810 l 435 819 q 311 704 358 780 l 616 890 l 616 890 l 616 890 q 708 833 660 858 q 813 791 756 809 l 848 822 l 858 810 l 720 667 q 579 735 647 696 l 579 532 l 848 532 l 707 385 l 579 385 l 579 112 q 725 170 663 123 q 818 278 786 218 l 840 278 q 792 124 837 191 q 675 19 748 57 q 512 -20 602 -20 m 494 344 l 293 260 q 390 151 328 192 q 542 110 453 110 q 546 110 544 110 l 546 755 q 503 782 524 767 l 494 777 l 494 344 m 250 459 q 280 288 250 363 l 345 315 l 345 685 l 284 648 q 250 459 250 565 z "},"Ė":{"ha":853,"x_min":109,"x_max":858,"o":"m 611 979 l 506 1084 l 610 1189 l 715 1083 l 611 979 m 512 -20 q 355 14 428 -20 q 226 109 281 49 q 140 245 171 169 q 109 406 109 322 q 152 600 109 513 q 268 749 196 688 q 424 837 340 810 l 435 819 q 311 704 358 780 l 616 890 l 616 890 l 616 890 q 708 833 660 858 q 813 791 756 809 l 848 822 l 858 810 l 720 667 q 579 735 647 696 l 579 532 l 848 532 l 707 385 l 579 385 l 579 112 q 725 170 663 123 q 818 278 786 218 l 840 278 q 792 124 837 191 q 675 19 748 57 q 512 -20 602 -20 m 494 344 l 293 260 q 390 151 328 192 q 542 110 453 110 q 546 110 544 110 l 546 755 q 503 782 524 767 l 494 777 l 494 344 m 250 459 q 280 288 250 363 l 345 315 l 345 685 l 284 648 q 250 459 250 565 z "},"È":{"ha":853,"x_min":109,"x_max":858,"o":"m 692 944 l 544 1110 l 603 1156 l 703 953 l 692 944 m 512 -20 q 355 14 428 -20 q 226 109 281 49 q 140 245 171 169 q 109 406 109 322 q 152 600 109 513 q 268 749 196 688 q 424 837 340 810 l 435 819 q 311 704 358 780 l 616 890 l 616 890 l 616 890 q 708 833 660 858 q 813 791 756 809 l 848 822 l 858 810 l 720 667 q 579 735 647 696 l 579 532 l 848 532 l 707 385 l 579 385 l 579 112 q 725 170 663 123 q 818 278 786 218 l 840 278 q 792 124 837 191 q 675 19 748 57 q 512 -20 602 -20 m 494 344 l 293 260 q 390 151 328 192 q 542 110 453 110 q 546 110 544 110 l 546 755 q 503 782 524 767 l 494 777 l 494 344 m 250 459 q 280 288 250 363 l 345 315 l 345 685 l 284 648 q 250 459 250 565 z "},"Ē":{"ha":853,"x_min":109,"x_max":858,"o":"m 733 976 l 417 977 l 417 1101 l 733 1100 l 733 976 m 512 -20 q 355 14 428 -20 q 226 109 281 49 q 140 245 171 169 q 109 406 109 322 q 152 600 109 513 q 268 749 196 688 q 424 837 340 810 l 435 819 q 311 704 358 780 l 616 890 l 616 890 l 616 890 q 708 833 660 858 q 813 791 756 809 l 848 822 l 858 810 l 720 667 q 579 735 647 696 l 579 532 l 848 532 l 707 385 l 579 385 l 579 112 q 725 170 663 123 q 818 278 786 218 l 840 278 q 792 124 837 191 q 675 19 748 57 q 512 -20 602 -20 m 494 344 l 293 260 q 390 151 328 192 q 542 110 453 110 q 546 110 544 110 l 546 755 q 503 782 524 767 l 494 777 l 494 344 m 250 459 q 280 288 250 363 l 345 315 l 345 685 l 284 648 q 250 459 250 565 z "},"Ę":{"ha":853,"x_min":109,"x_max":858,"o":"m 627 -279 q 583 -248 612 -269 q 524 -197 554 -227 q 473 -129 494 -167 q 451 -49 451 -91 q 477 40 451 2 q 537 98 503 78 l 662 16 q 587 -36 619 2 q 554 -132 554 -75 q 578 -214 554 -179 q 634 -266 601 -248 l 627 -279 m 512 -20 q 355 14 428 -20 q 226 109 281 49 q 140 245 171 169 q 109 406 109 322 q 152 600 109 513 q 268 749 196 688 q 424 837 340 810 l 435 819 q 311 704 358 780 l 616 890 l 616 890 l 616 890 q 708 833 660 858 q 813 791 756 809 l 848 822 l 858 810 l 720 667 q 579 735 647 696 l 579 532 l 848 532 l 707 385 l 579 385 l 579 112 q 725 170 663 123 q 818 278 786 218 l 840 278 q 792 124 837 191 q 675 19 748 57 q 512 -20 602 -20 m 494 344 l 293 260 q 390 151 328 192 q 542 110 453 110 q 546 110 544 110 l 546 755 q 503 782 524 767 l 494 777 l 494 344 m 250 459 q 280 288 250 363 l 345 315 l 345 685 l 284 648 q 250 459 250 565 z "},"Ə":{"ha":971,"x_min":112,"x_max":935,"o":"m 535 -28 q 369 4 446 -28 q 235 91 293 36 q 145 216 177 146 q 112 366 112 287 l 297 522 l 420 522 l 420 545 q 450 612 420 588 q 509 635 480 635 l 730 635 q 649 734 699 694 q 542 787 600 774 q 421 709 490 748 q 289 644 352 671 l 170 762 q 299 817 233 781 q 413 890 366 852 l 480 836 q 659 798 576 836 q 804 696 742 760 q 900 548 866 631 q 935 375 935 465 q 883 170 935 262 q 740 25 831 79 q 535 -28 649 -28 m 519 500 q 486 496 502 500 q 461 475 470 492 l 774 476 q 772 500 774 488 l 519 500 m 623 21 l 623 56 q 705 153 674 91 q 753 289 737 214 q 773 442 770 365 l 623 442 l 623 465 l 589 465 l 589 442 l 623 442 l 623 341 l 698 266 l 623 190 l 623 56 q 589 36 606 44 l 589 21 l 623 21 m 488 15 q 589 36 544 15 l 589 189 l 512 266 l 589 343 l 589 442 l 453 442 l 453 433 l 453 433 l 453 442 l 420 442 l 420 448 l 419 448 l 419 442 l 420 442 l 420 433 l 453 433 l 453 295 l 454 295 l 453 294 l 453 174 l 455 174 l 453 169 l 453 19 q 488 15 470 15 m 301 442 q 301 422 301 442 q 301 373 301 403 l 419 313 l 419 442 l 301 442 m 233 370 l 301 336 q 301 288 301 311 q 301 251 301 264 l 419 191 l 419 275 l 301 336 q 301 373 301 353 l 248 399 l 233 370 m 604 172 l 623 190 l 623 341 l 604 359 l 589 343 l 589 189 l 604 172 m 453 3 l 453 19 q 419 28 435 21 l 419 154 l 302 213 q 301 238 301 226 l 301 251 l 249 278 l 234 248 l 302 213 q 336 99 307 149 q 419 28 366 49 l 419 3 l 453 3 z "},"F":{"ha":786,"x_min":57,"x_max":909,"o":"m 200 -191 q 99 -151 141 -191 q 57 -51 57 -111 q 95 41 57 7 q 189 82 134 74 q 225 194 220 128 q 229 341 229 260 l 229 424 l 175 424 q 122 405 141 424 q 109 350 102 385 l 87 350 q 76 457 58 404 q 137 530 94 509 q 182 545 159 541 q 229 552 205 549 l 229 581 l 229 581 q 252 652 229 628 q 299 698 274 675 q 387 775 340 738 q 343 770 365 770 q 290 778 314 770 q 242 796 266 787 q 189 804 218 804 q 137 789 159 804 q 108 750 116 773 l 80 750 q 122 822 95 787 q 189 879 149 856 q 280 902 229 902 q 367 887 325 902 q 454 873 409 873 q 511 881 485 873 q 557 902 537 889 l 556 872 q 532 856 544 863 q 509 841 521 850 q 490 828 500 834 q 469 814 479 821 q 404 741 429 784 q 378 624 378 699 l 378 461 l 378 241 q 336 153 378 192 q 245 83 293 113 q 328 74 287 81 q 410 64 369 67 q 435 124 435 80 l 435 709 l 660 907 q 744 858 700 880 q 839 819 788 836 l 876 853 l 909 829 l 766 689 q 677 722 720 701 q 598 769 634 743 l 598 557 l 830 557 l 698 421 l 598 421 l 598 256 q 575 225 598 256 q 514 149 551 194 q 436 57 477 103 q 362 -20 396 10 q 308 -49 343 -37 q 240 -61 274 -60 l 206 -61 q 167 -73 183 -61 q 150 -104 150 -84 q 166 -142 150 -124 q 203 -160 181 -160 l 203 -190 q 200 -191 201 -191 z "},"G":{"ha":934,"x_min":93,"x_max":898,"o":"m 493 -28 q 288 25 378 -28 q 145 170 197 79 q 93 375 93 262 q 125 542 93 463 q 214 684 157 622 q 343 786 270 747 q 495 834 416 826 l 603 902 q 698 837 647 866 q 806 787 749 808 l 844 825 l 868 802 l 676 611 q 786 560 736 598 q 867 464 837 522 q 898 331 898 405 q 865 185 898 251 q 775 72 832 119 q 646 -2 719 24 q 493 -28 573 -28 m 478 557 l 478 463 l 689 671 q 585 736 635 697 q 490 810 535 774 q 479 808 484 809 l 478 557 m 252 501 q 260 367 252 435 q 287 237 269 299 q 326 324 318 271 q 329 358 329 340 q 329 391 329 375 l 329 730 q 252 501 252 650 m 573 488 l 573 318 l 705 384 q 573 488 655 457 m 470 319 q 410 233 454 269 q 307 184 366 198 q 395 63 339 110 q 539 15 451 15 l 541 15 l 541 478 l 478 417 l 478 397 q 477 358 478 377 q 470 319 476 338 m 573 281 l 573 197 l 747 284 q 722 355 740 322 l 573 281 m 750 238 q 750 249 750 244 l 573 160 l 573 17 q 701 93 652 30 q 750 238 750 156 z "},"Ğ":{"ha":934,"x_min":93,"x_max":898,"o":"m 566 966 q 469 992 510 966 q 403 1054 428 1019 l 481 1124 q 535 1079 501 1096 q 613 1061 568 1061 q 707 1109 684 1061 l 736 1095 q 674 1007 715 1047 q 566 966 633 966 m 493 -28 q 288 25 378 -28 q 145 170 197 79 q 93 375 93 262 q 125 542 93 463 q 214 684 157 622 q 343 786 270 747 q 495 834 416 826 l 603 902 q 698 837 647 866 q 806 787 749 808 l 844 825 l 868 802 l 676 611 q 786 560 736 598 q 867 464 837 522 q 898 331 898 405 q 865 185 898 251 q 775 72 832 119 q 646 -2 719 24 q 493 -28 573 -28 m 478 557 l 478 463 l 689 671 q 585 736 635 697 q 490 810 535 774 q 479 808 484 809 l 478 557 m 252 501 q 260 367 252 435 q 287 237 269 299 q 326 324 318 271 q 329 358 329 340 q 329 391 329 375 l 329 730 q 252 501 252 650 m 573 488 l 573 318 l 705 384 q 573 488 655 457 m 470 319 q 410 233 454 269 q 307 184 366 198 q 395 63 339 110 q 539 15 451 15 l 541 15 l 541 478 l 478 417 l 478 397 q 477 358 478 377 q 470 319 476 338 m 573 281 l 573 197 l 747 284 q 722 355 740 322 l 573 281 m 750 238 q 750 249 750 244 l 573 160 l 573 17 q 701 93 652 30 q 750 238 750 156 z "},"Ĝ":{"ha":934,"x_min":93,"x_max":898,"o":"m 398 938 l 377 958 l 583 1163 l 727 1029 l 641 938 l 516 1054 l 398 938 m 493 -28 q 288 25 378 -28 q 145 170 197 79 q 93 375 93 262 q 125 542 93 463 q 214 684 157 622 q 343 786 270 747 q 495 834 416 826 l 603 902 q 698 837 647 866 q 806 787 749 808 l 844 825 l 868 802 l 676 611 q 786 560 736 598 q 867 464 837 522 q 898 331 898 405 q 865 185 898 251 q 775 72 832 119 q 646 -2 719 24 q 493 -28 573 -28 m 478 557 l 478 463 l 689 671 q 585 736 635 697 q 490 810 535 774 q 479 808 484 809 l 478 557 m 252 501 q 260 367 252 435 q 287 237 269 299 q 326 324 318 271 q 329 358 329 340 q 329 391 329 375 l 329 730 q 252 501 252 650 m 573 488 l 573 318 l 705 384 q 573 488 655 457 m 470 319 q 410 233 454 269 q 307 184 366 198 q 395 63 339 110 q 539 15 451 15 l 541 15 l 541 478 l 478 417 l 478 397 q 477 358 478 377 q 470 319 476 338 m 573 281 l 573 197 l 747 284 q 722 355 740 322 l 573 281 m 750 238 q 750 249 750 244 l 573 160 l 573 17 q 701 93 652 30 q 750 238 750 156 z "},"Ģ":{"ha":934,"x_min":93,"x_max":898,"o":"m 440 -288 l 433 -280 q 484 -247 455 -271 q 513 -182 513 -223 q 479 -111 513 -138 q 405 -75 444 -84 l 530 -16 q 588 -56 560 -29 q 616 -122 616 -82 q 604 -165 616 -140 q 554 -221 591 -190 q 440 -288 516 -252 m 493 -28 q 288 25 378 -28 q 145 170 197 79 q 93 375 93 262 q 125 542 93 463 q 214 684 157 622 q 343 786 270 747 q 495 834 416 826 l 603 902 q 698 837 647 866 q 806 787 749 808 l 844 825 l 868 802 l 676 611 q 786 560 736 598 q 867 464 837 522 q 898 331 898 405 q 865 185 898 251 q 775 72 832 119 q 646 -2 719 24 q 493 -28 573 -28 m 478 557 l 478 463 l 689 671 q 585 736 635 697 q 490 810 535 774 q 479 808 484 809 l 478 557 m 252 501 q 260 367 252 435 q 287 237 269 299 q 326 324 318 271 q 329 358 329 340 q 329 391 329 375 l 329 730 q 252 501 252 650 m 573 488 l 573 318 l 705 384 q 573 488 655 457 m 470 319 q 410 233 454 269 q 307 184 366 198 q 395 63 339 110 q 539 15 451 15 l 541 15 l 541 478 l 478 417 l 478 397 q 477 358 478 377 q 470 319 476 338 m 573 281 l 573 197 l 747 284 q 722 355 740 322 l 573 281 m 750 238 q 750 249 750 244 l 573 160 l 573 17 q 701 93 652 30 q 750 238 750 156 z "},"Ġ":{"ha":934,"x_min":93,"x_max":898,"o":"m 578 993 l 472 1098 l 576 1203 l 682 1097 l 578 993 m 493 -28 q 288 25 378 -28 q 145 170 197 79 q 93 375 93 262 q 125 542 93 463 q 214 684 157 622 q 343 786 270 747 q 495 834 416 826 l 603 902 q 698 837 647 866 q 806 787 749 808 l 844 825 l 868 802 l 676 611 q 786 560 736 598 q 867 464 837 522 q 898 331 898 405 q 865 185 898 251 q 775 72 832 119 q 646 -2 719 24 q 493 -28 573 -28 m 478 557 l 478 463 l 689 671 q 585 736 635 697 q 490 810 535 774 q 479 808 484 809 l 478 557 m 252 501 q 260 367 252 435 q 287 237 269 299 q 326 324 318 271 q 329 358 329 340 q 329 391 329 375 l 329 730 q 252 501 252 650 m 573 488 l 573 318 l 705 384 q 573 488 655 457 m 470 319 q 410 233 454 269 q 307 184 366 198 q 395 63 339 110 q 539 15 451 15 l 541 15 l 541 478 l 478 417 l 478 397 q 477 358 478 377 q 470 319 476 338 m 573 281 l 573 197 l 747 284 q 722 355 740 322 l 573 281 m 750 238 q 750 249 750 244 l 573 160 l 573 17 q 701 93 652 30 q 750 238 750 156 z "},"H":{"ha":903,"x_min":52,"x_max":888,"o":"m 83 714 l 60 725 q 71 751 61 728 q 101 803 80 774 q 156 852 122 831 q 244 874 191 874 q 303 869 273 874 q 365 863 333 863 q 411 869 388 863 q 458 889 434 874 l 480 877 q 435 828 462 858 q 370 774 407 797 q 281 751 332 751 q 227 756 253 751 q 175 762 200 762 q 124 752 150 762 q 83 714 98 742 m 52 -39 q 75 -2 57 -30 q 128 60 94 27 q 216 117 163 93 q 341 141 270 141 q 449 123 397 141 l 449 778 q 409 715 421 748 q 396 610 396 682 l 396 352 q 392 301 396 331 q 372 238 389 271 q 313 181 354 206 q 184 138 255 144 l 184 166 q 222 201 208 181 q 241 266 236 221 q 247 396 247 310 l 247 399 l 219 399 q 164 381 182 399 q 152 332 147 362 l 130 332 q 112 400 112 365 q 133 473 112 448 q 185 510 154 499 q 247 528 215 522 l 247 557 q 262 637 247 610 q 304 683 278 664 q 363 727 331 701 q 392 752 378 738 q 419 780 406 765 l 449 814 l 481 814 l 481 532 l 640 532 l 640 741 l 610 771 l 569 740 l 569 772 l 704 881 l 791 809 l 825 837 l 845 811 l 802 777 l 802 149 l 834 112 l 870 142 l 888 126 l 734 -3 l 622 98 l 594 76 l 581 94 l 640 140 l 640 397 l 481 397 l 481 110 q 500 101 491 105 l 385 -10 q 334 16 368 1 q 253 31 301 31 q 88 -39 155 31 l 52 -39 z "},"Ĥ":{"ha":903,"x_min":52,"x_max":888,"o":"m 394 979 l 373 1000 l 579 1205 l 722 1071 l 637 979 l 512 1096 l 394 979 m 83 714 l 60 725 q 71 751 61 728 q 101 803 80 774 q 156 852 122 831 q 244 874 191 874 q 303 869 273 874 q 365 863 333 863 q 411 869 388 863 q 458 889 434 874 l 480 877 q 435 828 462 858 q 370 774 407 797 q 281 751 332 751 q 227 756 253 751 q 175 762 200 762 q 124 752 150 762 q 83 714 98 742 m 52 -39 q 75 -2 57 -30 q 128 60 94 27 q 216 117 163 93 q 341 141 270 141 q 449 123 397 141 l 449 778 q 409 715 421 748 q 396 610 396 682 l 396 352 q 392 301 396 331 q 372 238 389 271 q 313 181 354 206 q 184 138 255 144 l 184 166 q 222 201 208 181 q 241 266 236 221 q 247 396 247 310 l 247 399 l 219 399 q 164 381 182 399 q 152 332 147 362 l 130 332 q 112 400 112 365 q 133 473 112 448 q 185 510 154 499 q 247 528 215 522 l 247 557 q 262 637 247 610 q 304 683 278 664 q 363 727 331 701 q 392 752 378 738 q 419 780 406 765 l 449 814 l 481 814 l 481 532 l 640 532 l 640 741 l 610 771 l 569 740 l 569 772 l 704 881 l 791 809 l 825 837 l 845 811 l 802 777 l 802 149 l 834 112 l 870 142 l 888 126 l 734 -3 l 622 98 l 594 76 l 581 94 l 640 140 l 640 397 l 481 397 l 481 110 q 500 101 491 105 l 385 -10 q 334 16 368 1 q 253 31 301 31 q 88 -39 155 31 l 52 -39 z "},"I":{"ha":712,"x_min":52,"x_max":706,"o":"m 204 174 q 273 280 262 205 q 275 310 274 295 q 275 340 275 325 l 275 424 l 233 424 q 178 403 191 424 q 166 363 166 382 q 167 350 166 356 l 145 350 q 127 418 127 382 q 152 497 127 470 q 210 535 176 523 q 275 551 244 546 l 275 581 q 280 625 275 606 q 299 663 284 644 q 347 707 314 682 q 385 734 365 721 q 358 733 372 733 q 286 741 321 733 q 215 749 251 749 q 137 703 154 749 l 110 703 q 133 748 117 720 q 174 803 148 775 q 236 851 200 831 q 318 870 272 870 q 405 856 362 870 q 490 841 447 841 q 538 848 510 841 q 589 878 565 855 l 588 847 q 538 795 565 813 q 486 756 512 777 q 457 732 471 743 q 434 698 443 721 q 425 624 425 675 l 425 461 l 425 372 q 421 322 425 344 q 407 282 418 301 q 337 214 384 240 q 242 174 291 189 l 204 174 m 179 -116 q 82 -76 112 -116 q 52 20 52 -37 q 93 116 52 80 q 192 153 134 153 q 319 131 251 153 q 456 90 388 109 q 475 102 468 96 q 486 127 483 109 q 490 185 490 145 l 490 624 q 504 717 490 686 q 547 767 519 748 q 622 816 576 787 l 689 861 l 706 843 q 665 792 677 824 q 653 716 653 760 l 653 271 q 410 3 559 112 q 377 -15 395 -7 q 336 -23 360 -23 q 311 -21 323 -23 q 288 -19 300 -20 l 182 -5 q 166 -3 171 -3 q 135 -14 147 -3 q 123 -44 123 -25 q 139 -82 123 -67 q 179 -97 156 -97 l 179 -97 l 179 -116 z "},"Ĳ":{"ha":1431,"x_min":54,"x_max":1425,"o":"m 250 -54 l 250 -16 q 290 9 274 -9 q 306 58 306 27 l 306 358 l 277 358 q 225 341 244 358 q 211 292 205 324 l 189 292 q 170 359 170 323 q 192 433 170 406 q 245 472 214 459 q 306 488 277 484 l 306 534 q 314 590 306 565 q 352 646 323 616 q 443 721 382 676 q 380 715 413 715 q 317 720 347 715 q 256 725 287 725 q 181 707 215 725 q 147 648 147 689 q 159 612 147 627 q 188 591 171 597 l 183 582 q 114 633 144 596 q 84 722 84 670 q 135 834 84 792 q 256 876 186 876 q 359 860 309 876 q 464 844 410 844 q 588 885 536 844 l 615 861 q 519 782 553 816 q 472 713 485 748 q 458 628 458 678 l 458 153 q 434 53 458 101 q 363 -24 410 6 q 250 -54 317 -54 m 291 -110 q 221 -103 255 -110 q 156 -80 188 -96 q 87 -24 119 -61 q 54 67 54 13 q 83 146 54 112 q 156 179 112 179 q 218 154 192 179 q 244 93 244 128 q 220 33 244 57 q 162 9 197 9 q 126 17 142 9 q 187 -54 146 -25 q 287 -82 228 -82 q 356 -70 318 -82 q 429 -29 395 -58 q 486 50 464 0 q 508 177 508 101 l 508 529 q 521 667 508 616 q 558 749 534 718 q 617 805 582 780 q 694 863 652 830 l 709 848 q 672 770 683 819 q 661 624 661 720 l 661 304 q 630 107 661 184 q 550 -14 598 30 q 448 -79 501 -59 q 352 -105 396 -100 q 291 -110 309 -110 m 922 174 q 992 280 980 205 q 994 310 993 295 q 994 340 994 325 l 994 424 l 951 424 q 897 403 910 424 q 884 363 884 382 q 885 350 884 356 l 863 350 q 846 418 846 382 q 870 497 846 470 q 929 535 895 523 q 994 551 963 546 l 994 581 q 998 625 994 606 q 1017 663 1002 644 q 1066 707 1032 682 q 1104 734 1083 721 q 1076 733 1090 733 q 1005 741 1039 733 q 934 749 970 749 q 855 703 873 749 l 829 703 q 851 748 836 720 q 893 803 867 775 q 955 851 919 831 q 1037 870 991 870 q 1123 856 1081 870 q 1208 841 1166 841 q 1256 848 1229 841 q 1308 878 1284 855 l 1307 847 q 1257 795 1284 813 q 1205 756 1230 777 q 1176 732 1190 743 q 1153 698 1162 721 q 1144 624 1144 675 l 1144 461 l 1144 372 q 1140 322 1144 344 q 1126 282 1137 301 q 1056 214 1103 240 q 961 174 1009 189 l 922 174 m 898 -116 q 801 -76 831 -116 q 771 20 771 -37 q 812 116 771 80 q 911 153 853 153 q 1038 131 970 153 q 1175 90 1106 109 q 1194 102 1186 96 q 1205 127 1201 109 q 1208 185 1208 145 l 1208 624 q 1223 717 1208 686 q 1266 767 1237 748 q 1340 816 1295 787 l 1407 861 l 1425 843 q 1384 792 1396 824 q 1372 716 1372 760 l 1372 271 q 1128 3 1278 112 q 1096 -15 1113 -7 q 1054 -23 1079 -23 q 1030 -21 1042 -23 q 1007 -19 1019 -20 l 900 -5 q 884 -3 890 -3 q 854 -14 866 -3 q 841 -44 841 -25 q 858 -82 841 -67 q 898 -97 875 -97 l 898 -97 l 898 -116 z "},"Í":{"ha":712,"x_min":52,"x_max":706,"o":"m 396 991 l 387 999 l 485 1203 l 545 1156 l 396 991 m 204 174 q 273 280 262 205 q 275 310 274 295 q 275 340 275 325 l 275 424 l 233 424 q 178 403 191 424 q 166 363 166 382 q 167 350 166 356 l 145 350 q 127 418 127 382 q 152 497 127 470 q 210 535 176 523 q 275 551 244 546 l 275 581 q 280 625 275 606 q 299 663 284 644 q 347 707 314 682 q 385 734 365 721 q 358 733 372 733 q 286 741 321 733 q 215 749 251 749 q 137 703 154 749 l 110 703 q 133 748 117 720 q 174 803 148 775 q 236 851 200 831 q 318 870 272 870 q 405 856 362 870 q 490 841 447 841 q 538 848 510 841 q 589 878 565 855 l 588 847 q 538 795 565 813 q 486 756 512 777 q 457 732 471 743 q 434 698 443 721 q 425 624 425 675 l 425 461 l 425 372 q 421 322 425 344 q 407 282 418 301 q 337 214 384 240 q 242 174 291 189 l 204 174 m 179 -116 q 82 -76 112 -116 q 52 20 52 -37 q 93 116 52 80 q 192 153 134 153 q 319 131 251 153 q 456 90 388 109 q 475 102 468 96 q 486 127 483 109 q 490 185 490 145 l 490 624 q 504 717 490 686 q 547 767 519 748 q 622 816 576 787 l 689 861 l 706 843 q 665 792 677 824 q 653 716 653 760 l 653 271 q 410 3 559 112 q 377 -15 395 -7 q 336 -23 360 -23 q 311 -21 323 -23 q 288 -19 300 -20 l 182 -5 q 166 -3 171 -3 q 135 -14 147 -3 q 123 -44 123 -25 q 139 -82 123 -67 q 179 -97 156 -97 l 179 -97 l 179 -116 z "},"Ĭ":{"ha":712,"x_min":52,"x_max":706,"o":"m 442 999 q 345 1025 387 999 q 279 1087 304 1051 l 358 1156 q 411 1111 377 1128 q 490 1094 444 1094 q 583 1141 560 1094 l 612 1127 q 550 1039 591 1080 q 442 999 509 999 m 204 174 q 273 280 262 205 q 275 310 274 295 q 275 340 275 325 l 275 424 l 233 424 q 178 403 191 424 q 166 363 166 382 q 167 350 166 356 l 145 350 q 127 418 127 382 q 152 497 127 470 q 210 535 176 523 q 275 551 244 546 l 275 581 q 280 625 275 606 q 299 663 284 644 q 347 707 314 682 q 385 734 365 721 q 358 733 372 733 q 286 741 321 733 q 215 749 251 749 q 137 703 154 749 l 110 703 q 133 748 117 720 q 174 803 148 775 q 236 851 200 831 q 318 870 272 870 q 405 856 362 870 q 490 841 447 841 q 538 848 510 841 q 589 878 565 855 l 588 847 q 538 795 565 813 q 486 756 512 777 q 457 732 471 743 q 434 698 443 721 q 425 624 425 675 l 425 461 l 425 372 q 421 322 425 344 q 407 282 418 301 q 337 214 384 240 q 242 174 291 189 l 204 174 m 179 -116 q 82 -76 112 -116 q 52 20 52 -37 q 93 116 52 80 q 192 153 134 153 q 319 131 251 153 q 456 90 388 109 q 475 102 468 96 q 486 127 483 109 q 490 185 490 145 l 490 624 q 504 717 490 686 q 547 767 519 748 q 622 816 576 787 l 689 861 l 706 843 q 665 792 677 824 q 653 716 653 760 l 653 271 q 410 3 559 112 q 377 -15 395 -7 q 336 -23 360 -23 q 311 -21 323 -23 q 288 -19 300 -20 l 182 -5 q 166 -3 171 -3 q 135 -14 147 -3 q 123 -44 123 -25 q 139 -82 123 -67 q 179 -97 156 -97 l 179 -97 l 179 -116 z "},"Î":{"ha":712,"x_min":52,"x_max":706,"o":"m 274 970 l 253 991 l 459 1196 l 603 1061 l 517 970 l 392 1087 l 274 970 m 204 174 q 273 280 262 205 q 275 310 274 295 q 275 340 275 325 l 275 424 l 233 424 q 178 403 191 424 q 166 363 166 382 q 167 350 166 356 l 145 350 q 127 418 127 382 q 152 497 127 470 q 210 535 176 523 q 275 551 244 546 l 275 581 q 280 625 275 606 q 299 663 284 644 q 347 707 314 682 q 385 734 365 721 q 358 733 372 733 q 286 741 321 733 q 215 749 251 749 q 137 703 154 749 l 110 703 q 133 748 117 720 q 174 803 148 775 q 236 851 200 831 q 318 870 272 870 q 405 856 362 870 q 490 841 447 841 q 538 848 510 841 q 589 878 565 855 l 588 847 q 538 795 565 813 q 486 756 512 777 q 457 732 471 743 q 434 698 443 721 q 425 624 425 675 l 425 461 l 425 372 q 421 322 425 344 q 407 282 418 301 q 337 214 384 240 q 242 174 291 189 l 204 174 m 179 -116 q 82 -76 112 -116 q 52 20 52 -37 q 93 116 52 80 q 192 153 134 153 q 319 131 251 153 q 456 90 388 109 q 475 102 468 96 q 486 127 483 109 q 490 185 490 145 l 490 624 q 504 717 490 686 q 547 767 519 748 q 622 816 576 787 l 689 861 l 706 843 q 665 792 677 824 q 653 716 653 760 l 653 271 q 410 3 559 112 q 377 -15 395 -7 q 336 -23 360 -23 q 311 -21 323 -23 q 288 -19 300 -20 l 182 -5 q 166 -3 171 -3 q 135 -14 147 -3 q 123 -44 123 -25 q 139 -82 123 -67 q 179 -97 156 -97 l 179 -97 l 179 -116 z "},"Ï":{"ha":712,"x_min":52,"x_max":706,"o":"m 581 1016 l 476 1122 l 580 1226 l 685 1120 l 581 1016 m 315 1016 l 209 1122 l 314 1226 l 419 1120 l 315 1016 m 204 174 q 273 280 262 205 q 275 310 274 295 q 275 340 275 325 l 275 424 l 233 424 q 178 403 191 424 q 166 363 166 382 q 167 350 166 356 l 145 350 q 127 418 127 382 q 152 497 127 470 q 210 535 176 523 q 275 551 244 546 l 275 581 q 280 625 275 606 q 299 663 284 644 q 347 707 314 682 q 385 734 365 721 q 358 733 372 733 q 286 741 321 733 q 215 749 251 749 q 137 703 154 749 l 110 703 q 133 748 117 720 q 174 803 148 775 q 236 851 200 831 q 318 870 272 870 q 405 856 362 870 q 490 841 447 841 q 538 848 510 841 q 589 878 565 855 l 588 847 q 538 795 565 813 q 486 756 512 777 q 457 732 471 743 q 434 698 443 721 q 425 624 425 675 l 425 461 l 425 372 q 421 322 425 344 q 407 282 418 301 q 337 214 384 240 q 242 174 291 189 l 204 174 m 179 -116 q 82 -76 112 -116 q 52 20 52 -37 q 93 116 52 80 q 192 153 134 153 q 319 131 251 153 q 456 90 388 109 q 475 102 468 96 q 486 127 483 109 q 490 185 490 145 l 490 624 q 504 717 490 686 q 547 767 519 748 q 622 816 576 787 l 689 861 l 706 843 q 665 792 677 824 q 653 716 653 760 l 653 271 q 410 3 559 112 q 377 -15 395 -7 q 336 -23 360 -23 q 311 -21 323 -23 q 288 -19 300 -20 l 182 -5 q 166 -3 171 -3 q 135 -14 147 -3 q 123 -44 123 -25 q 139 -82 123 -67 q 179 -97 156 -97 l 179 -97 l 179 -116 z "},"İ":{"ha":712,"x_min":52,"x_max":706,"o":"m 454 1025 l 348 1131 l 453 1235 l 558 1130 l 454 1025 m 204 174 q 273 280 262 205 q 275 310 274 295 q 275 340 275 325 l 275 424 l 233 424 q 178 403 191 424 q 166 363 166 382 q 167 350 166 356 l 145 350 q 127 418 127 382 q 152 497 127 470 q 210 535 176 523 q 275 551 244 546 l 275 581 q 280 625 275 606 q 299 663 284 644 q 347 707 314 682 q 385 734 365 721 q 358 733 372 733 q 286 741 321 733 q 215 749 251 749 q 137 703 154 749 l 110 703 q 133 748 117 720 q 174 803 148 775 q 236 851 200 831 q 318 870 272 870 q 405 856 362 870 q 490 841 447 841 q 538 848 510 841 q 589 878 565 855 l 588 847 q 538 795 565 813 q 486 756 512 777 q 457 732 471 743 q 434 698 443 721 q 425 624 425 675 l 425 461 l 425 372 q 421 322 425 344 q 407 282 418 301 q 337 214 384 240 q 242 174 291 189 l 204 174 m 179 -116 q 82 -76 112 -116 q 52 20 52 -37 q 93 116 52 80 q 192 153 134 153 q 319 131 251 153 q 456 90 388 109 q 475 102 468 96 q 486 127 483 109 q 490 185 490 145 l 490 624 q 504 717 490 686 q 547 767 519 748 q 622 816 576 787 l 689 861 l 706 843 q 665 792 677 824 q 653 716 653 760 l 653 271 q 410 3 559 112 q 377 -15 395 -7 q 336 -23 360 -23 q 311 -21 323 -23 q 288 -19 300 -20 l 182 -5 q 166 -3 171 -3 q 135 -14 147 -3 q 123 -44 123 -25 q 139 -82 123 -67 q 179 -97 156 -97 l 179 -97 l 179 -116 z "},"Ì":{"ha":712,"x_min":52,"x_max":706,"o":"m 535 991 l 387 1156 l 446 1203 l 545 999 l 535 991 m 204 174 q 273 280 262 205 q 275 310 274 295 q 275 340 275 325 l 275 424 l 233 424 q 178 403 191 424 q 166 363 166 382 q 167 350 166 356 l 145 350 q 127 418 127 382 q 152 497 127 470 q 210 535 176 523 q 275 551 244 546 l 275 581 q 280 625 275 606 q 299 663 284 644 q 347 707 314 682 q 385 734 365 721 q 358 733 372 733 q 286 741 321 733 q 215 749 251 749 q 137 703 154 749 l 110 703 q 133 748 117 720 q 174 803 148 775 q 236 851 200 831 q 318 870 272 870 q 405 856 362 870 q 490 841 447 841 q 538 848 510 841 q 589 878 565 855 l 588 847 q 538 795 565 813 q 486 756 512 777 q 457 732 471 743 q 434 698 443 721 q 425 624 425 675 l 425 461 l 425 372 q 421 322 425 344 q 407 282 418 301 q 337 214 384 240 q 242 174 291 189 l 204 174 m 179 -116 q 82 -76 112 -116 q 52 20 52 -37 q 93 116 52 80 q 192 153 134 153 q 319 131 251 153 q 456 90 388 109 q 475 102 468 96 q 486 127 483 109 q 490 185 490 145 l 490 624 q 504 717 490 686 q 547 767 519 748 q 622 816 576 787 l 689 861 l 706 843 q 665 792 677 824 q 653 716 653 760 l 653 271 q 410 3 559 112 q 377 -15 395 -7 q 336 -23 360 -23 q 311 -21 323 -23 q 288 -19 300 -20 l 182 -5 q 166 -3 171 -3 q 135 -14 147 -3 q 123 -44 123 -25 q 139 -82 123 -67 q 179 -97 156 -97 l 179 -97 l 179 -116 z "},"Ī":{"ha":712,"x_min":52,"x_max":706,"o":"m 622 1022 l 306 1023 l 306 1147 l 622 1146 l 622 1022 m 204 174 q 273 280 262 205 q 275 310 274 295 q 275 340 275 325 l 275 424 l 233 424 q 178 403 191 424 q 166 363 166 382 q 167 350 166 356 l 145 350 q 127 418 127 382 q 152 497 127 470 q 210 535 176 523 q 275 551 244 546 l 275 581 q 280 625 275 606 q 299 663 284 644 q 347 707 314 682 q 385 734 365 721 q 358 733 372 733 q 286 741 321 733 q 215 749 251 749 q 137 703 154 749 l 110 703 q 133 748 117 720 q 174 803 148 775 q 236 851 200 831 q 318 870 272 870 q 405 856 362 870 q 490 841 447 841 q 538 848 510 841 q 589 878 565 855 l 588 847 q 538 795 565 813 q 486 756 512 777 q 457 732 471 743 q 434 698 443 721 q 425 624 425 675 l 425 461 l 425 372 q 421 322 425 344 q 407 282 418 301 q 337 214 384 240 q 242 174 291 189 l 204 174 m 179 -116 q 82 -76 112 -116 q 52 20 52 -37 q 93 116 52 80 q 192 153 134 153 q 319 131 251 153 q 456 90 388 109 q 475 102 468 96 q 486 127 483 109 q 490 185 490 145 l 490 624 q 504 717 490 686 q 547 767 519 748 q 622 816 576 787 l 689 861 l 706 843 q 665 792 677 824 q 653 716 653 760 l 653 271 q 410 3 559 112 q 377 -15 395 -7 q 336 -23 360 -23 q 311 -21 323 -23 q 288 -19 300 -20 l 182 -5 q 166 -3 171 -3 q 135 -14 147 -3 q 123 -44 123 -25 q 139 -82 123 -67 q 179 -97 156 -97 l 179 -97 l 179 -116 z "},"Į":{"ha":712,"x_min":52,"x_max":706,"o":"m 250 -480 q 206 -449 235 -470 q 147 -398 177 -428 q 95 -330 117 -368 q 74 -250 74 -293 q 100 -161 74 -199 q 160 -103 126 -124 l 285 -185 q 209 -238 242 -199 q 177 -333 177 -277 q 200 -415 177 -381 q 257 -468 223 -449 l 250 -480 m 204 174 q 273 280 262 205 q 275 310 274 295 q 275 340 275 325 l 275 424 l 233 424 q 178 403 191 424 q 166 363 166 382 q 167 350 166 356 l 145 350 q 127 418 127 382 q 152 497 127 470 q 210 535 176 523 q 275 551 244 546 l 275 581 q 280 625 275 606 q 299 663 284 644 q 347 707 314 682 q 385 734 365 721 q 358 733 372 733 q 286 741 321 733 q 215 749 251 749 q 137 703 154 749 l 110 703 q 133 748 117 720 q 174 803 148 775 q 236 851 200 831 q 318 870 272 870 q 405 856 362 870 q 490 841 447 841 q 538 848 510 841 q 589 878 565 855 l 588 847 q 538 795 565 813 q 486 756 512 777 q 457 732 471 743 q 434 698 443 721 q 425 624 425 675 l 425 461 l 425 372 q 421 322 425 344 q 407 282 418 301 q 337 214 384 240 q 242 174 291 189 l 204 174 m 179 -116 q 82 -76 112 -116 q 52 20 52 -37 q 93 116 52 80 q 192 153 134 153 q 319 131 251 153 q 456 90 388 109 q 475 102 468 96 q 486 127 483 109 q 490 185 490 145 l 490 624 q 504 717 490 686 q 547 767 519 748 q 622 816 576 787 l 689 861 l 706 843 q 665 792 677 824 q 653 716 653 760 l 653 271 q 410 3 559 112 q 377 -15 395 -7 q 336 -23 360 -23 q 311 -21 323 -23 q 288 -19 300 -20 l 182 -5 q 166 -3 171 -3 q 135 -14 147 -3 q 123 -44 123 -25 q 139 -82 123 -67 q 179 -97 156 -97 l 179 -97 l 179 -116 z "},"Ĩ":{"ha":712,"x_min":52,"x_max":706,"o":"m 522 988 q 455 1001 484 988 q 397 1025 426 1013 q 332 1037 368 1037 q 279 1026 301 1037 q 241 999 257 1015 l 212 1015 q 253 1067 230 1041 q 308 1112 277 1094 q 382 1130 340 1130 q 451 1117 420 1130 q 513 1094 481 1105 q 581 1082 544 1082 q 630 1094 610 1082 q 661 1125 649 1105 l 690 1109 q 627 1026 669 1064 q 522 988 586 988 m 204 174 q 273 280 262 205 q 275 310 274 295 q 275 340 275 325 l 275 424 l 233 424 q 178 403 191 424 q 166 363 166 382 q 167 350 166 356 l 145 350 q 127 418 127 382 q 152 497 127 470 q 210 535 176 523 q 275 551 244 546 l 275 581 q 280 625 275 606 q 299 663 284 644 q 347 707 314 682 q 385 734 365 721 q 358 733 372 733 q 286 741 321 733 q 215 749 251 749 q 137 703 154 749 l 110 703 q 133 748 117 720 q 174 803 148 775 q 236 851 200 831 q 318 870 272 870 q 405 856 362 870 q 490 841 447 841 q 538 848 510 841 q 589 878 565 855 l 588 847 q 538 795 565 813 q 486 756 512 777 q 457 732 471 743 q 434 698 443 721 q 425 624 425 675 l 425 461 l 425 372 q 421 322 425 344 q 407 282 418 301 q 337 214 384 240 q 242 174 291 189 l 204 174 m 179 -116 q 82 -76 112 -116 q 52 20 52 -37 q 93 116 52 80 q 192 153 134 153 q 319 131 251 153 q 456 90 388 109 q 475 102 468 96 q 486 127 483 109 q 490 185 490 145 l 490 624 q 504 717 490 686 q 547 767 519 748 q 622 816 576 787 l 689 861 l 706 843 q 665 792 677 824 q 653 716 653 760 l 653 271 q 410 3 559 112 q 377 -15 395 -7 q 336 -23 360 -23 q 311 -21 323 -23 q 288 -19 300 -20 l 182 -5 q 166 -3 171 -3 q 135 -14 147 -3 q 123 -44 123 -25 q 139 -82 123 -67 q 179 -97 156 -97 l 179 -97 l 179 -116 z "},"J":{"ha":719,"x_min":54,"x_max":709,"o":"m 250 -54 l 250 -16 q 290 9 274 -9 q 306 58 306 27 l 306 358 l 277 358 q 225 341 244 358 q 211 292 205 324 l 189 292 q 170 359 170 323 q 192 433 170 406 q 245 472 214 459 q 306 488 277 484 l 306 534 q 314 590 306 565 q 352 646 323 616 q 443 721 382 676 q 380 715 413 715 q 317 720 347 715 q 256 725 287 725 q 181 707 215 725 q 147 648 147 689 q 159 612 147 627 q 188 591 171 597 l 183 582 q 114 633 144 596 q 84 722 84 670 q 135 834 84 792 q 256 876 186 876 q 359 860 309 876 q 464 844 410 844 q 588 885 536 844 l 615 861 q 519 782 553 816 q 472 713 485 748 q 458 628 458 678 l 458 153 q 434 53 458 101 q 363 -24 410 6 q 250 -54 317 -54 m 291 -110 q 221 -103 255 -110 q 156 -80 188 -96 q 87 -24 119 -61 q 54 67 54 13 q 83 146 54 112 q 156 179 112 179 q 218 154 192 179 q 244 93 244 128 q 220 33 244 57 q 162 9 197 9 q 126 17 142 9 q 187 -54 146 -25 q 287 -82 228 -82 q 356 -70 318 -82 q 429 -29 395 -58 q 486 50 464 0 q 508 177 508 101 l 508 529 q 521 667 508 616 q 558 749 534 718 q 617 805 582 780 q 694 863 652 830 l 709 848 q 672 770 683 819 q 661 624 661 720 l 661 304 q 630 107 661 184 q 550 -14 598 30 q 448 -79 501 -59 q 352 -105 396 -100 q 291 -110 309 -110 z "},"Ĵ":{"ha":719,"x_min":54,"x_max":709,"o":"m 235 975 l 214 995 l 420 1200 l 564 1066 l 478 975 l 353 1091 l 235 975 m 250 -54 l 250 -16 q 290 9 274 -9 q 306 58 306 27 l 306 358 l 277 358 q 225 341 244 358 q 211 292 205 324 l 189 292 q 170 359 170 323 q 192 433 170 406 q 245 472 214 459 q 306 488 277 484 l 306 534 q 314 590 306 565 q 352 646 323 616 q 443 721 382 676 q 380 715 413 715 q 317 720 347 715 q 256 725 287 725 q 181 707 215 725 q 147 648 147 689 q 159 612 147 627 q 188 591 171 597 l 183 582 q 114 633 144 596 q 84 722 84 670 q 135 834 84 792 q 256 876 186 876 q 359 860 309 876 q 464 844 410 844 q 588 885 536 844 l 615 861 q 519 782 553 816 q 472 713 485 748 q 458 628 458 678 l 458 153 q 434 53 458 101 q 363 -24 410 6 q 250 -54 317 -54 m 291 -110 q 221 -103 255 -110 q 156 -80 188 -96 q 87 -24 119 -61 q 54 67 54 13 q 83 146 54 112 q 156 179 112 179 q 218 154 192 179 q 244 93 244 128 q 220 33 244 57 q 162 9 197 9 q 126 17 142 9 q 187 -54 146 -25 q 287 -82 228 -82 q 356 -70 318 -82 q 429 -29 395 -58 q 486 50 464 0 q 508 177 508 101 l 508 529 q 521 667 508 616 q 558 749 534 718 q 617 805 582 780 q 694 863 652 830 l 709 848 q 672 770 683 819 q 661 624 661 720 l 661 304 q 630 107 661 184 q 550 -14 598 30 q 448 -79 501 -59 q 352 -105 396 -100 q 291 -110 309 -110 z "},"K":{"ha":949,"x_min":84,"x_max":958,"o":"m 96 -25 q 179 84 127 35 q 299 161 231 134 q 380 224 351 196 q 421 284 409 252 q 434 358 433 315 l 440 610 q 441 649 440 622 q 454 715 442 677 q 498 797 466 753 q 589 883 529 840 l 608 855 q 508 754 542 810 q 472 609 475 698 l 469 435 l 683 688 q 596 720 637 694 l 552 671 l 536 688 l 678 858 q 720 824 696 838 q 779 810 744 810 q 838 829 814 810 q 870 875 862 848 l 887 875 q 889 848 889 862 q 867 769 889 807 q 807 708 846 731 q 714 685 767 685 l 714 685 l 587 537 q 693 480 654 516 q 752 400 731 444 q 785 309 772 355 q 819 197 802 251 q 878 106 836 142 l 958 168 l 958 133 l 781 -8 q 716 45 740 12 q 678 118 692 79 l 516 -9 q 375 58 451 41 q 311 65 343 65 q 203 39 249 65 q 132 -25 157 14 l 96 -25 m 168 169 q 235 262 221 196 q 239 295 238 278 q 240 329 240 313 l 240 426 l 208 426 q 156 407 174 426 q 144 359 138 389 l 122 359 q 106 428 106 392 q 128 508 106 480 q 182 544 150 535 q 241 554 213 553 q 253 629 243 604 q 282 669 264 654 q 324 705 300 684 l 373 747 q 306 729 339 729 q 242 740 271 729 q 179 751 213 751 q 134 738 153 751 q 112 703 116 725 l 84 703 q 112 749 95 721 q 153 804 128 777 q 207 851 177 832 q 273 869 237 869 q 347 854 315 869 q 421 838 380 838 q 472 845 450 838 q 512 867 493 853 l 509 848 q 501 841 505 845 q 423 747 457 807 q 389 589 389 688 l 389 484 l 389 395 q 385 339 389 363 q 370 293 381 315 q 301 218 347 248 q 206 169 255 188 l 168 169 m 425 186 q 637 111 545 186 l 671 138 q 655 197 662 167 q 638 256 647 227 q 589 360 620 314 q 487 420 557 406 l 472 403 l 468 403 l 466 358 q 450 266 465 306 q 383 183 434 226 q 425 186 404 186 z "},"Ķ":{"ha":949,"x_min":84,"x_max":958,"o":"m 237 -168 l 230 -160 q 281 -127 252 -150 q 310 -61 310 -103 q 276 9 310 -17 q 203 45 242 36 l 328 104 q 385 65 358 91 q 413 -1 413 38 q 401 -45 413 -20 q 351 -101 389 -69 q 237 -168 314 -132 m 96 -25 q 179 84 127 35 q 299 161 231 134 q 380 224 351 196 q 421 284 409 252 q 434 358 433 315 l 440 610 q 441 649 440 622 q 454 715 442 677 q 498 797 466 753 q 589 883 529 840 l 608 855 q 508 754 542 810 q 472 609 475 698 l 469 435 l 683 688 q 596 720 637 694 l 552 671 l 536 688 l 678 858 q 720 824 696 838 q 779 810 744 810 q 838 829 814 810 q 870 875 862 848 l 887 875 q 889 848 889 862 q 867 769 889 807 q 807 708 846 731 q 714 685 767 685 l 714 685 l 587 537 q 693 480 654 516 q 752 400 731 444 q 785 309 772 355 q 819 197 802 251 q 878 106 836 142 l 958 168 l 958 133 l 781 -8 q 716 45 740 12 q 678 118 692 79 l 516 -9 q 375 58 451 41 q 311 65 343 65 q 203 39 249 65 q 132 -25 157 14 l 96 -25 m 168 169 q 235 262 221 196 q 239 295 238 278 q 240 329 240 313 l 240 426 l 208 426 q 156 407 174 426 q 144 359 138 389 l 122 359 q 106 428 106 392 q 128 508 106 480 q 182 544 150 535 q 241 554 213 553 q 253 629 243 604 q 282 669 264 654 q 324 705 300 684 l 373 747 q 306 729 339 729 q 242 740 271 729 q 179 751 213 751 q 134 738 153 751 q 112 703 116 725 l 84 703 q 112 749 95 721 q 153 804 128 777 q 207 851 177 832 q 273 869 237 869 q 347 854 315 869 q 421 838 380 838 q 472 845 450 838 q 512 867 493 853 l 509 848 q 501 841 505 845 q 423 747 457 807 q 389 589 389 688 l 389 484 l 389 395 q 385 339 389 363 q 370 293 381 315 q 301 218 347 248 q 206 169 255 188 l 168 169 m 425 186 q 637 111 545 186 l 671 138 q 655 197 662 167 q 638 256 647 227 q 589 360 620 314 q 487 420 557 406 l 472 403 l 468 403 l 466 358 q 450 266 465 306 q 383 183 434 226 q 425 186 404 186 z "},"L":{"ha":832,"x_min":59,"x_max":819,"o":"m 131 111 q 183 190 166 133 q 201 330 201 247 l 201 402 l 168 402 q 115 383 132 402 q 103 334 97 365 l 80 334 q 66 404 66 368 q 84 476 66 447 q 133 519 103 505 q 159 527 145 523 q 201 530 174 530 l 201 546 q 219 635 201 605 q 269 685 237 664 q 345 738 301 706 q 296 731 321 731 q 230 740 262 731 q 164 749 198 749 q 87 703 104 749 l 59 703 q 75 733 61 707 q 113 791 88 759 q 174 845 138 822 q 257 869 209 869 q 333 855 297 869 q 410 841 368 841 q 466 852 442 841 q 509 878 491 862 l 507 848 q 479 818 502 843 q 418 770 456 793 q 410 763 414 766 q 403 756 406 759 q 363 683 374 729 q 352 589 352 638 l 352 360 q 323 238 351 295 q 253 146 295 182 q 169 111 211 111 l 131 111 m 106 -51 l 106 -30 q 205 88 142 37 q 354 162 269 139 q 392 245 382 193 q 402 373 402 297 l 402 546 q 431 724 402 657 q 521 825 461 791 q 672 876 581 860 l 685 878 l 685 853 l 666 847 q 575 774 600 828 q 551 646 551 720 l 551 378 q 539 302 551 333 q 500 241 528 270 q 424 175 472 212 q 473 177 449 177 q 631 156 558 177 q 764 103 704 134 l 801 131 l 819 105 l 650 -22 q 400 45 535 45 q 243 20 317 45 q 106 -51 169 -5 z "},"Ĺ":{"ha":832,"x_min":59,"x_max":819,"o":"m 403 986 l 394 994 l 492 1198 l 552 1152 l 403 986 m 131 111 q 183 190 166 133 q 201 330 201 247 l 201 402 l 168 402 q 115 383 132 402 q 103 334 97 365 l 80 334 q 66 404 66 368 q 84 476 66 447 q 133 519 103 505 q 159 527 145 523 q 201 530 174 530 l 201 546 q 219 635 201 605 q 269 685 237 664 q 345 738 301 706 q 296 731 321 731 q 230 740 262 731 q 164 749 198 749 q 87 703 104 749 l 59 703 q 75 733 61 707 q 113 791 88 759 q 174 845 138 822 q 257 869 209 869 q 333 855 297 869 q 410 841 368 841 q 466 852 442 841 q 509 878 491 862 l 507 848 q 479 818 502 843 q 418 770 456 793 q 410 763 414 766 q 403 756 406 759 q 363 683 374 729 q 352 589 352 638 l 352 360 q 323 238 351 295 q 253 146 295 182 q 169 111 211 111 l 131 111 m 106 -51 l 106 -30 q 205 88 142 37 q 354 162 269 139 q 392 245 382 193 q 402 373 402 297 l 402 546 q 431 724 402 657 q 521 825 461 791 q 672 876 581 860 l 685 878 l 685 853 l 666 847 q 575 774 600 828 q 551 646 551 720 l 551 378 q 539 302 551 333 q 500 241 528 270 q 424 175 472 212 q 473 177 449 177 q 631 156 558 177 q 764 103 704 134 l 801 131 l 819 105 l 650 -22 q 400 45 535 45 q 243 20 317 45 q 106 -51 169 -5 z "},"Ľ":{"ha":855,"x_min":59,"x_max":922,"o":"m 131 111 q 183 190 166 133 q 201 330 201 247 l 201 402 l 168 402 q 115 383 132 402 q 103 334 97 365 l 80 334 q 66 404 66 368 q 84 476 66 447 q 133 519 103 505 q 159 527 145 523 q 201 530 174 530 l 201 546 q 219 635 201 605 q 269 685 237 664 q 345 738 301 706 q 296 731 321 731 q 230 740 262 731 q 164 749 198 749 q 87 703 104 749 l 59 703 q 75 733 61 707 q 113 791 88 759 q 174 845 138 822 q 257 869 209 869 q 333 855 297 869 q 410 841 368 841 q 466 852 442 841 q 509 878 491 862 l 507 848 q 479 818 502 843 q 418 770 456 793 q 410 763 414 766 q 403 756 406 759 q 363 683 374 729 q 352 589 352 638 l 352 360 q 323 238 351 295 q 253 146 295 182 q 169 111 211 111 l 131 111 m 106 -51 l 106 -30 q 205 88 142 37 q 354 162 269 139 q 392 245 382 193 q 402 373 402 297 l 402 546 q 431 724 402 657 q 521 825 461 791 q 672 876 581 860 l 685 878 l 685 853 l 666 847 q 575 774 600 828 q 551 646 551 720 l 551 378 q 539 302 551 333 q 500 241 528 270 q 424 175 472 212 q 473 177 449 177 q 631 156 558 177 q 764 103 704 134 l 801 131 l 819 105 l 650 -22 q 400 45 535 45 q 243 20 317 45 q 106 -51 169 -5 m 853 662 q 838 677 838 662 q 843 696 838 688 q 847 729 847 704 q 832 799 847 773 q 796 839 816 824 q 761 869 777 854 q 745 910 745 884 q 763 953 745 935 q 807 971 781 971 q 856 951 829 971 q 903 897 883 932 q 922 818 922 862 q 905 736 922 771 q 865 668 888 700 q 853 662 860 662 z "},"Ļ":{"ha":832,"x_min":59,"x_max":819,"o":"m 341 -209 l 334 -201 q 385 -168 356 -192 q 414 -103 414 -145 q 380 -32 414 -59 q 307 3 346 -6 l 432 63 q 490 23 462 50 q 517 -43 517 -3 q 505 -86 517 -61 q 455 -142 493 -111 q 341 -209 418 -174 m 131 111 q 183 190 166 133 q 201 330 201 247 l 201 402 l 168 402 q 115 383 132 402 q 103 334 97 365 l 80 334 q 66 404 66 368 q 84 476 66 447 q 133 519 103 505 q 159 527 145 523 q 201 530 174 530 l 201 546 q 219 635 201 605 q 269 685 237 664 q 345 738 301 706 q 296 731 321 731 q 230 740 262 731 q 164 749 198 749 q 87 703 104 749 l 59 703 q 75 733 61 707 q 113 791 88 759 q 174 845 138 822 q 257 869 209 869 q 333 855 297 869 q 410 841 368 841 q 466 852 442 841 q 509 878 491 862 l 507 848 q 479 818 502 843 q 418 770 456 793 q 410 763 414 766 q 403 756 406 759 q 363 683 374 729 q 352 589 352 638 l 352 360 q 323 238 351 295 q 253 146 295 182 q 169 111 211 111 l 131 111 m 106 -51 l 106 -30 q 205 88 142 37 q 354 162 269 139 q 392 245 382 193 q 402 373 402 297 l 402 546 q 431 724 402 657 q 521 825 461 791 q 672 876 581 860 l 685 878 l 685 853 l 666 847 q 575 774 600 828 q 551 646 551 720 l 551 378 q 539 302 551 333 q 500 241 528 270 q 424 175 472 212 q 473 177 449 177 q 631 156 558 177 q 764 103 704 134 l 801 131 l 819 105 l 650 -22 q 400 45 535 45 q 243 20 317 45 q 106 -51 169 -5 z "},"Ŀ":{"ha":832,"x_min":59,"x_max":858,"o":"m 753 346 l 648 451 l 752 556 l 858 450 l 753 346 m 131 111 q 183 190 166 133 q 201 330 201 247 l 201 402 l 168 402 q 115 383 132 402 q 103 334 97 365 l 80 334 q 66 404 66 368 q 84 476 66 447 q 133 519 103 505 q 159 527 145 523 q 201 530 174 530 l 201 546 q 219 635 201 605 q 269 685 237 664 q 345 738 301 706 q 296 731 321 731 q 230 740 262 731 q 164 749 198 749 q 87 703 104 749 l 59 703 q 75 733 61 707 q 113 791 88 759 q 174 845 138 822 q 257 869 209 869 q 333 855 297 869 q 410 841 368 841 q 466 852 442 841 q 509 878 491 862 l 507 848 q 479 818 502 843 q 418 770 456 793 q 410 763 414 766 q 403 756 406 759 q 363 683 374 729 q 352 589 352 638 l 352 360 q 323 238 351 295 q 253 146 295 182 q 169 111 211 111 l 131 111 m 106 -51 l 106 -30 q 205 88 142 37 q 354 162 269 139 q 392 245 382 193 q 402 373 402 297 l 402 546 q 431 724 402 657 q 521 825 461 791 q 672 876 581 860 l 685 878 l 685 853 l 666 847 q 575 774 600 828 q 551 646 551 720 l 551 378 q 539 302 551 333 q 500 241 528 270 q 424 175 472 212 q 473 177 449 177 q 631 156 558 177 q 764 103 704 134 l 801 131 l 819 105 l 650 -22 q 400 45 535 45 q 243 20 317 45 q 106 -51 169 -5 z "},"Ł":{"ha":795,"x_min":14,"x_max":778,"o":"m 65 -51 l 65 -30 q 164 88 101 37 q 313 162 227 139 q 350 245 340 193 q 360 369 360 296 l 309 344 q 277 229 306 282 q 208 144 249 176 q 127 111 168 111 l 89 111 q 157 267 145 147 l 29 203 l 14 233 l 160 306 q 160 330 160 317 l 160 569 q 178 658 160 628 q 227 708 196 688 q 303 762 259 729 q 255 755 279 755 q 188 763 220 755 q 123 772 156 772 q 45 726 63 772 l 17 726 q 33 756 20 730 q 71 814 46 782 q 132 869 96 845 q 215 892 168 892 q 291 878 256 892 q 368 865 326 865 q 425 875 400 865 q 468 902 449 885 l 465 872 q 438 841 461 866 q 376 793 414 816 q 369 786 373 789 q 361 779 365 782 q 321 707 332 752 q 310 612 310 661 l 310 381 l 360 406 l 360 546 q 427 795 360 714 q 631 899 494 875 l 644 902 l 644 876 l 624 870 q 534 797 558 851 q 509 669 509 743 l 509 481 l 720 587 l 735 557 l 509 443 l 509 378 q 498 302 509 333 q 458 241 486 270 q 382 175 431 212 q 432 177 407 177 q 589 156 516 177 q 722 103 662 134 l 759 131 l 778 105 l 609 -22 q 359 45 493 45 q 201 20 275 45 q 65 -51 127 -5 z "},"M":{"ha":1256,"x_min":60,"x_max":1247,"o":"m 82 723 l 60 734 q 131 844 84 810 q 218 878 178 878 q 271 870 248 878 q 319 854 295 862 q 373 845 343 845 q 407 856 395 845 q 432 878 420 867 l 454 867 q 352 774 391 796 q 272 751 314 751 q 214 763 240 751 q 155 774 188 774 q 109 759 127 774 q 82 723 90 744 m 223 -118 q 134 -76 169 -118 q 98 17 98 -35 q 138 116 98 79 q 235 153 177 153 q 358 172 317 153 q 413 228 399 191 q 426 319 426 265 l 426 741 q 378 688 397 720 q 360 605 360 655 l 360 347 q 329 255 360 289 q 253 203 299 220 q 160 183 207 186 l 154 205 q 201 242 192 209 q 209 313 209 275 l 209 399 l 171 399 q 118 382 138 399 q 104 332 98 365 l 82 332 q 65 400 65 365 q 102 489 65 454 q 211 534 139 524 q 246 633 216 590 q 345 719 275 675 l 576 866 q 657 799 617 832 q 737 731 698 765 l 800 770 l 800 854 l 833 854 l 833 789 l 959 865 l 1106 734 l 1154 773 l 1175 748 l 1115 699 l 1115 161 l 1164 117 l 1230 161 l 1247 144 l 1069 0 l 936 111 l 898 83 l 887 100 l 954 146 l 954 330 q 894 354 928 352 q 833 336 860 355 l 833 137 l 870 161 l 887 144 l 692 0 l 559 111 l 521 83 l 509 100 l 582 149 l 582 329 q 522 354 557 352 q 459 336 487 355 l 459 291 l 459 179 q 459 179 459 179 q 403 55 459 94 q 270 10 347 16 q 207 -1 238 8 q 176 -43 176 -9 q 194 -77 176 -65 q 234 -89 212 -89 q 237 -89 236 -89 l 237 -117 q 223 -118 230 -118 m 954 649 l 833 745 l 833 506 q 894 487 860 486 q 954 510 928 488 l 954 649 m 582 654 l 459 738 l 459 506 q 522 488 487 486 q 582 513 557 490 l 582 654 m 731 171 l 800 120 l 800 737 l 731 696 l 731 171 m 459 369 q 520 387 486 388 q 582 362 554 387 l 582 479 q 521 454 556 456 q 459 472 487 453 l 459 369 m 833 369 q 894 387 860 387 q 954 365 927 387 l 954 477 q 895 454 928 456 q 833 472 861 453 l 833 369 z "},"N":{"ha":802,"x_min":53,"x_max":851,"o":"m 227 -89 q 146 -80 186 -96 q 80 -29 106 -64 q 53 57 53 6 q 105 171 53 127 q 228 214 156 214 l 229 214 l 229 404 l 216 404 q 178 396 194 404 q 161 366 161 388 q 176 339 161 348 l 170 323 q 112 360 137 331 q 88 429 88 389 q 129 523 88 485 q 228 560 170 560 l 229 560 l 229 718 q 204 741 216 731 q 178 750 191 750 q 126 688 126 750 l 104 693 q 101 725 101 708 q 144 833 101 788 q 247 877 186 877 q 315 860 288 877 q 359 817 341 843 q 392 765 376 791 l 670 299 l 670 681 q 604 698 634 684 q 554 731 574 712 l 509 683 l 493 699 l 638 866 l 660 866 q 697 832 675 847 q 750 816 719 816 q 799 833 779 816 q 821 876 818 851 l 837 876 q 851 818 851 850 q 807 722 851 758 q 703 681 763 685 l 703 0 l 659 0 l 271 657 q 262 672 266 666 l 262 211 q 329 192 291 207 q 404 139 367 176 l 443 183 l 459 167 l 310 0 q 270 34 294 19 q 214 50 245 50 q 172 35 189 50 q 155 -3 155 21 q 178 -52 155 -34 q 231 -67 201 -71 l 227 -89 z "},"Ń":{"ha":802,"x_min":53,"x_max":851,"o":"m 448 935 l 439 943 l 537 1147 l 597 1101 l 448 935 m 227 -89 q 146 -80 186 -96 q 80 -29 106 -64 q 53 57 53 6 q 105 171 53 127 q 228 214 156 214 l 229 214 l 229 404 l 216 404 q 178 396 194 404 q 161 366 161 388 q 176 339 161 348 l 170 323 q 112 360 137 331 q 88 429 88 389 q 129 523 88 485 q 228 560 170 560 l 229 560 l 229 718 q 204 741 216 731 q 178 750 191 750 q 126 688 126 750 l 104 693 q 101 725 101 708 q 144 833 101 788 q 247 877 186 877 q 315 860 288 877 q 359 817 341 843 q 392 765 376 791 l 670 299 l 670 681 q 604 698 634 684 q 554 731 574 712 l 509 683 l 493 699 l 638 866 l 660 866 q 697 832 675 847 q 750 816 719 816 q 799 833 779 816 q 821 876 818 851 l 837 876 q 851 818 851 850 q 807 722 851 758 q 703 681 763 685 l 703 0 l 659 0 l 271 657 q 262 672 266 666 l 262 211 q 329 192 291 207 q 404 139 367 176 l 443 183 l 459 167 l 310 0 q 270 34 294 19 q 214 50 245 50 q 172 35 189 50 q 155 -3 155 21 q 178 -52 155 -34 q 231 -67 201 -71 l 227 -89 z "},"Ň":{"ha":802,"x_min":53,"x_max":851,"o":"m 505 940 l 348 1083 l 433 1175 l 569 1049 l 693 1175 l 715 1154 l 505 940 m 227 -89 q 146 -80 186 -96 q 80 -29 106 -64 q 53 57 53 6 q 105 171 53 127 q 228 214 156 214 l 229 214 l 229 404 l 216 404 q 178 396 194 404 q 161 366 161 388 q 176 339 161 348 l 170 323 q 112 360 137 331 q 88 429 88 389 q 129 523 88 485 q 228 560 170 560 l 229 560 l 229 718 q 204 741 216 731 q 178 750 191 750 q 126 688 126 750 l 104 693 q 101 725 101 708 q 144 833 101 788 q 247 877 186 877 q 315 860 288 877 q 359 817 341 843 q 392 765 376 791 l 670 299 l 670 681 q 604 698 634 684 q 554 731 574 712 l 509 683 l 493 699 l 638 866 l 660 866 q 697 832 675 847 q 750 816 719 816 q 799 833 779 816 q 821 876 818 851 l 837 876 q 851 818 851 850 q 807 722 851 758 q 703 681 763 685 l 703 0 l 659 0 l 271 657 q 262 672 266 666 l 262 211 q 329 192 291 207 q 404 139 367 176 l 443 183 l 459 167 l 310 0 q 270 34 294 19 q 214 50 245 50 q 172 35 189 50 q 155 -3 155 21 q 178 -52 155 -34 q 231 -67 201 -71 l 227 -89 z "},"Ņ":{"ha":802,"x_min":53,"x_max":851,"o":"m 123 -354 l 116 -346 q 167 -313 138 -337 q 196 -248 196 -289 q 161 -177 196 -204 q 88 -141 127 -150 l 213 -82 q 271 -122 243 -95 q 299 -187 299 -148 q 286 -231 299 -206 q 237 -287 274 -256 q 123 -354 199 -318 m 227 -89 q 146 -80 186 -96 q 80 -29 106 -64 q 53 57 53 6 q 105 171 53 127 q 228 214 156 214 l 229 214 l 229 404 l 216 404 q 178 396 194 404 q 161 366 161 388 q 176 339 161 348 l 170 323 q 112 360 137 331 q 88 429 88 389 q 129 523 88 485 q 228 560 170 560 l 229 560 l 229 718 q 204 741 216 731 q 178 750 191 750 q 126 688 126 750 l 104 693 q 101 725 101 708 q 144 833 101 788 q 247 877 186 877 q 315 860 288 877 q 359 817 341 843 q 392 765 376 791 l 670 299 l 670 681 q 604 698 634 684 q 554 731 574 712 l 509 683 l 493 699 l 638 866 l 660 866 q 697 832 675 847 q 750 816 719 816 q 799 833 779 816 q 821 876 818 851 l 837 876 q 851 818 851 850 q 807 722 851 758 q 703 681 763 685 l 703 0 l 659 0 l 271 657 q 262 672 266 666 l 262 211 q 329 192 291 207 q 404 139 367 176 l 443 183 l 459 167 l 310 0 q 270 34 294 19 q 214 50 245 50 q 172 35 189 50 q 155 -3 155 21 q 178 -52 155 -34 q 231 -67 201 -71 l 227 -89 z "},"Ñ":{"ha":802,"x_min":53,"x_max":851,"o":"m 574 933 q 507 945 536 933 q 449 969 478 957 q 384 981 420 981 q 331 970 353 981 q 293 943 309 959 l 264 959 q 306 1012 282 985 q 361 1056 329 1038 q 434 1074 392 1074 q 503 1062 472 1074 q 565 1038 534 1050 q 633 1027 596 1027 q 682 1038 662 1027 q 713 1069 701 1050 l 742 1053 q 679 970 721 1008 q 574 933 638 933 m 227 -89 q 146 -80 186 -96 q 80 -29 106 -64 q 53 57 53 6 q 105 171 53 127 q 228 214 156 214 l 229 214 l 229 404 l 216 404 q 178 396 194 404 q 161 366 161 388 q 176 339 161 348 l 170 323 q 112 360 137 331 q 88 429 88 389 q 129 523 88 485 q 228 560 170 560 l 229 560 l 229 718 q 204 741 216 731 q 178 750 191 750 q 126 688 126 750 l 104 693 q 101 725 101 708 q 144 833 101 788 q 247 877 186 877 q 315 860 288 877 q 359 817 341 843 q 392 765 376 791 l 670 299 l 670 681 q 604 698 634 684 q 554 731 574 712 l 509 683 l 493 699 l 638 866 l 660 866 q 697 832 675 847 q 750 816 719 816 q 799 833 779 816 q 821 876 818 851 l 837 876 q 851 818 851 850 q 807 722 851 758 q 703 681 763 685 l 703 0 l 659 0 l 271 657 q 262 672 266 666 l 262 211 q 329 192 291 207 q 404 139 367 176 l 443 183 l 459 167 l 310 0 q 270 34 294 19 q 214 50 245 50 q 172 35 189 50 q 155 -3 155 21 q 178 -52 155 -34 q 231 -67 201 -71 l 227 -89 z "},"O":{"ha":873,"x_min":49,"x_max":852,"o":"m 405 -34 q 268 1 332 -34 q 155 98 204 36 q 77 243 105 160 q 49 424 49 326 q 91 640 49 543 q 205 806 133 737 q 363 910 277 875 l 381 889 q 251 742 301 832 l 584 885 q 717 797 656 854 q 815 662 778 741 q 852 485 852 583 q 811 293 852 385 q 704 127 771 200 q 560 10 638 53 q 405 -34 481 -34 m 451 383 l 233 291 q 336 149 270 205 q 493 94 403 94 q 505 95 499 94 l 505 766 q 454 792 480 779 l 451 791 l 451 383 m 538 745 l 538 478 l 697 558 q 538 745 648 672 m 192 498 q 222 319 192 404 l 302 354 l 302 728 l 230 698 q 202 604 212 654 q 192 498 192 553 m 538 441 l 538 356 l 727 451 q 708 527 721 491 l 538 441 m 734 366 q 731 417 734 392 l 538 319 l 538 98 q 635 145 590 110 q 707 237 679 181 q 734 366 734 293 z "},"Ó":{"ha":873,"x_min":49,"x_max":852,"o":"m 453 995 l 443 1003 l 542 1207 l 602 1161 l 453 995 m 405 -34 q 268 1 332 -34 q 155 98 204 36 q 77 243 105 160 q 49 424 49 326 q 91 640 49 543 q 205 806 133 737 q 363 910 277 875 l 381 889 q 251 742 301 832 l 584 885 q 717 797 656 854 q 815 662 778 741 q 852 485 852 583 q 811 293 852 385 q 704 127 771 200 q 560 10 638 53 q 405 -34 481 -34 m 451 383 l 233 291 q 336 149 270 205 q 493 94 403 94 q 505 95 499 94 l 505 766 q 454 792 480 779 l 451 791 l 451 383 m 538 745 l 538 478 l 697 558 q 538 745 648 672 m 192 498 q 222 319 192 404 l 302 354 l 302 728 l 230 698 q 202 604 212 654 q 192 498 192 553 m 538 441 l 538 356 l 727 451 q 708 527 721 491 l 538 441 m 734 366 q 731 417 734 392 l 538 319 l 538 98 q 635 145 590 110 q 707 237 679 181 q 734 366 734 293 z "},"Ŏ":{"ha":873,"x_min":49,"x_max":852,"o":"m 499 1003 q 402 1030 443 1003 q 336 1091 361 1056 l 414 1161 q 468 1116 434 1133 q 546 1098 501 1098 q 640 1146 617 1098 l 669 1132 q 607 1044 648 1084 q 499 1003 566 1003 m 405 -34 q 268 1 332 -34 q 155 98 204 36 q 77 243 105 160 q 49 424 49 326 q 91 640 49 543 q 205 806 133 737 q 363 910 277 875 l 381 889 q 251 742 301 832 l 584 885 q 717 797 656 854 q 815 662 778 741 q 852 485 852 583 q 811 293 852 385 q 704 127 771 200 q 560 10 638 53 q 405 -34 481 -34 m 451 383 l 233 291 q 336 149 270 205 q 493 94 403 94 q 505 95 499 94 l 505 766 q 454 792 480 779 l 451 791 l 451 383 m 538 745 l 538 478 l 697 558 q 538 745 648 672 m 192 498 q 222 319 192 404 l 302 354 l 302 728 l 230 698 q 202 604 212 654 q 192 498 192 553 m 538 441 l 538 356 l 727 451 q 708 527 721 491 l 538 441 m 734 366 q 731 417 734 392 l 538 319 l 538 98 q 635 145 590 110 q 707 237 679 181 q 734 366 734 293 z "},"Ô":{"ha":873,"x_min":49,"x_max":852,"o":"m 331 975 l 310 995 l 516 1200 l 660 1066 l 574 975 l 449 1091 l 331 975 m 405 -34 q 268 1 332 -34 q 155 98 204 36 q 77 243 105 160 q 49 424 49 326 q 91 640 49 543 q 205 806 133 737 q 363 910 277 875 l 381 889 q 251 742 301 832 l 584 885 q 717 797 656 854 q 815 662 778 741 q 852 485 852 583 q 811 293 852 385 q 704 127 771 200 q 560 10 638 53 q 405 -34 481 -34 m 451 383 l 233 291 q 336 149 270 205 q 493 94 403 94 q 505 95 499 94 l 505 766 q 454 792 480 779 l 451 791 l 451 383 m 538 745 l 538 478 l 697 558 q 538 745 648 672 m 192 498 q 222 319 192 404 l 302 354 l 302 728 l 230 698 q 202 604 212 654 q 192 498 192 553 m 538 441 l 538 356 l 727 451 q 708 527 721 491 l 538 441 m 734 366 q 731 417 734 392 l 538 319 l 538 98 q 635 145 590 110 q 707 237 679 181 q 734 366 734 293 z "},"Ö":{"ha":873,"x_min":49,"x_max":852,"o":"m 638 1021 l 532 1126 l 637 1230 l 742 1125 l 638 1021 m 372 1021 l 266 1126 l 370 1230 l 476 1125 l 372 1021 m 405 -34 q 268 1 332 -34 q 155 98 204 36 q 77 243 105 160 q 49 424 49 326 q 91 640 49 543 q 205 806 133 737 q 363 910 277 875 l 381 889 q 251 742 301 832 l 584 885 q 717 797 656 854 q 815 662 778 741 q 852 485 852 583 q 811 293 852 385 q 704 127 771 200 q 560 10 638 53 q 405 -34 481 -34 m 451 383 l 233 291 q 336 149 270 205 q 493 94 403 94 q 505 95 499 94 l 505 766 q 454 792 480 779 l 451 791 l 451 383 m 538 745 l 538 478 l 697 558 q 538 745 648 672 m 192 498 q 222 319 192 404 l 302 354 l 302 728 l 230 698 q 202 604 212 654 q 192 498 192 553 m 538 441 l 538 356 l 727 451 q 708 527 721 491 l 538 441 m 734 366 q 731 417 734 392 l 538 319 l 538 98 q 635 145 590 110 q 707 237 679 181 q 734 366 734 293 z "},"Ò":{"ha":873,"x_min":49,"x_max":852,"o":"m 591 995 l 443 1161 l 502 1207 l 602 1003 l 591 995 m 405 -34 q 268 1 332 -34 q 155 98 204 36 q 77 243 105 160 q 49 424 49 326 q 91 640 49 543 q 205 806 133 737 q 363 910 277 875 l 381 889 q 251 742 301 832 l 584 885 q 717 797 656 854 q 815 662 778 741 q 852 485 852 583 q 811 293 852 385 q 704 127 771 200 q 560 10 638 53 q 405 -34 481 -34 m 451 383 l 233 291 q 336 149 270 205 q 493 94 403 94 q 505 95 499 94 l 505 766 q 454 792 480 779 l 451 791 l 451 383 m 538 745 l 538 478 l 697 558 q 538 745 648 672 m 192 498 q 222 319 192 404 l 302 354 l 302 728 l 230 698 q 202 604 212 654 q 192 498 192 553 m 538 441 l 538 356 l 727 451 q 708 527 721 491 l 538 441 m 734 366 q 731 417 734 392 l 538 319 l 538 98 q 635 145 590 110 q 707 237 679 181 q 734 366 734 293 z "},"Ő":{"ha":873,"x_min":49,"x_max":852,"o":"m 453 995 l 443 1003 l 542 1207 l 602 1161 l 453 995 m 575 995 l 566 1003 l 664 1207 l 725 1161 l 575 995 m 405 -34 q 268 1 332 -34 q 155 98 204 36 q 77 243 105 160 q 49 424 49 326 q 91 640 49 543 q 205 806 133 737 q 363 910 277 875 l 381 889 q 251 742 301 832 l 584 885 q 717 797 656 854 q 815 662 778 741 q 852 485 852 583 q 811 293 852 385 q 704 127 771 200 q 560 10 638 53 q 405 -34 481 -34 m 451 383 l 233 291 q 336 149 270 205 q 493 94 403 94 q 505 95 499 94 l 505 766 q 454 792 480 779 l 451 791 l 451 383 m 538 745 l 538 478 l 697 558 q 538 745 648 672 m 192 498 q 222 319 192 404 l 302 354 l 302 728 l 230 698 q 202 604 212 654 q 192 498 192 553 m 538 441 l 538 356 l 727 451 q 708 527 721 491 l 538 441 m 734 366 q 731 417 734 392 l 538 319 l 538 98 q 635 145 590 110 q 707 237 679 181 q 734 366 734 293 z "},"Ō":{"ha":873,"x_min":49,"x_max":852,"o":"m 678 1027 l 362 1028 l 362 1152 l 678 1150 l 678 1027 m 405 -34 q 268 1 332 -34 q 155 98 204 36 q 77 243 105 160 q 49 424 49 326 q 91 640 49 543 q 205 806 133 737 q 363 910 277 875 l 381 889 q 251 742 301 832 l 584 885 q 717 797 656 854 q 815 662 778 741 q 852 485 852 583 q 811 293 852 385 q 704 127 771 200 q 560 10 638 53 q 405 -34 481 -34 m 451 383 l 233 291 q 336 149 270 205 q 493 94 403 94 q 505 95 499 94 l 505 766 q 454 792 480 779 l 451 791 l 451 383 m 538 745 l 538 478 l 697 558 q 538 745 648 672 m 192 498 q 222 319 192 404 l 302 354 l 302 728 l 230 698 q 202 604 212 654 q 192 498 192 553 m 538 441 l 538 356 l 727 451 q 708 527 721 491 l 538 441 m 734 366 q 731 417 734 392 l 538 319 l 538 98 q 635 145 590 110 q 707 237 679 181 q 734 366 734 293 z "},"Ø":{"ha":837,"x_min":17,"x_max":821,"o":"m 205 -69 l 176 -53 l 214 15 q 72 178 127 69 q 17 424 17 286 q 60 640 17 543 q 174 806 102 737 q 332 910 245 875 l 350 889 q 220 742 270 832 l 553 885 q 670 813 617 858 l 713 887 l 742 870 l 694 789 q 786 657 751 734 q 821 485 821 580 q 780 293 821 385 q 673 127 740 200 q 528 10 606 53 q 374 -34 450 -34 q 243 -2 306 -34 l 205 -69 m 420 383 l 201 291 q 296 157 237 208 l 590 674 q 422 792 524 747 l 420 791 l 420 383 m 161 498 q 191 319 161 404 l 271 354 l 271 728 l 199 698 q 171 604 181 654 q 161 498 161 553 m 613 647 l 521 485 l 666 558 q 613 647 645 605 m 494 434 l 493 436 l 425 317 l 696 451 q 677 527 690 491 l 494 434 m 703 366 q 700 417 703 392 l 396 265 l 322 137 q 387 105 352 117 q 462 94 422 94 q 578 127 522 94 q 668 221 633 160 q 703 366 703 282 z "},"Õ":{"ha":873,"x_min":49,"x_max":852,"o":"m 579 993 q 512 1005 541 993 q 454 1030 483 1017 q 389 1042 425 1042 q 336 1031 358 1042 q 297 1003 314 1020 l 269 1020 q 310 1072 287 1045 q 365 1116 333 1098 q 439 1134 397 1134 q 508 1122 477 1134 q 569 1098 538 1110 q 638 1087 601 1087 q 686 1098 667 1087 q 718 1130 706 1110 l 747 1113 q 684 1031 726 1068 q 579 993 642 993 m 405 -34 q 268 1 332 -34 q 155 98 204 36 q 77 243 105 160 q 49 424 49 326 q 91 640 49 543 q 205 806 133 737 q 363 910 277 875 l 381 889 q 251 742 301 832 l 584 885 q 717 797 656 854 q 815 662 778 741 q 852 485 852 583 q 811 293 852 385 q 704 127 771 200 q 560 10 638 53 q 405 -34 481 -34 m 451 383 l 233 291 q 336 149 270 205 q 493 94 403 94 q 505 95 499 94 l 505 766 q 454 792 480 779 l 451 791 l 451 383 m 538 745 l 538 478 l 697 558 q 538 745 648 672 m 192 498 q 222 319 192 404 l 302 354 l 302 728 l 230 698 q 202 604 212 654 q 192 498 192 553 m 538 441 l 538 356 l 727 451 q 708 527 721 491 l 538 441 m 734 366 q 731 417 734 392 l 538 319 l 538 98 q 635 145 590 110 q 707 237 679 181 q 734 366 734 293 z "},"Œ":{"ha":1480,"x_min":49,"x_max":1485,"o":"m 1139 -20 q 982 14 1056 -20 q 854 109 909 49 q 767 245 799 169 q 736 406 736 322 q 780 600 736 513 q 895 749 823 688 q 1051 837 968 810 l 1063 819 q 939 704 985 780 l 1243 890 l 1243 890 l 1243 890 q 1335 833 1287 858 q 1440 791 1383 809 l 1476 822 l 1485 810 l 1347 667 q 1206 735 1274 696 l 1206 532 l 1476 532 l 1334 385 l 1206 385 l 1206 112 q 1352 170 1291 123 q 1446 278 1413 218 l 1468 278 q 1420 124 1464 191 q 1302 19 1375 57 q 1139 -20 1229 -20 m 1122 344 l 920 260 q 1017 151 955 192 q 1169 110 1080 110 q 1174 110 1171 110 l 1174 755 q 1131 782 1152 767 l 1122 777 l 1122 344 m 877 459 q 907 288 877 363 l 972 315 l 972 685 l 911 648 q 877 459 877 565 m 405 -34 q 268 1 332 -34 q 155 98 204 36 q 77 243 105 160 q 49 424 49 326 q 91 640 49 543 q 205 806 133 737 q 363 910 277 875 l 381 889 q 251 742 301 832 l 584 885 q 717 797 656 854 q 815 662 778 741 q 852 485 852 583 q 811 293 852 385 q 704 127 771 200 q 560 10 638 53 q 405 -34 481 -34 m 451 383 l 233 291 q 336 149 270 205 q 493 94 403 94 q 505 95 499 94 l 505 766 q 454 792 480 779 l 451 791 l 451 383 m 538 745 l 538 478 l 697 558 q 538 745 648 672 m 192 498 q 222 319 192 404 l 302 354 l 302 728 l 230 698 q 202 604 212 654 q 192 498 192 553 m 538 441 l 538 356 l 727 451 q 708 527 721 491 l 538 441 m 734 366 q 731 417 734 392 l 538 319 l 538 98 q 635 145 590 110 q 707 237 679 181 q 734 366 734 293 z "},"P":{"ha":838,"x_min":52,"x_max":800,"o":"m 52 16 q 113 96 72 51 q 216 174 154 141 l 216 390 l 178 390 q 115 340 115 390 q 115 338 115 339 l 88 338 q 80 380 80 358 q 120 470 80 435 q 209 506 160 506 q 216 506 213 506 l 216 697 q 205 747 216 728 q 172 765 194 765 q 134 748 148 765 q 117 709 120 730 l 89 709 q 135 811 91 766 q 245 855 178 855 q 303 844 272 855 q 356 799 334 832 q 378 699 378 766 l 378 678 l 426 713 l 426 853 l 459 853 l 459 737 l 656 881 q 800 740 740 823 l 800 198 l 497 35 q 459 63 478 50 l 459 -96 l 459 -96 l 459 -128 l 216 -128 l 216 100 q 79 16 134 76 l 52 16 m 543 760 l 459 700 l 459 481 l 652 580 l 652 662 q 543 760 603 718 m 395 218 q 426 216 410 218 l 426 677 l 378 644 l 378 218 q 395 218 387 218 m 459 444 l 459 360 l 652 458 l 652 542 l 459 444 m 652 157 l 652 420 l 459 323 l 459 212 q 626 142 552 197 l 652 157 m 378 -96 l 426 -96 l 426 81 q 378 100 403 93 l 378 -96 z "},"Þ":{"ha":809,"x_min":17,"x_max":765,"o":"m 17 39 q 78 119 37 74 q 182 197 119 164 l 182 389 l 146 389 q 100 381 120 389 q 80 340 80 373 q 80 338 80 339 l 53 338 q 45 380 45 358 q 87 473 45 439 q 182 506 130 508 l 182 685 q 138 765 182 765 q 100 748 113 765 q 82 709 86 730 l 54 709 q 75 777 58 743 q 124 834 93 811 q 199 858 155 858 q 305 800 266 858 q 344 649 344 742 l 344 528 l 383 557 l 383 853 l 417 853 l 417 581 l 622 730 q 765 589 705 672 l 765 221 l 462 58 q 417 91 440 76 l 417 -96 l 417 -96 l 417 -128 l 182 -128 l 182 123 q 44 39 100 100 l 17 39 m 508 610 l 417 545 l 417 432 l 604 527 q 508 610 560 573 m 360 241 q 383 240 372 241 l 383 521 l 344 493 l 344 241 q 360 241 352 241 m 417 395 l 417 310 l 617 412 l 617 495 l 417 395 m 617 181 l 617 374 l 417 273 l 417 236 q 591 166 514 222 l 617 181 m 344 -96 l 383 -96 l 383 109 q 344 123 363 117 l 344 -96 z "},"Q":{"ha":903,"x_min":63,"x_max":964,"o":"m 419 -34 q 282 1 346 -34 q 168 98 218 36 q 91 243 119 160 q 63 424 63 326 q 105 640 63 543 q 219 806 147 737 q 377 910 291 875 l 395 889 q 265 742 315 832 l 598 885 q 731 797 670 854 q 829 662 792 741 q 866 485 866 583 q 830 306 866 394 q 737 148 794 219 q 791 78 753 122 q 894 0 828 34 l 940 39 l 964 15 l 789 -124 q 719 -75 759 -108 q 619 38 679 -43 q 519 -14 571 5 q 419 -34 468 -34 m 458 481 q 428 363 458 409 q 351 293 397 317 q 260 263 306 270 q 362 141 299 189 q 507 94 425 94 q 519 95 513 94 l 519 766 q 468 792 494 779 l 458 787 l 458 481 m 552 745 l 552 478 l 711 558 q 552 745 662 672 m 206 498 q 243 301 206 392 q 291 370 272 322 q 309 476 309 418 l 309 725 l 244 698 q 216 604 226 654 q 206 498 206 553 m 552 441 l 552 356 l 741 451 q 722 527 735 491 l 552 441 m 748 366 q 745 417 748 392 l 552 319 l 552 98 q 649 145 604 110 q 720 237 693 181 q 748 366 748 293 z "},"R":{"ha":949,"x_min":51,"x_max":940,"o":"m 51 -29 q 125 73 79 27 q 231 148 171 120 l 231 368 l 192 368 q 139 350 157 368 q 127 301 122 331 l 105 301 q 90 370 90 334 q 114 453 90 426 q 170 489 138 480 q 231 498 203 498 l 231 709 q 222 759 231 737 q 184 780 212 780 q 146 763 161 780 q 132 722 132 745 l 104 722 q 150 823 106 779 q 260 868 193 868 q 318 856 287 868 q 372 812 350 845 q 394 712 394 779 l 394 694 l 440 734 l 440 858 l 473 858 l 473 760 l 619 882 l 802 631 l 634 486 q 716 427 689 463 q 756 348 743 391 q 779 261 770 306 q 806 175 788 216 q 860 103 823 134 l 940 164 l 940 130 l 763 -12 q 692 50 715 12 q 655 133 668 89 l 471 -13 q 430 14 459 -3 q 358 47 400 32 q 265 61 316 61 q 157 36 203 61 q 87 -29 112 10 l 51 -29 m 508 756 l 473 725 l 473 389 l 655 546 l 508 756 m 394 182 q 440 177 417 181 l 440 696 l 394 655 l 394 182 m 591 108 l 649 154 q 626 249 637 203 q 589 332 615 296 q 510 380 564 367 l 473 348 l 473 169 q 591 108 539 150 z "},"Ŕ":{"ha":949,"x_min":51,"x_max":940,"o":"m 390 1009 l 381 1017 l 479 1221 l 539 1175 l 390 1009 m 51 -29 q 125 73 79 27 q 231 148 171 120 l 231 368 l 192 368 q 139 350 157 368 q 127 301 122 331 l 105 301 q 90 370 90 334 q 114 453 90 426 q 170 489 138 480 q 231 498 203 498 l 231 709 q 222 759 231 737 q 184 780 212 780 q 146 763 161 780 q 132 722 132 745 l 104 722 q 150 823 106 779 q 260 868 193 868 q 318 856 287 868 q 372 812 350 845 q 394 712 394 779 l 394 694 l 440 734 l 440 858 l 473 858 l 473 760 l 619 882 l 802 631 l 634 486 q 716 427 689 463 q 756 348 743 391 q 779 261 770 306 q 806 175 788 216 q 860 103 823 134 l 940 164 l 940 130 l 763 -12 q 692 50 715 12 q 655 133 668 89 l 471 -13 q 430 14 459 -3 q 358 47 400 32 q 265 61 316 61 q 157 36 203 61 q 87 -29 112 10 l 51 -29 m 508 756 l 473 725 l 473 389 l 655 546 l 508 756 m 394 182 q 440 177 417 181 l 440 696 l 394 655 l 394 182 m 591 108 l 649 154 q 626 249 637 203 q 589 332 615 296 q 510 380 564 367 l 473 348 l 473 169 q 591 108 539 150 z "},"Ř":{"ha":949,"x_min":51,"x_max":940,"o":"m 447 1014 l 291 1157 l 375 1249 l 512 1123 l 635 1249 l 657 1228 l 447 1014 m 51 -29 q 125 73 79 27 q 231 148 171 120 l 231 368 l 192 368 q 139 350 157 368 q 127 301 122 331 l 105 301 q 90 370 90 334 q 114 453 90 426 q 170 489 138 480 q 231 498 203 498 l 231 709 q 222 759 231 737 q 184 780 212 780 q 146 763 161 780 q 132 722 132 745 l 104 722 q 150 823 106 779 q 260 868 193 868 q 318 856 287 868 q 372 812 350 845 q 394 712 394 779 l 394 694 l 440 734 l 440 858 l 473 858 l 473 760 l 619 882 l 802 631 l 634 486 q 716 427 689 463 q 756 348 743 391 q 779 261 770 306 q 806 175 788 216 q 860 103 823 134 l 940 164 l 940 130 l 763 -12 q 692 50 715 12 q 655 133 668 89 l 471 -13 q 430 14 459 -3 q 358 47 400 32 q 265 61 316 61 q 157 36 203 61 q 87 -29 112 10 l 51 -29 m 508 756 l 473 725 l 473 389 l 655 546 l 508 756 m 394 182 q 440 177 417 181 l 440 696 l 394 655 l 394 182 m 591 108 l 649 154 q 626 249 637 203 q 589 332 615 296 q 510 380 564 367 l 473 348 l 473 169 q 591 108 539 150 z "},"Ŗ":{"ha":949,"x_min":51,"x_max":940,"o":"m 361 -237 l 354 -229 q 405 -196 376 -220 q 434 -131 434 -172 q 400 -60 434 -87 q 326 -24 366 -34 l 451 35 q 509 -5 481 22 q 537 -71 537 -31 q 525 -114 537 -89 q 475 -170 513 -139 q 361 -237 438 -201 m 51 -29 q 125 73 79 27 q 231 148 171 120 l 231 368 l 192 368 q 139 350 157 368 q 127 301 122 331 l 105 301 q 90 370 90 334 q 114 453 90 426 q 170 489 138 480 q 231 498 203 498 l 231 709 q 222 759 231 737 q 184 780 212 780 q 146 763 161 780 q 132 722 132 745 l 104 722 q 150 823 106 779 q 260 868 193 868 q 318 856 287 868 q 372 812 350 845 q 394 712 394 779 l 394 694 l 440 734 l 440 858 l 473 858 l 473 760 l 619 882 l 802 631 l 634 486 q 716 427 689 463 q 756 348 743 391 q 779 261 770 306 q 806 175 788 216 q 860 103 823 134 l 940 164 l 940 130 l 763 -12 q 692 50 715 12 q 655 133 668 89 l 471 -13 q 430 14 459 -3 q 358 47 400 32 q 265 61 316 61 q 157 36 203 61 q 87 -29 112 10 l 51 -29 m 508 756 l 473 725 l 473 389 l 655 546 l 508 756 m 394 182 q 440 177 417 181 l 440 696 l 394 655 l 394 182 m 591 108 l 649 154 q 626 249 637 203 q 589 332 615 296 q 510 380 564 367 l 473 348 l 473 169 q 591 108 539 150 z "},"S":{"ha":775,"x_min":52,"x_max":773,"o":"m 339 -216 q 198 -187 264 -216 q 93 -104 133 -157 q 52 21 52 -51 q 87 146 52 87 q 172 255 123 205 q 262 340 221 304 l 272 351 l 110 456 l 110 689 l 428 889 q 506 836 461 859 q 602 814 552 814 q 696 844 655 814 q 741 927 737 874 l 741 927 l 741 927 l 758 927 l 762 927 l 762 927 l 773 927 l 773 911 q 744 777 773 836 q 670 670 714 718 q 580 581 625 622 q 672 541 628 565 q 752 486 715 516 l 752 196 l 435 -5 q 345 65 398 36 q 228 94 293 94 q 161 87 196 94 q 104 58 126 80 q 88 -5 82 37 q 141 -83 98 -57 q 238 -119 183 -110 q 343 -128 293 -128 q 464 -113 402 -128 q 576 -65 527 -98 q 642 23 625 -32 l 674 14 q 606 -105 656 -53 q 486 -187 556 -157 q 339 -216 416 -216 m 262 542 l 326 498 l 326 730 q 304 744 315 737 q 284 756 294 750 l 262 741 l 262 542 m 525 674 q 436 685 478 674 q 359 714 395 697 l 359 476 l 389 454 l 531 581 q 597 642 563 610 q 662 711 632 674 q 525 674 602 674 m 310 231 q 413 217 365 231 q 501 181 461 203 l 501 454 l 459 473 l 284 317 q 218 256 255 291 q 150 182 182 222 q 223 218 183 205 q 310 231 264 231 m 601 405 l 534 438 l 534 161 q 579 128 556 146 l 601 139 l 601 405 z "},"Ś":{"ha":775,"x_min":52,"x_max":773,"o":"m 438 940 l 428 948 l 527 1152 l 587 1105 l 438 940 m 339 -216 q 198 -187 264 -216 q 93 -104 133 -157 q 52 21 52 -51 q 87 146 52 87 q 172 255 123 205 q 262 340 221 304 l 272 351 l 110 456 l 110 689 l 428 889 q 506 836 461 859 q 602 814 552 814 q 696 844 655 814 q 741 927 737 874 l 741 927 l 741 927 l 758 927 l 762 927 l 762 927 l 773 927 l 773 911 q 744 777 773 836 q 670 670 714 718 q 580 581 625 622 q 672 541 628 565 q 752 486 715 516 l 752 196 l 435 -5 q 345 65 398 36 q 228 94 293 94 q 161 87 196 94 q 104 58 126 80 q 88 -5 82 37 q 141 -83 98 -57 q 238 -119 183 -110 q 343 -128 293 -128 q 464 -113 402 -128 q 576 -65 527 -98 q 642 23 625 -32 l 674 14 q 606 -105 656 -53 q 486 -187 556 -157 q 339 -216 416 -216 m 262 542 l 326 498 l 326 730 q 304 744 315 737 q 284 756 294 750 l 262 741 l 262 542 m 525 674 q 436 685 478 674 q 359 714 395 697 l 359 476 l 389 454 l 531 581 q 597 642 563 610 q 662 711 632 674 q 525 674 602 674 m 310 231 q 413 217 365 231 q 501 181 461 203 l 501 454 l 459 473 l 284 317 q 218 256 255 291 q 150 182 182 222 q 223 218 183 205 q 310 231 264 231 m 601 405 l 534 438 l 534 161 q 579 128 556 146 l 601 139 l 601 405 z "},"Š":{"ha":775,"x_min":52,"x_max":773,"o":"m 494 944 l 338 1088 l 422 1179 l 559 1053 l 683 1179 l 705 1159 l 494 944 m 339 -216 q 198 -187 264 -216 q 93 -104 133 -157 q 52 21 52 -51 q 87 146 52 87 q 172 255 123 205 q 262 340 221 304 l 272 351 l 110 456 l 110 689 l 428 889 q 506 836 461 859 q 602 814 552 814 q 696 844 655 814 q 741 927 737 874 l 741 927 l 741 927 l 758 927 l 762 927 l 762 927 l 773 927 l 773 911 q 744 777 773 836 q 670 670 714 718 q 580 581 625 622 q 672 541 628 565 q 752 486 715 516 l 752 196 l 435 -5 q 345 65 398 36 q 228 94 293 94 q 161 87 196 94 q 104 58 126 80 q 88 -5 82 37 q 141 -83 98 -57 q 238 -119 183 -110 q 343 -128 293 -128 q 464 -113 402 -128 q 576 -65 527 -98 q 642 23 625 -32 l 674 14 q 606 -105 656 -53 q 486 -187 556 -157 q 339 -216 416 -216 m 262 542 l 326 498 l 326 730 q 304 744 315 737 q 284 756 294 750 l 262 741 l 262 542 m 525 674 q 436 685 478 674 q 359 714 395 697 l 359 476 l 389 454 l 531 581 q 597 642 563 610 q 662 711 632 674 q 525 674 602 674 m 310 231 q 413 217 365 231 q 501 181 461 203 l 501 454 l 459 473 l 284 317 q 218 256 255 291 q 150 182 182 222 q 223 218 183 205 q 310 231 264 231 m 601 405 l 534 438 l 534 161 q 579 128 556 146 l 601 139 l 601 405 z "},"Ş":{"ha":775,"x_min":52,"x_max":773,"o":"m 311 -205 l 304 -197 q 355 -164 326 -187 q 384 -98 384 -140 q 350 -28 384 -54 q 277 8 316 -1 l 402 67 q 459 28 432 54 q 487 -38 487 1 q 475 -82 487 -57 q 425 -138 463 -106 q 311 -205 388 -169 m 339 -216 q 198 -187 264 -216 q 93 -104 133 -157 q 52 21 52 -51 q 87 146 52 87 q 172 255 123 205 q 262 340 221 304 l 272 351 l 110 456 l 110 689 l 428 889 q 506 836 461 859 q 602 814 552 814 q 696 844 655 814 q 741 927 737 874 l 741 927 l 741 927 l 758 927 l 762 927 l 762 927 l 773 927 l 773 911 q 744 777 773 836 q 670 670 714 718 q 580 581 625 622 q 672 541 628 565 q 752 486 715 516 l 752 196 l 435 -5 q 345 65 398 36 q 228 94 293 94 q 161 87 196 94 q 104 58 126 80 q 88 -5 82 37 q 141 -83 98 -57 q 238 -119 183 -110 q 343 -128 293 -128 q 464 -113 402 -128 q 576 -65 527 -98 q 642 23 625 -32 l 674 14 q 606 -105 656 -53 q 486 -187 556 -157 q 339 -216 416 -216 m 262 542 l 326 498 l 326 730 q 304 744 315 737 q 284 756 294 750 l 262 741 l 262 542 m 525 674 q 436 685 478 674 q 359 714 395 697 l 359 476 l 389 454 l 531 581 q 597 642 563 610 q 662 711 632 674 q 525 674 602 674 m 310 231 q 413 217 365 231 q 501 181 461 203 l 501 454 l 459 473 l 284 317 q 218 256 255 291 q 150 182 182 222 q 223 218 183 205 q 310 231 264 231 m 601 405 l 534 438 l 534 161 q 579 128 556 146 l 601 139 l 601 405 z "},"Ŝ":{"ha":775,"x_min":52,"x_max":773,"o":"m 316 919 l 295 940 l 501 1145 l 645 1010 l 559 919 l 434 1036 l 316 919 m 339 -216 q 198 -187 264 -216 q 93 -104 133 -157 q 52 21 52 -51 q 87 146 52 87 q 172 255 123 205 q 262 340 221 304 l 272 351 l 110 456 l 110 689 l 428 889 q 506 836 461 859 q 602 814 552 814 q 696 844 655 814 q 741 927 737 874 l 741 927 l 741 927 l 758 927 l 762 927 l 762 927 l 773 927 l 773 911 q 744 777 773 836 q 670 670 714 718 q 580 581 625 622 q 672 541 628 565 q 752 486 715 516 l 752 196 l 435 -5 q 345 65 398 36 q 228 94 293 94 q 161 87 196 94 q 104 58 126 80 q 88 -5 82 37 q 141 -83 98 -57 q 238 -119 183 -110 q 343 -128 293 -128 q 464 -113 402 -128 q 576 -65 527 -98 q 642 23 625 -32 l 674 14 q 606 -105 656 -53 q 486 -187 556 -157 q 339 -216 416 -216 m 262 542 l 326 498 l 326 730 q 304 744 315 737 q 284 756 294 750 l 262 741 l 262 542 m 525 674 q 436 685 478 674 q 359 714 395 697 l 359 476 l 389 454 l 531 581 q 597 642 563 610 q 662 711 632 674 q 525 674 602 674 m 310 231 q 413 217 365 231 q 501 181 461 203 l 501 454 l 459 473 l 284 317 q 218 256 255 291 q 150 182 182 222 q 223 218 183 205 q 310 231 264 231 m 601 405 l 534 438 l 534 161 q 579 128 556 146 l 601 139 l 601 405 z "},"T":{"ha":832,"x_min":108,"x_max":829,"o":"m 478 5 q 340 31 406 5 q 222 105 274 57 q 138 219 169 153 q 108 366 108 285 q 140 505 108 436 q 233 624 172 574 q 380 688 294 674 l 391 671 q 339 627 376 661 q 274 535 302 593 l 529 642 l 529 292 l 325 206 q 407 151 360 171 q 509 131 454 131 q 578 139 545 131 q 638 162 610 147 l 638 359 l 561 434 l 638 510 l 638 654 q 542 671 596 659 q 435 698 488 684 q 337 722 381 712 q 273 731 294 731 q 220 716 243 731 q 197 671 197 701 q 205 644 197 655 q 225 626 213 632 l 214 610 q 159 655 182 624 q 135 733 135 686 q 185 841 135 794 q 318 888 234 888 q 400 875 355 888 q 494 846 446 862 q 589 817 542 830 q 675 804 635 804 q 708 814 693 804 q 723 843 723 823 q 709 872 723 862 q 674 886 694 882 q 635 894 653 890 l 635 916 q 773 882 716 921 q 829 779 829 843 q 781 684 829 716 q 671 652 734 652 l 670 652 l 670 512 l 748 434 l 670 358 l 670 181 q 744 249 713 209 q 791 332 774 289 l 813 332 q 814 322 814 328 q 769 161 814 233 q 648 47 723 89 q 478 5 572 5 m 245 403 q 303 230 245 304 l 380 263 l 380 545 l 259 494 q 249 451 252 473 q 245 403 245 428 z "},"Ť":{"ha":832,"x_min":108,"x_max":829,"o":"m 480 958 l 324 1102 l 409 1193 l 545 1067 l 669 1193 l 691 1172 l 480 958 m 478 5 q 340 31 406 5 q 222 105 274 57 q 138 219 169 153 q 108 366 108 285 q 140 505 108 436 q 233 624 172 574 q 380 688 294 674 l 391 671 q 339 627 376 661 q 274 535 302 593 l 529 642 l 529 292 l 325 206 q 407 151 360 171 q 509 131 454 131 q 578 139 545 131 q 638 162 610 147 l 638 359 l 561 434 l 638 510 l 638 654 q 542 671 596 659 q 435 698 488 684 q 337 722 381 712 q 273 731 294 731 q 220 716 243 731 q 197 671 197 701 q 205 644 197 655 q 225 626 213 632 l 214 610 q 159 655 182 624 q 135 733 135 686 q 185 841 135 794 q 318 888 234 888 q 400 875 355 888 q 494 846 446 862 q 589 817 542 830 q 675 804 635 804 q 708 814 693 804 q 723 843 723 823 q 709 872 723 862 q 674 886 694 882 q 635 894 653 890 l 635 916 q 773 882 716 921 q 829 779 829 843 q 781 684 829 716 q 671 652 734 652 l 670 652 l 670 512 l 748 434 l 670 358 l 670 181 q 744 249 713 209 q 791 332 774 289 l 813 332 q 814 322 814 328 q 769 161 814 233 q 648 47 723 89 q 478 5 572 5 m 245 403 q 303 230 245 304 l 380 263 l 380 545 l 259 494 q 249 451 252 473 q 245 403 245 428 z "},"Ţ":{"ha":832,"x_min":108,"x_max":829,"o":"m 387 -259 l 380 -251 q 431 -218 402 -242 q 459 -153 459 -194 q 425 -82 459 -109 q 352 -46 391 -56 l 477 13 q 535 -27 507 0 q 563 -93 563 -53 q 550 -136 563 -111 q 501 -192 538 -161 q 387 -259 463 -223 m 478 5 q 340 31 406 5 q 222 105 274 57 q 138 219 169 153 q 108 366 108 285 q 140 505 108 436 q 233 624 172 574 q 380 688 294 674 l 391 671 q 339 627 376 661 q 274 535 302 593 l 529 642 l 529 292 l 325 206 q 407 151 360 171 q 509 131 454 131 q 578 139 545 131 q 638 162 610 147 l 638 359 l 561 434 l 638 510 l 638 654 q 542 671 596 659 q 435 698 488 684 q 337 722 381 712 q 273 731 294 731 q 220 716 243 731 q 197 671 197 701 q 205 644 197 655 q 225 626 213 632 l 214 610 q 159 655 182 624 q 135 733 135 686 q 185 841 135 794 q 318 888 234 888 q 400 875 355 888 q 494 846 446 862 q 589 817 542 830 q 675 804 635 804 q 708 814 693 804 q 723 843 723 823 q 709 872 723 862 q 674 886 694 882 q 635 894 653 890 l 635 916 q 773 882 716 921 q 829 779 829 843 q 781 684 829 716 q 671 652 734 652 l 670 652 l 670 512 l 748 434 l 670 358 l 670 181 q 744 249 713 209 q 791 332 774 289 l 813 332 q 814 322 814 328 q 769 161 814 233 q 648 47 723 89 q 478 5 572 5 m 245 403 q 303 230 245 304 l 380 263 l 380 545 l 259 494 q 249 451 252 473 q 245 403 245 428 z "},"U":{"ha":968,"x_min":52,"x_max":998,"o":"m 535 -13 q 380 19 453 -13 q 251 105 307 51 q 164 230 196 160 q 133 381 133 301 q 164 539 133 468 q 245 662 194 610 q 358 745 296 714 q 307 735 334 735 q 257 746 286 735 q 196 764 228 757 q 134 764 164 772 q 80 721 103 757 l 52 709 q 72 744 57 719 q 112 799 88 770 q 168 850 137 829 q 235 872 199 872 q 285 861 264 872 q 328 841 307 851 q 378 831 350 831 q 433 847 411 831 q 476 877 456 862 l 503 851 q 477 831 499 847 q 424 784 455 815 q 362 706 392 752 q 312 598 332 660 q 292 457 292 536 q 324 299 292 375 l 389 326 l 389 609 q 396 679 389 650 q 423 734 403 708 q 484 792 443 760 q 590 873 524 824 l 613 874 l 613 779 l 772 881 l 873 797 l 919 836 l 940 810 l 889 769 l 889 161 l 944 112 l 980 142 l 998 126 l 844 0 l 714 109 l 535 -13 m 538 355 l 338 271 q 434 159 373 205 q 581 109 495 113 l 581 831 q 548 786 559 814 q 538 709 537 759 l 538 355 m 663 777 l 613 745 l 613 494 l 727 551 l 727 706 l 663 777 m 613 456 l 613 373 l 727 429 l 727 514 l 613 456 m 632 110 l 727 174 l 727 392 l 613 336 l 613 109 q 632 110 623 109 z "},"Ú":{"ha":968,"x_min":52,"x_max":998,"o":"m 502 963 l 493 971 l 591 1175 l 652 1128 l 502 963 m 535 -13 q 380 19 453 -13 q 251 105 307 51 q 164 230 196 160 q 133 381 133 301 q 164 539 133 468 q 245 662 194 610 q 358 745 296 714 q 307 735 334 735 q 257 746 286 735 q 196 764 228 757 q 134 764 164 772 q 80 721 103 757 l 52 709 q 72 744 57 719 q 112 799 88 770 q 168 850 137 829 q 235 872 199 872 q 285 861 264 872 q 328 841 307 851 q 378 831 350 831 q 433 847 411 831 q 476 877 456 862 l 503 851 q 477 831 499 847 q 424 784 455 815 q 362 706 392 752 q 312 598 332 660 q 292 457 292 536 q 324 299 292 375 l 389 326 l 389 609 q 396 679 389 650 q 423 734 403 708 q 484 792 443 760 q 590 873 524 824 l 613 874 l 613 779 l 772 881 l 873 797 l 919 836 l 940 810 l 889 769 l 889 161 l 944 112 l 980 142 l 998 126 l 844 0 l 714 109 l 535 -13 m 538 355 l 338 271 q 434 159 373 205 q 581 109 495 113 l 581 831 q 548 786 559 814 q 538 709 537 759 l 538 355 m 663 777 l 613 745 l 613 494 l 727 551 l 727 706 l 663 777 m 613 456 l 613 373 l 727 429 l 727 514 l 613 456 m 632 110 l 727 174 l 727 392 l 613 336 l 613 109 q 632 110 623 109 z "},"Ŭ":{"ha":968,"x_min":52,"x_max":998,"o":"m 549 971 q 452 997 493 971 q 385 1059 411 1023 l 464 1128 q 517 1083 484 1101 q 596 1066 551 1066 q 690 1113 667 1066 l 719 1100 q 657 1012 698 1052 q 549 971 616 971 m 535 -13 q 380 19 453 -13 q 251 105 307 51 q 164 230 196 160 q 133 381 133 301 q 164 539 133 468 q 245 662 194 610 q 358 745 296 714 q 307 735 334 735 q 257 746 286 735 q 196 764 228 757 q 134 764 164 772 q 80 721 103 757 l 52 709 q 72 744 57 719 q 112 799 88 770 q 168 850 137 829 q 235 872 199 872 q 285 861 264 872 q 328 841 307 851 q 378 831 350 831 q 433 847 411 831 q 476 877 456 862 l 503 851 q 477 831 499 847 q 424 784 455 815 q 362 706 392 752 q 312 598 332 660 q 292 457 292 536 q 324 299 292 375 l 389 326 l 389 609 q 396 679 389 650 q 423 734 403 708 q 484 792 443 760 q 590 873 524 824 l 613 874 l 613 779 l 772 881 l 873 797 l 919 836 l 940 810 l 889 769 l 889 161 l 944 112 l 980 142 l 998 126 l 844 0 l 714 109 l 535 -13 m 538 355 l 338 271 q 434 159 373 205 q 581 109 495 113 l 581 831 q 548 786 559 814 q 538 709 537 759 l 538 355 m 663 777 l 613 745 l 613 494 l 727 551 l 727 706 l 663 777 m 613 456 l 613 373 l 727 429 l 727 514 l 613 456 m 632 110 l 727 174 l 727 392 l 613 336 l 613 109 q 632 110 623 109 z "},"Û":{"ha":968,"x_min":52,"x_max":998,"o":"m 381 942 l 360 963 l 566 1168 l 709 1034 l 624 942 l 499 1059 l 381 942 m 535 -13 q 380 19 453 -13 q 251 105 307 51 q 164 230 196 160 q 133 381 133 301 q 164 539 133 468 q 245 662 194 610 q 358 745 296 714 q 307 735 334 735 q 257 746 286 735 q 196 764 228 757 q 134 764 164 772 q 80 721 103 757 l 52 709 q 72 744 57 719 q 112 799 88 770 q 168 850 137 829 q 235 872 199 872 q 285 861 264 872 q 328 841 307 851 q 378 831 350 831 q 433 847 411 831 q 476 877 456 862 l 503 851 q 477 831 499 847 q 424 784 455 815 q 362 706 392 752 q 312 598 332 660 q 292 457 292 536 q 324 299 292 375 l 389 326 l 389 609 q 396 679 389 650 q 423 734 403 708 q 484 792 443 760 q 590 873 524 824 l 613 874 l 613 779 l 772 881 l 873 797 l 919 836 l 940 810 l 889 769 l 889 161 l 944 112 l 980 142 l 998 126 l 844 0 l 714 109 l 535 -13 m 538 355 l 338 271 q 434 159 373 205 q 581 109 495 113 l 581 831 q 548 786 559 814 q 538 709 537 759 l 538 355 m 663 777 l 613 745 l 613 494 l 727 551 l 727 706 l 663 777 m 613 456 l 613 373 l 727 429 l 727 514 l 613 456 m 632 110 l 727 174 l 727 392 l 613 336 l 613 109 q 632 110 623 109 z "},"Ü":{"ha":968,"x_min":52,"x_max":998,"o":"m 688 988 l 582 1094 l 686 1198 l 792 1093 l 688 988 m 421 988 l 316 1094 l 420 1198 l 525 1093 l 421 988 m 535 -13 q 380 19 453 -13 q 251 105 307 51 q 164 230 196 160 q 133 381 133 301 q 164 539 133 468 q 245 662 194 610 q 358 745 296 714 q 307 735 334 735 q 257 746 286 735 q 196 764 228 757 q 134 764 164 772 q 80 721 103 757 l 52 709 q 72 744 57 719 q 112 799 88 770 q 168 850 137 829 q 235 872 199 872 q 285 861 264 872 q 328 841 307 851 q 378 831 350 831 q 433 847 411 831 q 476 877 456 862 l 503 851 q 477 831 499 847 q 424 784 455 815 q 362 706 392 752 q 312 598 332 660 q 292 457 292 536 q 324 299 292 375 l 389 326 l 389 609 q 396 679 389 650 q 423 734 403 708 q 484 792 443 760 q 590 873 524 824 l 613 874 l 613 779 l 772 881 l 873 797 l 919 836 l 940 810 l 889 769 l 889 161 l 944 112 l 980 142 l 998 126 l 844 0 l 714 109 l 535 -13 m 538 355 l 338 271 q 434 159 373 205 q 581 109 495 113 l 581 831 q 548 786 559 814 q 538 709 537 759 l 538 355 m 663 777 l 613 745 l 613 494 l 727 551 l 727 706 l 663 777 m 613 456 l 613 373 l 727 429 l 727 514 l 613 456 m 632 110 l 727 174 l 727 392 l 613 336 l 613 109 q 632 110 623 109 z "},"Ù":{"ha":968,"x_min":52,"x_max":998,"o":"m 641 963 l 493 1128 l 552 1175 l 652 971 l 641 963 m 535 -13 q 380 19 453 -13 q 251 105 307 51 q 164 230 196 160 q 133 381 133 301 q 164 539 133 468 q 245 662 194 610 q 358 745 296 714 q 307 735 334 735 q 257 746 286 735 q 196 764 228 757 q 134 764 164 772 q 80 721 103 757 l 52 709 q 72 744 57 719 q 112 799 88 770 q 168 850 137 829 q 235 872 199 872 q 285 861 264 872 q 328 841 307 851 q 378 831 350 831 q 433 847 411 831 q 476 877 456 862 l 503 851 q 477 831 499 847 q 424 784 455 815 q 362 706 392 752 q 312 598 332 660 q 292 457 292 536 q 324 299 292 375 l 389 326 l 389 609 q 396 679 389 650 q 423 734 403 708 q 484 792 443 760 q 590 873 524 824 l 613 874 l 613 779 l 772 881 l 873 797 l 919 836 l 940 810 l 889 769 l 889 161 l 944 112 l 980 142 l 998 126 l 844 0 l 714 109 l 535 -13 m 538 355 l 338 271 q 434 159 373 205 q 581 109 495 113 l 581 831 q 548 786 559 814 q 538 709 537 759 l 538 355 m 663 777 l 613 745 l 613 494 l 727 551 l 727 706 l 663 777 m 613 456 l 613 373 l 727 429 l 727 514 l 613 456 m 632 110 l 727 174 l 727 392 l 613 336 l 613 109 q 632 110 623 109 z "},"Ű":{"ha":968,"x_min":52,"x_max":998,"o":"m 502 963 l 493 971 l 591 1175 l 652 1128 l 502 963 m 625 963 l 616 971 l 714 1175 l 774 1128 l 625 963 m 535 -13 q 380 19 453 -13 q 251 105 307 51 q 164 230 196 160 q 133 381 133 301 q 164 539 133 468 q 245 662 194 610 q 358 745 296 714 q 307 735 334 735 q 257 746 286 735 q 196 764 228 757 q 134 764 164 772 q 80 721 103 757 l 52 709 q 72 744 57 719 q 112 799 88 770 q 168 850 137 829 q 235 872 199 872 q 285 861 264 872 q 328 841 307 851 q 378 831 350 831 q 433 847 411 831 q 476 877 456 862 l 503 851 q 477 831 499 847 q 424 784 455 815 q 362 706 392 752 q 312 598 332 660 q 292 457 292 536 q 324 299 292 375 l 389 326 l 389 609 q 396 679 389 650 q 423 734 403 708 q 484 792 443 760 q 590 873 524 824 l 613 874 l 613 779 l 772 881 l 873 797 l 919 836 l 940 810 l 889 769 l 889 161 l 944 112 l 980 142 l 998 126 l 844 0 l 714 109 l 535 -13 m 538 355 l 338 271 q 434 159 373 205 q 581 109 495 113 l 581 831 q 548 786 559 814 q 538 709 537 759 l 538 355 m 663 777 l 613 745 l 613 494 l 727 551 l 727 706 l 663 777 m 613 456 l 613 373 l 727 429 l 727 514 l 613 456 m 632 110 l 727 174 l 727 392 l 613 336 l 613 109 q 632 110 623 109 z "},"Ū":{"ha":968,"x_min":52,"x_max":998,"o":"m 728 994 l 412 995 l 412 1119 l 728 1118 l 728 994 m 535 -13 q 380 19 453 -13 q 251 105 307 51 q 164 230 196 160 q 133 381 133 301 q 164 539 133 468 q 245 662 194 610 q 358 745 296 714 q 307 735 334 735 q 257 746 286 735 q 196 764 228 757 q 134 764 164 772 q 80 721 103 757 l 52 709 q 72 744 57 719 q 112 799 88 770 q 168 850 137 829 q 235 872 199 872 q 285 861 264 872 q 328 841 307 851 q 378 831 350 831 q 433 847 411 831 q 476 877 456 862 l 503 851 q 477 831 499 847 q 424 784 455 815 q 362 706 392 752 q 312 598 332 660 q 292 457 292 536 q 324 299 292 375 l 389 326 l 389 609 q 396 679 389 650 q 423 734 403 708 q 484 792 443 760 q 590 873 524 824 l 613 874 l 613 779 l 772 881 l 873 797 l 919 836 l 940 810 l 889 769 l 889 161 l 944 112 l 980 142 l 998 126 l 844 0 l 714 109 l 535 -13 m 538 355 l 338 271 q 434 159 373 205 q 581 109 495 113 l 581 831 q 548 786 559 814 q 538 709 537 759 l 538 355 m 663 777 l 613 745 l 613 494 l 727 551 l 727 706 l 663 777 m 613 456 l 613 373 l 727 429 l 727 514 l 613 456 m 632 110 l 727 174 l 727 392 l 613 336 l 613 109 q 632 110 623 109 z "},"Ų":{"ha":968,"x_min":52,"x_max":998,"o":"m 521 -293 q 477 -262 506 -282 q 418 -211 448 -241 q 366 -143 388 -181 q 345 -62 345 -105 q 371 26 345 -12 q 431 84 397 64 l 556 2 q 480 -50 513 -12 q 448 -146 448 -89 q 471 -227 448 -193 q 528 -280 494 -262 l 521 -293 m 535 -13 q 380 19 453 -13 q 251 105 307 51 q 164 230 196 160 q 133 381 133 301 q 164 539 133 468 q 245 662 194 610 q 358 745 296 714 q 307 735 334 735 q 257 746 286 735 q 196 764 228 757 q 134 764 164 772 q 80 721 103 757 l 52 709 q 72 744 57 719 q 112 799 88 770 q 168 850 137 829 q 235 872 199 872 q 285 861 264 872 q 328 841 307 851 q 378 831 350 831 q 433 847 411 831 q 476 877 456 862 l 503 851 q 477 831 499 847 q 424 784 455 815 q 362 706 392 752 q 312 598 332 660 q 292 457 292 536 q 324 299 292 375 l 389 326 l 389 609 q 396 679 389 650 q 423 734 403 708 q 484 792 443 760 q 590 873 524 824 l 613 874 l 613 779 l 772 881 l 873 797 l 919 836 l 940 810 l 889 769 l 889 161 l 944 112 l 980 142 l 998 126 l 844 0 l 714 109 l 535 -13 m 538 355 l 338 271 q 434 159 373 205 q 581 109 495 113 l 581 831 q 548 786 559 814 q 538 709 537 759 l 538 355 m 663 777 l 613 745 l 613 494 l 727 551 l 727 706 l 663 777 m 613 456 l 613 373 l 727 429 l 727 514 l 613 456 m 632 110 l 727 174 l 727 392 l 613 336 l 613 109 q 632 110 623 109 z "},"Ů":{"ha":968,"x_min":52,"x_max":998,"o":"m 530 875 q 453 907 485 875 q 421 984 421 939 q 453 1061 421 1029 q 530 1093 485 1093 q 607 1061 575 1093 q 639 984 639 1029 q 607 907 639 939 q 530 875 575 875 m 530 907 q 584 930 561 907 q 606 984 606 953 q 584 1038 606 1015 q 530 1060 561 1060 q 476 1038 499 1060 q 454 984 454 1015 q 476 930 454 953 q 530 907 499 907 m 535 -13 q 380 19 453 -13 q 251 105 307 51 q 164 230 196 160 q 133 381 133 301 q 164 539 133 468 q 245 662 194 610 q 358 745 296 714 q 307 735 334 735 q 257 746 286 735 q 196 764 228 757 q 134 764 164 772 q 80 721 103 757 l 52 709 q 72 744 57 719 q 112 799 88 770 q 168 850 137 829 q 235 872 199 872 q 285 861 264 872 q 328 841 307 851 q 378 831 350 831 q 433 847 411 831 q 476 877 456 862 l 503 851 q 477 831 499 847 q 424 784 455 815 q 362 706 392 752 q 312 598 332 660 q 292 457 292 536 q 324 299 292 375 l 389 326 l 389 609 q 396 679 389 650 q 423 734 403 708 q 484 792 443 760 q 590 873 524 824 l 613 874 l 613 779 l 772 881 l 873 797 l 919 836 l 940 810 l 889 769 l 889 161 l 944 112 l 980 142 l 998 126 l 844 0 l 714 109 l 535 -13 m 538 355 l 338 271 q 434 159 373 205 q 581 109 495 113 l 581 831 q 548 786 559 814 q 538 709 537 759 l 538 355 m 663 777 l 613 745 l 613 494 l 727 551 l 727 706 l 663 777 m 613 456 l 613 373 l 727 429 l 727 514 l 613 456 m 632 110 l 727 174 l 727 392 l 613 336 l 613 109 q 632 110 623 109 z "},"Ũ":{"ha":968,"x_min":52,"x_max":998,"o":"m 628 961 q 561 973 590 961 q 503 997 532 985 q 439 1009 475 1009 q 385 998 407 1009 q 347 971 363 987 l 318 987 q 360 1039 337 1013 q 415 1084 383 1066 q 488 1102 447 1102 q 557 1090 527 1102 q 619 1066 588 1078 q 688 1054 650 1054 q 736 1066 716 1054 q 767 1097 756 1078 l 796 1081 q 734 998 775 1036 q 628 961 692 961 m 535 -13 q 380 19 453 -13 q 251 105 307 51 q 164 230 196 160 q 133 381 133 301 q 164 539 133 468 q 245 662 194 610 q 358 745 296 714 q 307 735 334 735 q 257 746 286 735 q 196 764 228 757 q 134 764 164 772 q 80 721 103 757 l 52 709 q 72 744 57 719 q 112 799 88 770 q 168 850 137 829 q 235 872 199 872 q 285 861 264 872 q 328 841 307 851 q 378 831 350 831 q 433 847 411 831 q 476 877 456 862 l 503 851 q 477 831 499 847 q 424 784 455 815 q 362 706 392 752 q 312 598 332 660 q 292 457 292 536 q 324 299 292 375 l 389 326 l 389 609 q 396 679 389 650 q 423 734 403 708 q 484 792 443 760 q 590 873 524 824 l 613 874 l 613 779 l 772 881 l 873 797 l 919 836 l 940 810 l 889 769 l 889 161 l 944 112 l 980 142 l 998 126 l 844 0 l 714 109 l 535 -13 m 538 355 l 338 271 q 434 159 373 205 q 581 109 495 113 l 581 831 q 548 786 559 814 q 538 709 537 759 l 538 355 m 663 777 l 613 745 l 613 494 l 727 551 l 727 706 l 663 777 m 613 456 l 613 373 l 727 429 l 727 514 l 613 456 m 632 110 l 727 174 l 727 392 l 613 336 l 613 109 q 632 110 623 109 z "},"V":{"ha":858,"x_min":67,"x_max":848,"o":"m 98 366 q 93 406 93 385 q 128 509 93 464 q 220 553 164 553 q 235 552 227 553 l 235 718 q 233 743 235 727 q 221 773 230 759 q 191 786 212 786 q 144 730 144 786 l 116 730 q 158 832 118 787 q 265 876 198 876 q 363 834 328 876 q 398 720 398 792 l 398 664 l 444 704 l 444 866 l 477 866 l 477 733 l 666 892 l 778 786 l 828 826 l 848 801 l 779 745 l 779 745 l 779 267 l 824 303 l 846 267 l 475 -15 q 379 52 434 28 q 265 75 324 75 q 168 59 211 75 q 89 15 125 43 l 67 15 q 129 106 87 59 q 235 178 171 153 l 235 426 q 212 426 226 426 q 192 426 199 426 q 142 413 160 426 q 125 369 125 400 q 125 366 125 367 l 98 366 m 572 766 l 477 686 l 477 508 l 635 588 l 635 704 l 572 766 m 398 199 q 444 189 421 196 l 444 659 l 398 620 l 398 199 m 477 471 l 477 387 l 635 466 l 635 551 l 477 471 m 579 111 l 635 155 l 635 429 l 477 350 l 477 177 q 579 111 535 154 z "},"W":{"ha":1159,"x_min":57,"x_max":1109,"o":"m 90 348 q 73 417 73 381 q 93 486 73 458 q 141 527 112 513 q 182 540 161 536 q 225 546 204 544 l 225 598 l 226 696 q 224 716 226 698 q 210 753 222 735 q 168 771 198 771 q 124 754 142 771 q 103 716 106 737 l 74 716 q 113 817 68 775 q 225 858 157 858 q 319 831 280 858 q 374 763 358 804 q 385 715 383 738 q 387 662 387 691 q 386 636 387 649 q 385 610 385 623 l 387 590 l 387 199 q 439 186 413 194 l 439 846 l 472 846 l 472 744 l 630 862 l 743 755 l 743 208 l 803 168 l 803 846 l 837 846 l 837 743 l 995 861 l 1109 755 l 1109 218 l 796 -16 l 597 119 l 442 -8 q 355 53 405 31 q 248 75 304 75 q 79 15 153 75 l 57 15 q 116 103 74 54 q 225 179 159 152 l 225 416 l 179 416 q 127 398 147 416 q 112 348 106 381 l 90 348 m 519 747 l 472 712 l 472 513 l 594 574 l 594 685 l 519 747 m 884 747 l 837 711 l 837 513 l 959 574 l 959 684 l 884 747 m 837 476 l 837 391 l 959 453 l 959 537 l 837 476 m 472 476 l 472 391 l 594 453 l 594 537 l 472 476 m 837 154 l 824 154 l 891 109 l 959 157 l 959 416 l 837 354 l 837 154 m 519 147 l 594 211 l 594 416 l 472 354 l 472 174 q 519 147 497 162 z "},"Ŵ":{"ha":1159,"x_min":57,"x_max":1109,"o":"m 510 961 l 490 981 l 696 1186 l 839 1052 l 753 961 l 628 1078 l 510 961 m 90 348 q 73 417 73 381 q 93 486 73 458 q 141 527 112 513 q 182 540 161 536 q 225 546 204 544 l 225 598 l 226 696 q 224 716 226 698 q 210 753 222 735 q 168 771 198 771 q 124 754 142 771 q 103 716 106 737 l 74 716 q 113 817 68 775 q 225 858 157 858 q 319 831 280 858 q 374 763 358 804 q 385 715 383 738 q 387 662 387 691 q 386 636 387 649 q 385 610 385 623 l 387 590 l 387 199 q 439 186 413 194 l 439 846 l 472 846 l 472 744 l 630 862 l 743 755 l 743 208 l 803 168 l 803 846 l 837 846 l 837 743 l 995 861 l 1109 755 l 1109 218 l 796 -16 l 597 119 l 442 -8 q 355 53 405 31 q 248 75 304 75 q 79 15 153 75 l 57 15 q 116 103 74 54 q 225 179 159 152 l 225 416 l 179 416 q 127 398 147 416 q 112 348 106 381 l 90 348 m 519 747 l 472 712 l 472 513 l 594 574 l 594 685 l 519 747 m 884 747 l 837 711 l 837 513 l 959 574 l 959 684 l 884 747 m 837 476 l 837 391 l 959 453 l 959 537 l 837 476 m 472 476 l 472 391 l 594 453 l 594 537 l 472 476 m 837 154 l 824 154 l 891 109 l 959 157 l 959 416 l 837 354 l 837 154 m 519 147 l 594 211 l 594 416 l 472 354 l 472 174 q 519 147 497 162 z "},"Ƿ":{"ha":838,"x_min":52,"x_max":800,"o":"m 216 -128 l 216 51 q 79 -34 134 27 l 52 -34 q 122 57 80 17 q 216 124 164 97 l 216 389 l 183 390 q 134 380 153 390 q 115 340 115 369 q 115 338 115 339 l 88 338 q 80 380 80 358 q 120 471 80 434 q 216 506 161 508 l 216 697 q 206 747 216 729 q 172 765 196 765 q 134 748 148 765 q 117 709 120 730 l 89 709 q 135 811 91 766 q 245 855 178 855 q 303 844 272 855 q 356 799 334 832 q 378 699 378 766 l 378 678 l 418 707 l 418 853 l 451 853 l 451 731 l 656 881 q 800 740 740 823 l 800 409 l 497 -15 q 451 19 476 3 l 451 -96 l 451 -128 l 216 -128 m 451 476 l 652 578 l 652 662 q 543 760 603 718 l 451 696 l 451 476 m 418 112 l 418 671 l 378 644 l 378 112 q 394 112 384 112 q 418 112 404 112 m 451 354 l 652 456 l 652 541 l 451 439 l 451 354 m 451 98 l 652 399 l 652 419 l 451 317 l 451 98 m 378 -96 l 418 -96 l 418 36 q 378 50 398 44 l 378 -96 z "},"X":{"ha":852,"x_min":56,"x_max":829,"o":"m 234 -96 q 150 -86 191 -103 q 84 -34 110 -69 q 59 51 59 1 q 108 160 59 119 q 225 205 156 200 l 392 432 l 103 432 l 215 556 l 343 556 l 301 633 q 252 719 271 690 q 219 760 234 749 q 186 771 205 771 q 143 749 159 771 q 124 704 127 727 l 56 704 q 88 784 63 747 q 155 845 113 822 q 248 869 196 869 q 359 829 316 869 q 433 737 403 788 l 589 869 l 611 869 q 651 835 626 850 q 705 821 676 821 q 758 835 735 821 q 793 872 780 850 l 808 872 q 794 781 815 822 q 733 715 773 740 q 640 690 692 690 q 625 690 632 690 l 529 559 l 530 556 l 770 556 l 657 432 l 597 432 l 775 98 l 818 124 l 829 108 l 648 -8 l 420 413 l 266 205 q 273 204 269 204 q 377 177 326 198 q 471 124 427 155 l 510 168 l 527 152 l 377 -15 q 352 7 373 -10 q 302 39 332 24 q 238 54 272 54 q 185 37 207 54 q 162 -10 162 20 q 186 -60 162 -42 q 238 -74 209 -79 l 234 -96 m 458 691 l 512 591 l 587 694 q 483 745 524 706 l 444 715 q 451 703 448 709 q 458 691 455 697 z "},"Y":{"ha":826,"x_min":60,"x_max":818,"o":"m 142 267 q 84 306 109 277 q 60 375 60 334 q 101 468 60 429 q 200 506 142 506 q 208 506 205 506 l 208 708 q 206 734 208 718 q 194 763 204 750 q 164 777 185 777 q 117 721 117 777 l 89 721 q 131 822 91 778 q 238 867 171 867 q 336 825 301 867 q 372 711 372 782 l 372 84 q 410 75 391 80 q 447 66 428 69 l 447 860 l 479 860 l 479 744 l 637 872 l 753 770 l 797 806 l 818 780 l 759 733 l 759 170 q 748 95 759 132 q 706 34 737 58 q 615 10 675 10 q 516 23 568 10 q 409 49 464 36 q 296 61 353 61 q 216 43 255 61 q 177 -19 177 25 q 204 -71 177 -53 q 265 -88 231 -88 q 353 -74 303 -88 q 465 -46 403 -60 q 603 -32 527 -32 q 718 -63 669 -32 q 767 -155 767 -94 q 738 -235 767 -204 q 674 -281 708 -266 q 631 -294 654 -291 l 626 -272 q 653 -257 641 -269 q 664 -227 664 -245 q 645 -189 664 -201 q 600 -177 625 -177 q 504 -190 561 -177 q 385 -215 447 -203 q 272 -228 324 -228 q 141 -181 184 -228 q 97 -75 97 -133 q 127 17 97 -25 q 208 80 156 59 l 208 348 l 189 348 q 150 341 167 348 q 133 311 133 333 q 148 284 133 294 l 142 267 m 536 748 l 479 704 l 479 505 q 539 487 506 486 q 598 509 573 487 l 598 693 l 536 748 m 479 368 q 539 387 506 387 q 598 365 572 387 l 598 475 q 540 454 573 455 q 479 471 507 453 l 479 368 m 598 229 l 598 331 q 539 353 573 352 q 479 334 506 354 l 479 63 l 481 63 q 565 97 532 63 q 598 229 598 132 z "},"Ý":{"ha":826,"x_min":60,"x_max":818,"o":"m 372 921 l 362 929 l 461 1133 l 521 1087 l 372 921 m 142 267 q 84 306 109 277 q 60 375 60 334 q 101 468 60 429 q 200 506 142 506 q 208 506 205 506 l 208 708 q 206 734 208 718 q 194 763 204 750 q 164 777 185 777 q 117 721 117 777 l 89 721 q 131 822 91 778 q 238 867 171 867 q 336 825 301 867 q 372 711 372 782 l 372 84 q 410 75 391 80 q 447 66 428 69 l 447 860 l 479 860 l 479 744 l 637 872 l 753 770 l 797 806 l 818 780 l 759 733 l 759 170 q 748 95 759 132 q 706 34 737 58 q 615 10 675 10 q 516 23 568 10 q 409 49 464 36 q 296 61 353 61 q 216 43 255 61 q 177 -19 177 25 q 204 -71 177 -53 q 265 -88 231 -88 q 353 -74 303 -88 q 465 -46 403 -60 q 603 -32 527 -32 q 718 -63 669 -32 q 767 -155 767 -94 q 738 -235 767 -204 q 674 -281 708 -266 q 631 -294 654 -291 l 626 -272 q 653 -257 641 -269 q 664 -227 664 -245 q 645 -189 664 -201 q 600 -177 625 -177 q 504 -190 561 -177 q 385 -215 447 -203 q 272 -228 324 -228 q 141 -181 184 -228 q 97 -75 97 -133 q 127 17 97 -25 q 208 80 156 59 l 208 348 l 189 348 q 150 341 167 348 q 133 311 133 333 q 148 284 133 294 l 142 267 m 536 748 l 479 704 l 479 505 q 539 487 506 486 q 598 509 573 487 l 598 693 l 536 748 m 479 368 q 539 387 506 387 q 598 365 572 387 l 598 475 q 540 454 573 455 q 479 471 507 453 l 479 368 m 598 229 l 598 331 q 539 353 573 352 q 479 334 506 354 l 479 63 l 481 63 q 565 97 532 63 q 598 229 598 132 z "},"Ŷ":{"ha":826,"x_min":60,"x_max":818,"o":"m 250 900 l 229 921 l 435 1126 l 579 992 l 493 900 l 368 1017 l 250 900 m 142 267 q 84 306 109 277 q 60 375 60 334 q 101 468 60 429 q 200 506 142 506 q 208 506 205 506 l 208 708 q 206 734 208 718 q 194 763 204 750 q 164 777 185 777 q 117 721 117 777 l 89 721 q 131 822 91 778 q 238 867 171 867 q 336 825 301 867 q 372 711 372 782 l 372 84 q 410 75 391 80 q 447 66 428 69 l 447 860 l 479 860 l 479 744 l 637 872 l 753 770 l 797 806 l 818 780 l 759 733 l 759 170 q 748 95 759 132 q 706 34 737 58 q 615 10 675 10 q 516 23 568 10 q 409 49 464 36 q 296 61 353 61 q 216 43 255 61 q 177 -19 177 25 q 204 -71 177 -53 q 265 -88 231 -88 q 353 -74 303 -88 q 465 -46 403 -60 q 603 -32 527 -32 q 718 -63 669 -32 q 767 -155 767 -94 q 738 -235 767 -204 q 674 -281 708 -266 q 631 -294 654 -291 l 626 -272 q 653 -257 641 -269 q 664 -227 664 -245 q 645 -189 664 -201 q 600 -177 625 -177 q 504 -190 561 -177 q 385 -215 447 -203 q 272 -228 324 -228 q 141 -181 184 -228 q 97 -75 97 -133 q 127 17 97 -25 q 208 80 156 59 l 208 348 l 189 348 q 150 341 167 348 q 133 311 133 333 q 148 284 133 294 l 142 267 m 536 748 l 479 704 l 479 505 q 539 487 506 486 q 598 509 573 487 l 598 693 l 536 748 m 479 368 q 539 387 506 387 q 598 365 572 387 l 598 475 q 540 454 573 455 q 479 471 507 453 l 479 368 m 598 229 l 598 331 q 539 353 573 352 q 479 334 506 354 l 479 63 l 481 63 q 565 97 532 63 q 598 229 598 132 z "},"Ÿ":{"ha":826,"x_min":60,"x_max":818,"o":"m 557 947 l 451 1052 l 556 1156 l 661 1051 l 557 947 m 291 947 l 185 1052 l 289 1156 l 395 1051 l 291 947 m 142 267 q 84 306 109 277 q 60 375 60 334 q 101 468 60 429 q 200 506 142 506 q 208 506 205 506 l 208 708 q 206 734 208 718 q 194 763 204 750 q 164 777 185 777 q 117 721 117 777 l 89 721 q 131 822 91 778 q 238 867 171 867 q 336 825 301 867 q 372 711 372 782 l 372 84 q 410 75 391 80 q 447 66 428 69 l 447 860 l 479 860 l 479 744 l 637 872 l 753 770 l 797 806 l 818 780 l 759 733 l 759 170 q 748 95 759 132 q 706 34 737 58 q 615 10 675 10 q 516 23 568 10 q 409 49 464 36 q 296 61 353 61 q 216 43 255 61 q 177 -19 177 25 q 204 -71 177 -53 q 265 -88 231 -88 q 353 -74 303 -88 q 465 -46 403 -60 q 603 -32 527 -32 q 718 -63 669 -32 q 767 -155 767 -94 q 738 -235 767 -204 q 674 -281 708 -266 q 631 -294 654 -291 l 626 -272 q 653 -257 641 -269 q 664 -227 664 -245 q 645 -189 664 -201 q 600 -177 625 -177 q 504 -190 561 -177 q 385 -215 447 -203 q 272 -228 324 -228 q 141 -181 184 -228 q 97 -75 97 -133 q 127 17 97 -25 q 208 80 156 59 l 208 348 l 189 348 q 150 341 167 348 q 133 311 133 333 q 148 284 133 294 l 142 267 m 536 748 l 479 704 l 479 505 q 539 487 506 486 q 598 509 573 487 l 598 693 l 536 748 m 479 368 q 539 387 506 387 q 598 365 572 387 l 598 475 q 540 454 573 455 q 479 471 507 453 l 479 368 m 598 229 l 598 331 q 539 353 573 352 q 479 334 506 354 l 479 63 l 481 63 q 565 97 532 63 q 598 229 598 132 z "},"Z":{"ha":777,"x_min":53,"x_max":767,"o":"m 188 382 l 285 529 l 461 529 q 478 547 470 538 q 493 563 486 556 l 598 662 q 435 647 517 647 q 270 662 346 647 q 118 707 193 677 l 75 645 l 53 655 l 170 870 q 319 826 237 846 q 484 807 402 807 q 608 821 553 807 q 713 861 662 834 l 734 838 q 704 760 722 796 q 649 676 685 723 q 547 554 612 628 l 523 529 l 638 529 l 539 382 l 388 382 l 209 190 q 309 212 262 205 q 411 220 356 220 q 573 204 500 220 q 718 155 646 188 l 751 194 l 767 183 l 624 -1 q 478 45 557 24 q 311 65 399 65 q 180 47 242 65 q 72 0 118 29 l 60 10 q 193 223 125 131 q 321 382 260 315 l 188 382 z "},"Ź":{"ha":777,"x_min":53,"x_max":767,"o":"m 383 954 l 374 962 l 472 1166 l 532 1119 l 383 954 m 188 382 l 285 529 l 461 529 q 478 547 470 538 q 493 563 486 556 l 598 662 q 435 647 517 647 q 270 662 346 647 q 118 707 193 677 l 75 645 l 53 655 l 170 870 q 319 826 237 846 q 484 807 402 807 q 608 821 553 807 q 713 861 662 834 l 734 838 q 704 760 722 796 q 649 676 685 723 q 547 554 612 628 l 523 529 l 638 529 l 539 382 l 388 382 l 209 190 q 309 212 262 205 q 411 220 356 220 q 573 204 500 220 q 718 155 646 188 l 751 194 l 767 183 l 624 -1 q 478 45 557 24 q 311 65 399 65 q 180 47 242 65 q 72 0 118 29 l 60 10 q 193 223 125 131 q 321 382 260 315 l 188 382 z "},"Ž":{"ha":777,"x_min":53,"x_max":767,"o":"m 440 958 l 284 1102 l 368 1193 l 505 1067 l 628 1193 l 650 1172 l 440 958 m 188 382 l 285 529 l 461 529 q 478 547 470 538 q 493 563 486 556 l 598 662 q 435 647 517 647 q 270 662 346 647 q 118 707 193 677 l 75 645 l 53 655 l 170 870 q 319 826 237 846 q 484 807 402 807 q 608 821 553 807 q 713 861 662 834 l 734 838 q 704 760 722 796 q 649 676 685 723 q 547 554 612 628 l 523 529 l 638 529 l 539 382 l 388 382 l 209 190 q 309 212 262 205 q 411 220 356 220 q 573 204 500 220 q 718 155 646 188 l 751 194 l 767 183 l 624 -1 q 478 45 557 24 q 311 65 399 65 q 180 47 242 65 q 72 0 118 29 l 60 10 q 193 223 125 131 q 321 382 260 315 l 188 382 z "},"Ż":{"ha":777,"x_min":53,"x_max":767,"o":"m 441 988 l 336 1094 l 440 1198 l 545 1093 l 441 988 m 188 382 l 285 529 l 461 529 q 478 547 470 538 q 493 563 486 556 l 598 662 q 435 647 517 647 q 270 662 346 647 q 118 707 193 677 l 75 645 l 53 655 l 170 870 q 319 826 237 846 q 484 807 402 807 q 608 821 553 807 q 713 861 662 834 l 734 838 q 704 760 722 796 q 649 676 685 723 q 547 554 612 628 l 523 529 l 638 529 l 539 382 l 388 382 l 209 190 q 309 212 262 205 q 411 220 356 220 q 573 204 500 220 q 718 155 646 188 l 751 194 l 767 183 l 624 -1 q 478 45 557 24 q 311 65 399 65 q 180 47 242 65 q 72 0 118 29 l 60 10 q 193 223 125 131 q 321 382 260 315 l 188 382 z "},"a":{"ha":567,"x_min":45,"x_max":572,"o":"m 200 -6 q 128 19 164 -1 q 69 71 93 38 q 45 147 45 103 q 79 236 45 193 q 178 314 113 279 q 112 357 139 331 q 84 424 84 383 q 108 485 84 462 q 156 521 131 508 l 284 588 l 455 478 l 501 515 l 522 491 l 462 441 l 462 149 l 517 94 l 567 127 l 572 105 l 411 -6 l 323 83 l 200 -6 m 117 431 q 151 369 117 394 q 232 330 185 345 q 317 307 279 316 l 317 416 l 181 500 q 136 469 155 486 q 117 431 117 453 m 185 252 q 197 182 185 219 q 233 120 209 146 q 293 94 257 94 q 317 97 309 94 l 317 273 q 259 286 289 279 q 199 306 228 294 q 189 282 193 296 q 185 252 185 269 z "},"á":{"ha":567,"x_min":45,"x_max":572,"o":"m 255 648 l 245 656 l 344 860 l 404 814 l 255 648 m 200 -6 q 128 19 164 -1 q 69 71 93 38 q 45 147 45 103 q 79 236 45 193 q 178 314 113 279 q 112 357 139 331 q 84 424 84 383 q 108 485 84 462 q 156 521 131 508 l 284 588 l 455 478 l 501 515 l 522 491 l 462 441 l 462 149 l 517 94 l 567 127 l 572 105 l 411 -6 l 323 83 l 200 -6 m 117 431 q 151 369 117 394 q 232 330 185 345 q 317 307 279 316 l 317 416 l 181 500 q 136 469 155 486 q 117 431 117 453 m 185 252 q 197 182 185 219 q 233 120 209 146 q 293 94 257 94 q 317 97 309 94 l 317 273 q 259 286 289 279 q 199 306 228 294 q 189 282 193 296 q 185 252 185 269 z "},"ă":{"ha":567,"x_min":45,"x_max":572,"o":"m 301 656 q 204 682 245 656 q 138 744 163 708 l 216 814 q 270 769 236 786 q 348 751 303 751 q 442 799 419 751 l 471 785 q 409 697 450 737 q 301 656 368 656 m 200 -6 q 128 19 164 -1 q 69 71 93 38 q 45 147 45 103 q 79 236 45 193 q 178 314 113 279 q 112 357 139 331 q 84 424 84 383 q 108 485 84 462 q 156 521 131 508 l 284 588 l 455 478 l 501 515 l 522 491 l 462 441 l 462 149 l 517 94 l 567 127 l 572 105 l 411 -6 l 323 83 l 200 -6 m 117 431 q 151 369 117 394 q 232 330 185 345 q 317 307 279 316 l 317 416 l 181 500 q 136 469 155 486 q 117 431 117 453 m 185 252 q 197 182 185 219 q 233 120 209 146 q 293 94 257 94 q 317 97 309 94 l 317 273 q 259 286 289 279 q 199 306 228 294 q 189 282 193 296 q 185 252 185 269 z "},"â":{"ha":567,"x_min":45,"x_max":572,"o":"m 133 627 l 112 648 l 318 853 l 462 719 l 376 627 l 251 744 l 133 627 m 200 -6 q 128 19 164 -1 q 69 71 93 38 q 45 147 45 103 q 79 236 45 193 q 178 314 113 279 q 112 357 139 331 q 84 424 84 383 q 108 485 84 462 q 156 521 131 508 l 284 588 l 455 478 l 501 515 l 522 491 l 462 441 l 462 149 l 517 94 l 567 127 l 572 105 l 411 -6 l 323 83 l 200 -6 m 117 431 q 151 369 117 394 q 232 330 185 345 q 317 307 279 316 l 317 416 l 181 500 q 136 469 155 486 q 117 431 117 453 m 185 252 q 197 182 185 219 q 233 120 209 146 q 293 94 257 94 q 317 97 309 94 l 317 273 q 259 286 289 279 q 199 306 228 294 q 189 282 193 296 q 185 252 185 269 z "},"ä":{"ha":567,"x_min":45,"x_max":572,"o":"m 440 674 l 334 779 l 439 883 l 544 778 l 440 674 m 174 674 l 68 779 l 172 883 l 278 778 l 174 674 m 200 -6 q 128 19 164 -1 q 69 71 93 38 q 45 147 45 103 q 79 236 45 193 q 178 314 113 279 q 112 357 139 331 q 84 424 84 383 q 108 485 84 462 q 156 521 131 508 l 284 588 l 455 478 l 501 515 l 522 491 l 462 441 l 462 149 l 517 94 l 567 127 l 572 105 l 411 -6 l 323 83 l 200 -6 m 117 431 q 151 369 117 394 q 232 330 185 345 q 317 307 279 316 l 317 416 l 181 500 q 136 469 155 486 q 117 431 117 453 m 185 252 q 197 182 185 219 q 233 120 209 146 q 293 94 257 94 q 317 97 309 94 l 317 273 q 259 286 289 279 q 199 306 228 294 q 189 282 193 296 q 185 252 185 269 z "},"à":{"ha":567,"x_min":45,"x_max":572,"o":"m 394 648 l 245 814 l 304 860 l 404 656 l 394 648 m 200 -6 q 128 19 164 -1 q 69 71 93 38 q 45 147 45 103 q 79 236 45 193 q 178 314 113 279 q 112 357 139 331 q 84 424 84 383 q 108 485 84 462 q 156 521 131 508 l 284 588 l 455 478 l 501 515 l 522 491 l 462 441 l 462 149 l 517 94 l 567 127 l 572 105 l 411 -6 l 323 83 l 200 -6 m 117 431 q 151 369 117 394 q 232 330 185 345 q 317 307 279 316 l 317 416 l 181 500 q 136 469 155 486 q 117 431 117 453 m 185 252 q 197 182 185 219 q 233 120 209 146 q 293 94 257 94 q 317 97 309 94 l 317 273 q 259 286 289 279 q 199 306 228 294 q 189 282 193 296 q 185 252 185 269 z "},"ā":{"ha":567,"x_min":45,"x_max":572,"o":"m 480 679 l 164 681 l 164 804 l 480 803 l 480 679 m 200 -6 q 128 19 164 -1 q 69 71 93 38 q 45 147 45 103 q 79 236 45 193 q 178 314 113 279 q 112 357 139 331 q 84 424 84 383 q 108 485 84 462 q 156 521 131 508 l 284 588 l 455 478 l 501 515 l 522 491 l 462 441 l 462 149 l 517 94 l 567 127 l 572 105 l 411 -6 l 323 83 l 200 -6 m 117 431 q 151 369 117 394 q 232 330 185 345 q 317 307 279 316 l 317 416 l 181 500 q 136 469 155 486 q 117 431 117 453 m 185 252 q 197 182 185 219 q 233 120 209 146 q 293 94 257 94 q 317 97 309 94 l 317 273 q 259 286 289 279 q 199 306 228 294 q 189 282 193 296 q 185 252 185 269 z "},"ą":{"ha":567,"x_min":45,"x_max":572,"o":"m 477 -233 q 433 -201 462 -222 q 374 -150 404 -181 q 322 -83 344 -120 q 301 -2 301 -45 q 327 86 301 49 q 387 145 353 124 l 512 63 q 436 10 469 49 q 404 -86 404 -29 q 427 -167 404 -133 q 484 -220 450 -201 l 477 -233 m 200 -6 q 128 19 164 -1 q 69 71 93 38 q 45 147 45 103 q 79 236 45 193 q 178 314 113 279 q 112 357 139 331 q 84 424 84 383 q 108 485 84 462 q 156 521 131 508 l 284 588 l 455 478 l 501 515 l 522 491 l 462 441 l 462 149 l 517 94 l 567 127 l 572 105 l 411 -6 l 323 83 l 200 -6 m 117 431 q 151 369 117 394 q 232 330 185 345 q 317 307 279 316 l 317 416 l 181 500 q 136 469 155 486 q 117 431 117 453 m 185 252 q 197 182 185 219 q 233 120 209 146 q 293 94 257 94 q 317 97 309 94 l 317 273 q 259 286 289 279 q 199 306 228 294 q 189 282 193 296 q 185 252 185 269 z "},"å":{"ha":567,"x_min":45,"x_max":572,"o":"m 282 560 q 205 592 237 560 q 174 669 174 624 q 205 746 174 714 q 282 778 237 778 q 359 746 328 778 q 391 669 391 714 q 359 592 391 624 q 282 560 328 560 m 282 593 q 336 615 314 593 q 359 669 359 638 q 336 723 359 700 q 282 745 314 745 q 229 723 251 745 q 206 669 206 700 q 229 615 206 638 q 282 593 251 593 m 200 -6 q 128 19 164 -1 q 69 71 93 38 q 45 147 45 103 q 79 236 45 193 q 178 314 113 279 q 112 357 139 331 q 84 424 84 383 q 108 485 84 462 q 156 521 131 508 l 284 588 l 455 478 l 501 515 l 522 491 l 462 441 l 462 149 l 517 94 l 567 127 l 572 105 l 411 -6 l 323 83 l 200 -6 m 117 431 q 151 369 117 394 q 232 330 185 345 q 317 307 279 316 l 317 416 l 181 500 q 136 469 155 486 q 117 431 117 453 m 185 252 q 197 182 185 219 q 233 120 209 146 q 293 94 257 94 q 317 97 309 94 l 317 273 q 259 286 289 279 q 199 306 228 294 q 189 282 193 296 q 185 252 185 269 z "},"ã":{"ha":567,"x_min":45,"x_max":572,"o":"m 381 646 q 314 658 343 646 q 256 682 285 670 q 191 694 227 694 q 138 683 160 694 q 100 656 116 672 l 71 672 q 112 725 89 698 q 167 769 135 751 q 241 787 199 787 q 310 775 279 787 q 372 751 340 763 q 440 740 403 740 q 488 751 469 740 q 520 782 508 763 l 549 766 q 486 683 528 721 q 381 646 444 646 m 200 -6 q 128 19 164 -1 q 69 71 93 38 q 45 147 45 103 q 79 236 45 193 q 178 314 113 279 q 112 357 139 331 q 84 424 84 383 q 108 485 84 462 q 156 521 131 508 l 284 588 l 455 478 l 501 515 l 522 491 l 462 441 l 462 149 l 517 94 l 567 127 l 572 105 l 411 -6 l 323 83 l 200 -6 m 117 431 q 151 369 117 394 q 232 330 185 345 q 317 307 279 316 l 317 416 l 181 500 q 136 469 155 486 q 117 431 117 453 m 185 252 q 197 182 185 219 q 233 120 209 146 q 293 94 257 94 q 317 97 309 94 l 317 273 q 259 286 289 279 q 199 306 228 294 q 189 282 193 296 q 185 252 185 269 z "},"æ":{"ha":750,"x_min":45,"x_max":747,"o":"m 201 -6 q 128 19 164 -1 q 69 71 93 38 q 45 147 45 103 q 81 238 45 194 q 185 317 117 282 q 115 361 144 334 q 87 427 87 387 q 110 487 87 465 q 159 521 133 508 l 287 588 l 420 501 l 597 594 l 714 416 l 714 411 l 464 255 l 464 205 l 603 111 l 730 211 l 747 183 l 508 -12 l 346 109 l 201 -6 m 464 473 l 464 284 l 586 360 l 486 505 l 464 492 l 464 473 l 464 473 m 120 434 q 136 391 120 412 q 194 348 152 369 q 319 308 237 326 l 319 416 l 176 505 q 138 479 155 497 q 120 434 120 461 m 275 106 q 319 128 303 106 l 319 274 q 263 290 293 281 q 204 309 233 299 q 184 236 184 277 q 194 178 184 207 q 225 127 205 148 q 275 106 245 106 z "},"b":{"ha":553,"x_min":3,"x_max":500,"o":"m 240 -12 l 65 94 l 20 66 l 3 88 l 81 138 l 81 677 q 71 712 81 697 q 25 737 61 727 l 25 755 l 214 888 l 236 888 l 236 494 l 382 590 l 500 479 l 500 137 l 240 -12 m 236 155 l 358 84 l 358 418 l 288 491 l 236 456 l 236 155 z "},"c":{"ha":425,"x_min":63,"x_max":424,"o":"m 237 0 l 63 119 l 63 465 l 301 598 l 424 500 l 314 417 l 211 502 l 211 201 q 277 138 237 154 q 341 122 317 123 l 409 170 l 424 149 l 253 0 l 237 0 z "},"ć":{"ha":425,"x_min":63,"x_max":424,"o":"m 226 671 l 216 679 l 315 883 l 375 837 l 226 671 m 237 0 l 63 119 l 63 465 l 301 598 l 424 500 l 314 417 l 211 502 l 211 201 q 277 138 237 154 q 341 122 317 123 l 409 170 l 424 149 l 253 0 l 237 0 z "},"č":{"ha":425,"x_min":61,"x_max":428,"o":"m 218 676 l 61 819 l 146 911 l 282 785 l 406 911 l 428 890 l 218 676 m 237 0 l 63 119 l 63 465 l 301 598 l 424 500 l 314 417 l 211 502 l 211 201 q 277 138 237 154 q 341 122 317 123 l 409 170 l 424 149 l 253 0 l 237 0 z "},"ç":{"ha":425,"x_min":63,"x_max":424,"o":"m 155 -251 l 148 -243 q 199 -210 170 -234 q 228 -145 228 -186 q 194 -74 228 -101 q 120 -38 160 -47 l 245 21 q 303 -19 275 8 q 331 -84 331 -45 q 319 -128 331 -103 q 269 -184 307 -153 q 155 -251 231 -215 m 237 0 l 63 119 l 63 465 l 301 598 l 424 500 l 314 417 l 211 502 l 211 201 q 277 138 237 154 q 341 122 317 123 l 409 170 l 424 149 l 253 0 l 237 0 z "},"ĉ":{"ha":425,"x_min":63,"x_max":433,"o":"m 104 650 l 83 671 l 289 876 l 433 742 l 347 650 l 222 767 l 104 650 m 237 0 l 63 119 l 63 465 l 301 598 l 424 500 l 314 417 l 211 502 l 211 201 q 277 138 237 154 q 341 122 317 123 l 409 170 l 424 149 l 253 0 l 237 0 z "},"ċ":{"ha":425,"x_min":63,"x_max":424,"o":"m 284 706 l 178 811 l 282 916 l 388 810 l 284 706 m 237 0 l 63 119 l 63 465 l 301 598 l 424 500 l 314 417 l 211 502 l 211 201 q 277 138 237 154 q 341 122 317 123 l 409 170 l 424 149 l 253 0 l 237 0 z "},"d":{"ha":550,"x_min":64,"x_max":534,"o":"m 230 -10 l 64 104 l 64 459 l 204 546 l 95 646 l 72 642 l 72 850 l 471 498 l 514 532 l 534 508 l 485 468 l 484 140 l 230 -10 m 213 164 l 336 80 l 336 427 l 213 539 l 213 164 z "},"ď":{"ha":550,"x_min":64,"x_max":534,"o":"m 457 649 q 442 664 442 649 q 447 683 442 675 q 451 716 451 691 q 436 786 451 760 q 400 826 420 811 q 365 856 381 841 q 350 897 350 872 q 367 940 350 922 q 411 958 385 958 q 460 939 433 958 q 507 884 487 919 q 527 806 527 850 q 509 723 527 758 q 469 655 492 688 q 457 649 464 649 m 230 -10 l 64 104 l 64 459 l 204 546 l 95 646 l 72 642 l 72 850 l 471 498 l 514 532 l 534 508 l 485 468 l 484 140 l 230 -10 m 213 164 l 336 80 l 336 427 l 213 539 l 213 164 z "},"đ":{"ha":505,"x_min":64,"x_max":534,"o":"m 230 1 l 64 116 l 64 471 l 204 558 l 157 601 l 115 551 l 91 574 l 133 623 l 95 657 l 72 654 l 72 861 l 222 728 l 263 775 l 286 753 l 247 707 l 471 509 l 514 544 l 534 520 l 485 479 l 484 152 l 230 1 m 213 176 l 336 91 l 336 439 l 213 551 l 213 176 z "},"ð":{"ha":505,"x_min":64,"x_max":534,"o":"m 230 1 l 64 116 l 64 471 l 204 558 l 157 601 l 115 551 l 91 574 l 133 623 l 95 657 l 72 654 l 72 861 l 222 728 l 263 775 l 286 753 l 247 707 l 471 509 l 514 544 l 534 520 l 485 479 l 484 152 l 230 1 m 213 176 l 336 91 l 336 439 l 213 551 l 213 176 z "},"e":{"ha":493,"x_min":8,"x_max":490,"o":"m 28 75 l 8 100 l 63 145 l 63 449 l 340 594 l 456 416 l 456 411 l 207 255 l 207 205 l 346 111 l 473 211 l 490 183 l 251 -12 l 80 116 l 28 75 m 207 492 l 207 295 l 323 368 l 229 505 l 207 492 z "},"é":{"ha":493,"x_min":8,"x_max":490,"o":"m 219 667 l 209 675 l 308 878 l 368 832 l 219 667 m 28 75 l 8 100 l 63 145 l 63 449 l 340 594 l 456 416 l 456 411 l 207 255 l 207 205 l 346 111 l 473 211 l 490 183 l 251 -12 l 80 116 l 28 75 m 207 492 l 207 295 l 323 368 l 229 505 l 207 492 z "},"ĕ":{"ha":493,"x_min":8,"x_max":490,"o":"m 265 675 q 168 701 209 675 q 102 763 127 727 l 181 832 q 234 787 200 804 q 313 770 267 770 q 406 817 383 770 l 435 803 q 373 715 414 756 q 265 675 332 675 m 28 75 l 8 100 l 63 145 l 63 449 l 340 594 l 456 416 l 456 411 l 207 255 l 207 205 l 346 111 l 473 211 l 490 183 l 251 -12 l 80 116 l 28 75 m 207 492 l 207 295 l 323 368 l 229 505 l 207 492 z "},"ě":{"ha":493,"x_min":8,"x_max":490,"o":"m 275 671 l 119 815 l 204 906 l 340 780 l 464 906 l 486 885 l 275 671 m 28 75 l 8 100 l 63 145 l 63 449 l 340 594 l 456 416 l 456 411 l 207 255 l 207 205 l 346 111 l 473 211 l 490 183 l 251 -12 l 80 116 l 28 75 m 207 492 l 207 295 l 323 368 l 229 505 l 207 492 z "},"ê":{"ha":493,"x_min":8,"x_max":490,"o":"m 97 646 l 76 667 l 282 872 l 426 737 l 340 646 l 215 763 l 97 646 m 28 75 l 8 100 l 63 145 l 63 449 l 340 594 l 456 416 l 456 411 l 207 255 l 207 205 l 346 111 l 473 211 l 490 183 l 251 -12 l 80 116 l 28 75 m 207 492 l 207 295 l 323 368 l 229 505 l 207 492 z "},"ë":{"ha":493,"x_min":8,"x_max":508,"o":"m 404 692 l 299 797 l 403 902 l 508 796 l 404 692 m 138 692 l 32 797 l 137 902 l 242 796 l 138 692 m 28 75 l 8 100 l 63 145 l 63 449 l 340 594 l 456 416 l 456 411 l 207 255 l 207 205 l 346 111 l 473 211 l 490 183 l 251 -12 l 80 116 l 28 75 m 207 492 l 207 295 l 323 368 l 229 505 l 207 492 z "},"ė":{"ha":493,"x_min":8,"x_max":490,"o":"m 277 701 l 171 807 l 275 911 l 381 806 l 277 701 m 28 75 l 8 100 l 63 145 l 63 449 l 340 594 l 456 416 l 456 411 l 207 255 l 207 205 l 346 111 l 473 211 l 490 183 l 251 -12 l 80 116 l 28 75 m 207 492 l 207 295 l 323 368 l 229 505 l 207 492 z "},"è":{"ha":493,"x_min":8,"x_max":490,"o":"m 358 667 l 209 832 l 269 878 l 368 675 l 358 667 m 28 75 l 8 100 l 63 145 l 63 449 l 340 594 l 456 416 l 456 411 l 207 255 l 207 205 l 346 111 l 473 211 l 490 183 l 251 -12 l 80 116 l 28 75 m 207 492 l 207 295 l 323 368 l 229 505 l 207 492 z "},"ē":{"ha":493,"x_min":8,"x_max":490,"o":"m 444 698 l 128 699 l 128 823 l 444 822 l 444 698 m 28 75 l 8 100 l 63 145 l 63 449 l 340 594 l 456 416 l 456 411 l 207 255 l 207 205 l 346 111 l 473 211 l 490 183 l 251 -12 l 80 116 l 28 75 m 207 492 l 207 295 l 323 368 l 229 505 l 207 492 z "},"ę":{"ha":493,"x_min":8,"x_max":490,"o":"m 278 -251 q 234 -220 263 -241 q 175 -169 205 -199 q 123 -101 145 -139 q 102 -21 102 -64 q 128 68 102 30 q 188 126 154 105 l 313 44 q 237 -9 270 30 q 205 -104 205 -47 q 228 -186 205 -152 q 285 -238 251 -220 l 278 -251 m 28 75 l 8 100 l 63 145 l 63 449 l 340 594 l 456 416 l 456 411 l 207 255 l 207 205 l 346 111 l 473 211 l 490 183 l 251 -12 l 80 116 l 28 75 m 207 492 l 207 295 l 323 368 l 229 505 l 207 492 z "},"ə":{"ha":516,"x_min":-8,"x_max":473,"o":"m 13 75 l -8 101 l 46 145 l 46 269 l 46 269 l 46 269 l 200 367 l 330 367 l 330 421 l 207 502 l 64 419 l 46 449 l 307 598 l 473 471 l 473 155 l 219 0 l 60 115 l 13 75 m 330 88 l 330 280 l 198 280 l 197 177 l 330 88 z "},"f":{"ha":383,"x_min":17,"x_max":508,"o":"m 200 0 l 79 105 l 34 78 l 17 100 l 95 149 l 95 149 l 95 149 l 95 456 q 76 500 95 490 q 39 510 58 510 l 39 528 l 95 587 l 95 736 l 353 882 l 508 786 l 365 706 l 238 785 l 238 583 l 388 583 l 333 520 l 238 520 l 238 139 l 304 83 l 343 104 l 360 82 l 200 0 z "},"g":{"ha":565,"x_min":2,"x_max":541,"o":"m 226 -212 q 177 -167 207 -185 q 106 -149 147 -149 q 20 -178 58 -149 l 2 -167 q 71 -78 22 -116 q 188 -39 119 -39 q 330 -100 272 -39 q 361 -84 348 -98 q 373 -49 373 -69 q 365 -10 373 -25 q 347 24 356 6 q 332 74 337 43 l 225 0 l 58 116 l 58 449 l 319 598 l 471 485 l 520 524 l 541 500 l 485 455 l 485 161 q 494 91 485 113 q 510 57 502 69 q 519 23 519 44 q 505 -17 519 -2 q 473 -41 492 -31 q 439 -61 454 -51 l 226 -212 m 197 189 l 330 105 q 329 119 329 111 l 330 404 l 197 493 l 197 189 z "},"ğ":{"ha":565,"x_min":2,"x_max":541,"o":"m 332 670 q 236 696 277 670 q 169 758 194 722 l 248 828 q 301 782 267 800 q 380 765 334 765 q 473 813 450 765 l 502 799 q 440 711 481 751 q 332 670 399 670 m 226 -212 q 177 -167 207 -185 q 106 -149 147 -149 q 20 -178 58 -149 l 2 -167 q 71 -78 22 -116 q 188 -39 119 -39 q 330 -100 272 -39 q 361 -84 348 -98 q 373 -49 373 -69 q 365 -10 373 -25 q 347 24 356 6 q 332 74 337 43 l 225 0 l 58 116 l 58 449 l 319 598 l 471 485 l 520 524 l 541 500 l 485 455 l 485 161 q 494 91 485 113 q 510 57 502 69 q 519 23 519 44 q 505 -17 519 -2 q 473 -41 492 -31 q 439 -61 454 -51 l 226 -212 m 197 189 l 330 105 q 329 119 329 111 l 330 404 l 197 493 l 197 189 z "},"ĝ":{"ha":565,"x_min":2,"x_max":541,"o":"m 164 641 l 144 662 l 350 867 l 493 733 l 407 641 l 282 758 l 164 641 m 226 -212 q 177 -167 207 -185 q 106 -149 147 -149 q 20 -178 58 -149 l 2 -167 q 71 -78 22 -116 q 188 -39 119 -39 q 330 -100 272 -39 q 361 -84 348 -98 q 373 -49 373 -69 q 365 -10 373 -25 q 347 24 356 6 q 332 74 337 43 l 225 0 l 58 116 l 58 449 l 319 598 l 471 485 l 520 524 l 541 500 l 485 455 l 485 161 q 494 91 485 113 q 510 57 502 69 q 519 23 519 44 q 505 -17 519 -2 q 473 -41 492 -31 q 439 -61 454 -51 l 226 -212 m 197 189 l 330 105 q 329 119 329 111 l 330 404 l 197 493 l 197 189 z "},"ģ":{"ha":565,"x_min":2,"x_max":541,"o":"m 188 -441 l 181 -433 q 231 -400 203 -424 q 260 -334 260 -376 q 226 -264 260 -291 q 153 -228 192 -237 l 278 -169 q 336 -208 308 -182 q 363 -274 363 -235 q 351 -318 363 -293 q 302 -374 339 -343 q 188 -441 264 -405 m 226 -212 q 177 -167 207 -185 q 106 -149 147 -149 q 20 -178 58 -149 l 2 -167 q 71 -78 22 -116 q 188 -39 119 -39 q 330 -100 272 -39 q 361 -84 348 -98 q 373 -49 373 -69 q 365 -10 373 -25 q 347 24 356 6 q 332 74 337 43 l 225 0 l 58 116 l 58 449 l 319 598 l 471 485 l 520 524 l 541 500 l 485 455 l 485 161 q 494 91 485 113 q 510 57 502 69 q 519 23 519 44 q 505 -17 519 -2 q 473 -41 492 -31 q 439 -61 454 -51 l 226 -212 m 197 189 l 330 105 q 329 119 329 111 l 330 404 l 197 493 l 197 189 z "},"ġ":{"ha":565,"x_min":2,"x_max":541,"o":"m 344 697 l 238 802 l 343 906 l 448 801 l 344 697 m 226 -212 q 177 -167 207 -185 q 106 -149 147 -149 q 20 -178 58 -149 l 2 -167 q 71 -78 22 -116 q 188 -39 119 -39 q 330 -100 272 -39 q 361 -84 348 -98 q 373 -49 373 -69 q 365 -10 373 -25 q 347 24 356 6 q 332 74 337 43 l 225 0 l 58 116 l 58 449 l 319 598 l 471 485 l 520 524 l 541 500 l 485 455 l 485 161 q 494 91 485 113 q 510 57 502 69 q 519 23 519 44 q 505 -17 519 -2 q 473 -41 492 -31 q 439 -61 454 -51 l 226 -212 m 197 189 l 330 105 q 329 119 329 111 l 330 404 l 197 493 l 197 189 z "},"h":{"ha":609,"x_min":31,"x_max":597,"o":"m 214 0 l 95 101 l 51 73 l 31 100 l 109 149 l 109 677 q 102 708 109 691 q 53 737 95 725 l 53 755 l 242 888 l 264 888 l 264 458 l 409 594 l 531 491 l 576 528 l 597 503 l 547 463 l 547 132 q 538 41 547 87 q 502 -44 528 -5 q 428 -107 476 -83 q 306 -131 381 -131 q 270 -127 287 -131 l 270 -100 q 341 -67 313 -100 q 383 19 369 -34 q 397 132 397 72 l 397 427 l 329 484 l 264 424 l 264 139 l 302 101 l 338 126 l 359 100 l 214 0 z "},"ĥ":{"ha":609,"x_min":31,"x_max":597,"o":"m 205 956 l 184 977 l 390 1182 l 534 1047 l 448 956 l 323 1073 l 205 956 m 214 0 l 95 101 l 51 73 l 31 100 l 109 149 l 109 677 q 102 708 109 691 q 53 737 95 725 l 53 755 l 242 888 l 264 888 l 264 458 l 409 594 l 531 491 l 576 528 l 597 503 l 547 463 l 547 132 q 538 41 547 87 q 502 -44 528 -5 q 428 -107 476 -83 q 306 -131 381 -131 q 270 -127 287 -131 l 270 -100 q 341 -67 313 -100 q 383 19 369 -34 q 397 132 397 72 l 397 427 l 329 484 l 264 424 l 264 139 l 302 101 l 338 126 l 359 100 l 214 0 z "},"i":{"ha":358,"x_min":14,"x_max":375,"o":"m 175 638 l 76 750 l 188 846 l 286 734 l 175 638 m 208 -6 l 97 94 l 58 66 l 42 88 l 113 139 l 113 443 l 75 493 l 30 465 l 14 488 l 169 594 l 258 488 l 258 139 l 296 100 l 347 133 l 375 111 l 208 -6 z "},"ı":{"ha":395,"x_min":17,"x_max":378,"o":"m 212 -6 l 101 94 l 61 66 l 45 88 l 117 139 l 117 443 l 79 493 l 34 465 l 17 488 l 172 594 l 262 488 l 262 139 l 300 100 l 351 133 l 378 111 l 212 -6 z "},"í":{"ha":395,"x_min":17,"x_max":378,"o":"m 106 653 l 97 661 l 196 865 l 256 818 l 106 653 m 212 -6 l 101 94 l 61 66 l 45 88 l 117 139 l 117 443 l 79 493 l 34 465 l 17 488 l 172 594 l 262 488 l 262 139 l 300 100 l 351 133 l 378 111 l 212 -6 z "},"ĭ":{"ha":395,"x_min":-10,"x_max":378,"o":"m 153 661 q 56 687 97 661 q -10 749 15 713 l 68 818 q 122 773 88 791 q 200 756 155 756 q 294 803 271 756 l 323 789 q 261 701 302 742 q 153 661 220 661 m 212 -6 l 101 94 l 61 66 l 45 88 l 117 139 l 117 443 l 79 493 l 34 465 l 17 488 l 172 594 l 262 488 l 262 139 l 300 100 l 351 133 l 378 111 l 212 -6 z "},"î":{"ha":395,"x_min":-36,"x_max":378,"o":"m -15 632 l -36 653 l 170 858 l 314 723 l 228 632 l 103 749 l -15 632 m 212 -6 l 101 94 l 61 66 l 45 88 l 117 139 l 117 443 l 79 493 l 34 465 l 17 488 l 172 594 l 262 488 l 262 139 l 300 100 l 351 133 l 378 111 l 212 -6 z "},"ï":{"ha":395,"x_min":-80,"x_max":396,"o":"m 292 678 l 186 784 l 291 888 l 396 782 l 292 678 m 25 678 l -80 784 l 24 888 l 130 782 l 25 678 m 212 -6 l 101 94 l 61 66 l 45 88 l 117 139 l 117 443 l 79 493 l 34 465 l 17 488 l 172 594 l 262 488 l 262 139 l 300 100 l 351 133 l 378 111 l 212 -6 z "},"ì":{"ha":395,"x_min":17,"x_max":378,"o":"m 212 -6 l 101 94 l 61 66 l 45 88 l 117 139 l 117 443 l 79 493 l 34 465 l 17 488 l 172 594 l 262 488 l 262 139 l 300 100 l 351 133 l 378 111 l 212 -6 m 245 653 l 97 818 l 156 865 l 256 661 l 245 653 z "},"ī":{"ha":395,"x_min":16,"x_max":378,"o":"m 332 684 l 16 685 l 16 809 l 332 808 l 332 684 m 212 -6 l 101 94 l 61 66 l 45 88 l 117 139 l 117 443 l 79 493 l 34 465 l 17 488 l 172 594 l 262 488 l 262 139 l 300 100 l 351 133 l 378 111 l 212 -6 z "},"į":{"ha":358,"x_min":14,"x_max":375,"o":"m 289 -370 q 245 -339 274 -360 q 186 -288 216 -318 q 135 -220 156 -258 q 113 -140 113 -183 q 139 -52 113 -89 q 199 7 166 -14 l 324 -75 q 249 -128 281 -89 q 216 -223 216 -167 q 240 -305 216 -271 q 296 -358 263 -339 l 289 -370 m 175 638 l 76 750 l 188 846 l 286 734 l 175 638 m 208 -6 l 97 94 l 58 66 l 42 88 l 113 139 l 113 443 l 75 493 l 30 465 l 14 488 l 169 594 l 258 488 l 258 139 l 296 100 l 347 133 l 375 111 l 208 -6 z "},"ĩ":{"ha":395,"x_min":-78,"x_max":400,"o":"m 233 650 q 166 663 194 650 q 108 687 137 675 q 43 699 79 699 q -10 688 12 699 q -49 661 -32 677 l -78 677 q -36 729 -59 703 q 19 774 -13 756 q 93 792 51 792 q 161 780 131 792 q 223 756 192 767 q 292 744 255 744 q 340 756 321 744 q 372 787 360 767 l 400 771 q 338 688 380 726 q 233 650 296 650 m 212 -6 l 101 94 l 61 66 l 45 88 l 117 139 l 117 443 l 79 493 l 34 465 l 17 488 l 172 594 l 262 488 l 262 139 l 300 100 l 351 133 l 378 111 l 212 -6 z "},"ĳ":{"ha":679,"x_min":14,"x_max":655,"o":"m 175 638 l 76 750 l 188 846 l 286 734 l 175 638 m 208 -6 l 97 94 l 58 66 l 42 88 l 113 139 l 113 443 l 75 493 l 30 465 l 14 488 l 169 594 l 258 488 l 258 139 l 296 100 l 347 133 l 375 111 l 208 -6 m 523 638 l 425 750 l 536 846 l 634 734 l 523 638 m 381 -207 q 373 -207 376 -207 l 373 -175 q 447 -116 433 -175 q 462 47 462 -57 l 462 443 l 424 493 l 378 465 l 362 488 l 517 594 l 594 502 l 634 536 l 655 510 l 606 471 l 606 139 l 604 30 q 579 -86 602 -39 q 523 -159 557 -132 q 451 -196 488 -185 q 381 -207 413 -207 z "},"j":{"ha":322,"x_min":5,"x_max":297,"o":"m 166 638 l 67 750 l 178 846 l 277 734 l 166 638 m 23 -207 q 15 -207 19 -207 l 15 -175 q 90 -116 75 -175 q 104 47 104 -57 l 104 443 l 66 493 l 21 465 l 5 488 l 160 594 l 236 502 l 277 536 l 297 510 l 249 471 l 249 139 l 247 30 q 222 -86 244 -39 q 165 -159 199 -132 q 93 -196 131 -185 q 23 -207 56 -207 z "},"ȷ":{"ha":319,"x_min":2,"x_max":295,"o":"m 21 -207 q 13 -207 16 -207 l 13 -175 q 87 -116 73 -175 q 102 47 102 -57 l 102 443 l 64 493 l 19 465 l 2 488 l 157 594 l 234 502 l 274 536 l 295 510 l 247 471 l 247 139 l 244 30 q 219 -86 242 -39 q 163 -159 197 -132 q 91 -196 128 -185 q 21 -207 53 -207 z "},"ĵ":{"ha":319,"x_min":-37,"x_max":313,"o":"m -16 632 l -37 653 l 169 858 l 313 723 l 227 632 l 102 749 l -16 632 m 21 -207 q 13 -207 16 -207 l 13 -175 q 87 -116 73 -175 q 102 47 102 -57 l 102 443 l 64 493 l 19 465 l 2 488 l 157 594 l 234 502 l 274 536 l 295 510 l 247 471 l 247 139 l 244 30 q 219 -86 242 -39 q 163 -159 197 -132 q 91 -196 128 -185 q 21 -207 53 -207 z "},"k":{"ha":668,"x_min":17,"x_max":678,"o":"m 200 0 l 79 105 l 34 78 l 17 100 l 95 149 l 95 677 q 79 718 95 706 q 39 737 63 730 l 39 755 l 228 888 l 250 888 l 250 139 l 295 94 l 328 122 l 345 100 l 200 0 m 500 -12 l 273 322 l 444 588 l 456 588 q 485 557 465 569 q 531 544 505 544 q 576 557 557 544 q 605 588 596 569 l 627 588 q 606 509 622 546 q 561 446 590 471 q 485 421 532 421 q 431 432 454 421 q 389 461 407 443 l 378 438 l 605 100 l 655 133 l 678 105 l 500 -12 z "},"ķ":{"ha":668,"x_min":17,"x_max":678,"o":"m 87 -117 l 80 -109 q 131 -76 102 -100 q 160 -10 160 -52 q 126 60 160 34 q 52 96 91 87 l 177 155 q 235 116 207 142 q 263 50 263 89 q 251 6 263 31 q 201 -50 238 -19 q 87 -117 163 -81 m 200 0 l 79 105 l 34 78 l 17 100 l 95 149 l 95 677 q 79 718 95 706 q 39 737 63 730 l 39 755 l 228 888 l 250 888 l 250 139 l 295 94 l 328 122 l 345 100 l 200 0 m 500 -12 l 273 322 l 444 588 l 456 588 q 485 557 465 569 q 531 544 505 544 q 576 557 557 544 q 605 588 596 569 l 627 588 q 606 509 622 546 q 561 446 590 471 q 485 421 532 421 q 431 432 454 421 q 389 461 407 443 l 378 438 l 605 100 l 655 133 l 678 105 l 500 -12 z "},"ĸ":{"ha":694,"x_min":17,"x_max":678,"o":"m 200 0 l 79 105 l 34 78 l 17 100 l 95 149 l 95 487 q 79 530 95 517 q 39 549 63 542 l 39 590 l 250 590 l 250 139 l 295 94 l 328 122 l 345 100 l 200 0 m 500 -12 l 273 322 l 444 588 l 456 588 q 485 557 465 569 q 531 544 505 544 q 576 557 557 544 q 605 588 596 569 l 627 588 q 606 509 622 546 q 561 446 590 471 q 485 421 532 421 q 431 432 454 421 q 389 461 407 443 l 378 438 l 605 100 l 655 133 l 678 105 l 500 -12 z "},"l":{"ha":332,"x_min":17,"x_max":345,"o":"m 200 0 l 79 105 l 34 78 l 17 100 l 95 149 l 95 654 q 86 710 95 694 q 39 737 78 726 l 39 755 l 228 888 l 250 888 l 250 139 l 295 94 l 328 122 l 345 100 l 200 0 z "},"ĺ":{"ha":332,"x_min":17,"x_max":345,"o":"m 130 949 l 120 957 l 219 1161 l 279 1115 l 130 949 m 200 0 l 79 105 l 34 78 l 17 100 l 95 149 l 95 654 q 86 710 95 694 q 39 737 78 726 l 39 755 l 228 888 l 250 888 l 250 139 l 295 94 l 328 122 l 345 100 l 200 0 z "},"ľ":{"ha":332,"x_min":17,"x_max":473,"o":"m 404 755 q 389 770 389 755 q 394 788 389 780 q 398 822 398 796 q 383 891 398 866 q 347 932 367 917 q 312 962 328 947 q 296 1002 296 977 q 314 1046 296 1028 q 358 1064 332 1064 q 407 1044 380 1064 q 454 990 434 1024 q 473 911 473 955 q 456 828 473 863 q 416 760 439 793 q 404 755 411 755 m 200 0 l 79 105 l 34 78 l 17 100 l 95 149 l 95 654 q 86 710 95 694 q 39 737 78 726 l 39 755 l 228 888 l 250 888 l 250 139 l 295 94 l 328 122 l 345 100 l 200 0 z "},"ļ":{"ha":332,"x_min":17,"x_max":345,"o":"m 82 -112 l 75 -104 q 126 -71 97 -95 q 155 -6 155 -47 q 121 65 155 38 q 47 101 87 91 l 172 160 q 230 120 203 147 q 258 54 258 94 q 246 11 258 36 q 196 -45 234 -14 q 82 -112 159 -76 m 200 0 l 79 105 l 34 78 l 17 100 l 95 149 l 95 654 q 86 710 95 694 q 39 737 78 726 l 39 755 l 228 888 l 250 888 l 250 139 l 295 94 l 328 122 l 345 100 l 200 0 z "},"ŀ":{"ha":478,"x_min":17,"x_max":538,"o":"m 434 362 l 329 468 l 433 572 l 538 466 l 434 362 m 200 0 l 79 105 l 34 78 l 17 100 l 95 149 l 95 654 q 86 710 95 694 q 39 737 78 726 l 39 755 l 228 888 l 250 888 l 250 139 l 295 94 l 328 122 l 345 100 l 200 0 z "},"ł":{"ha":332,"x_min":17,"x_max":345,"o":"m 200 0 l 79 105 l 34 78 l 17 100 l 95 149 l 95 376 l 38 348 l 23 378 l 95 413 l 95 654 q 86 710 95 694 q 39 737 78 726 l 39 755 l 228 888 l 250 888 l 250 492 l 330 531 l 344 501 l 250 455 l 250 139 l 295 94 l 328 122 l 345 100 l 200 0 z "},"m":{"ha":904,"x_min":6,"x_max":904,"o":"m 200 -17 l 67 88 l 111 127 l 111 435 l 67 485 l 22 457 l 6 479 l 167 590 l 252 495 l 404 590 l 519 491 l 678 590 l 799 486 l 836 517 l 856 492 l 800 446 l 800 155 l 853 100 l 903 137 l 904 95 l 733 -17 l 618 83 l 667 127 l 667 413 l 586 486 l 525 449 l 525 139 l 586 86 l 458 -17 l 344 83 l 392 127 l 392 413 l 311 486 l 262 455 l 262 127 l 311 83 l 200 -17 z "},"n":{"ha":645,"x_min":6,"x_max":644,"o":"m 200 -17 l 67 88 l 111 127 l 111 435 l 67 485 l 22 457 l 6 479 l 167 590 l 256 491 l 383 590 l 514 478 l 563 517 l 583 492 l 528 447 l 528 144 l 578 100 l 622 133 l 644 100 l 472 -17 l 355 88 l 395 127 l 395 413 l 311 485 l 262 446 l 262 127 l 311 83 l 200 -17 z "},"ń":{"ha":645,"x_min":6,"x_max":644,"o":"m 294 657 l 285 666 l 383 869 l 443 823 l 294 657 m 200 -17 l 67 88 l 111 127 l 111 435 l 67 485 l 22 457 l 6 479 l 167 590 l 256 491 l 383 590 l 514 478 l 563 517 l 583 492 l 528 447 l 528 144 l 578 100 l 622 133 l 644 100 l 472 -17 l 355 88 l 395 127 l 395 413 l 311 485 l 262 446 l 262 127 l 311 83 l 200 -17 z "},"ň":{"ha":645,"x_min":6,"x_max":644,"o":"m 351 662 l 194 806 l 279 897 l 416 771 l 539 897 l 561 876 l 351 662 m 200 -17 l 67 88 l 111 127 l 111 435 l 67 485 l 22 457 l 6 479 l 167 590 l 256 491 l 383 590 l 514 478 l 563 517 l 583 492 l 528 447 l 528 144 l 578 100 l 622 133 l 644 100 l 472 -17 l 355 88 l 395 127 l 395 413 l 311 485 l 262 446 l 262 127 l 311 83 l 200 -17 z "},"ņ":{"ha":645,"x_min":6,"x_max":644,"o":"m 233 -280 l 226 -272 q 277 -239 248 -263 q 306 -174 306 -215 q 271 -103 306 -130 q 198 -67 237 -76 l 323 -8 q 381 -47 353 -21 q 409 -113 409 -74 q 396 -157 409 -132 q 347 -213 384 -182 q 233 -280 309 -244 m 200 -17 l 67 88 l 111 127 l 111 435 l 67 485 l 22 457 l 6 479 l 167 590 l 256 491 l 383 590 l 514 478 l 563 517 l 583 492 l 528 447 l 528 144 l 578 100 l 622 133 l 644 100 l 472 -17 l 355 88 l 395 127 l 395 413 l 311 485 l 262 446 l 262 127 l 311 83 l 200 -17 z "},"ñ":{"ha":645,"x_min":6,"x_max":644,"o":"m 420 655 q 353 667 382 655 q 295 692 324 679 q 230 704 266 704 q 177 693 199 704 q 139 666 155 682 l 110 682 q 152 734 128 707 q 207 778 175 760 q 280 796 238 796 q 349 784 318 796 q 411 760 380 772 q 479 749 442 749 q 528 760 508 749 q 559 792 547 772 l 588 775 q 525 693 567 730 q 420 655 484 655 m 200 -17 l 67 88 l 111 127 l 111 435 l 67 485 l 22 457 l 6 479 l 167 590 l 256 491 l 383 590 l 514 478 l 563 517 l 583 492 l 528 447 l 528 144 l 578 100 l 622 133 l 644 100 l 472 -17 l 355 88 l 395 127 l 395 413 l 311 485 l 262 446 l 262 127 l 311 83 l 200 -17 z "},"o":{"ha":546,"x_min":17,"x_max":503,"o":"m 38 79 l 17 103 l 76 152 l 76 449 l 337 598 l 503 471 l 503 155 l 249 0 l 86 117 l 38 79 m 360 88 l 360 421 l 227 510 l 227 177 l 360 88 z "},"ó":{"ha":546,"x_min":17,"x_max":503,"o":"m 241 653 l 231 661 l 330 865 l 390 818 l 241 653 m 38 79 l 17 103 l 76 152 l 76 449 l 337 598 l 503 471 l 503 155 l 249 0 l 86 117 l 38 79 m 360 88 l 360 421 l 227 510 l 227 177 l 360 88 z "},"ŏ":{"ha":546,"x_min":17,"x_max":503,"o":"m 287 661 q 190 687 231 661 q 124 749 149 713 l 203 818 q 256 773 222 791 q 334 756 289 756 q 428 803 405 756 l 457 789 q 395 701 436 742 q 287 661 354 661 m 38 79 l 17 103 l 76 152 l 76 449 l 337 598 l 503 471 l 503 155 l 249 0 l 86 117 l 38 79 m 360 88 l 360 421 l 227 510 l 227 177 l 360 88 z "},"ô":{"ha":546,"x_min":17,"x_max":503,"o":"m 119 632 l 98 653 l 304 858 l 448 723 l 362 632 l 237 749 l 119 632 m 38 79 l 17 103 l 76 152 l 76 449 l 337 598 l 503 471 l 503 155 l 249 0 l 86 117 l 38 79 m 360 88 l 360 421 l 227 510 l 227 177 l 360 88 z "},"ö":{"ha":546,"x_min":17,"x_max":530,"o":"m 426 678 l 321 784 l 425 888 l 530 782 l 426 678 m 160 678 l 54 784 l 159 888 l 264 782 l 160 678 m 38 79 l 17 103 l 76 152 l 76 449 l 337 598 l 503 471 l 503 155 l 249 0 l 86 117 l 38 79 m 360 88 l 360 421 l 227 510 l 227 177 l 360 88 z "},"ò":{"ha":546,"x_min":17,"x_max":503,"o":"m 380 653 l 231 818 l 291 865 l 390 661 l 380 653 m 38 79 l 17 103 l 76 152 l 76 449 l 337 598 l 503 471 l 503 155 l 249 0 l 86 117 l 38 79 m 360 88 l 360 421 l 227 510 l 227 177 l 360 88 z "},"ő":{"ha":546,"x_min":17,"x_max":513,"o":"m 241 653 l 231 661 l 330 865 l 390 818 l 241 653 m 363 653 l 354 661 l 453 865 l 513 818 l 363 653 m 38 79 l 17 103 l 76 152 l 76 449 l 337 598 l 503 471 l 503 155 l 249 0 l 86 117 l 38 79 m 360 88 l 360 421 l 227 510 l 227 177 l 360 88 z "},"ō":{"ha":546,"x_min":17,"x_max":503,"o":"m 466 684 l 150 685 l 150 809 l 466 808 l 466 684 m 38 79 l 17 103 l 76 152 l 76 449 l 337 598 l 503 471 l 503 155 l 249 0 l 86 117 l 38 79 m 360 88 l 360 421 l 227 510 l 227 177 l 360 88 z "},"ø":{"ha":521,"x_min":17,"x_max":524,"o":"m 38 79 l 17 103 l 76 152 l 76 449 l 337 598 l 413 541 l 495 683 l 524 667 l 440 521 l 503 471 l 503 155 l 249 0 q 210 27 229 14 q 172 54 191 41 l 87 -95 l 58 -79 l 146 74 q 116 95 131 84 q 86 117 101 106 l 38 79 m 227 510 l 227 215 l 350 428 l 227 510 m 360 88 l 360 381 l 238 169 l 360 88 z "},"õ":{"ha":546,"x_min":17,"x_max":535,"o":"m 367 650 q 300 663 329 650 q 242 687 271 675 q 177 699 213 699 q 124 688 146 699 q 86 661 102 677 l 57 677 q 98 729 75 703 q 153 774 122 756 q 227 792 185 792 q 296 780 265 792 q 358 756 326 767 q 426 744 389 744 q 475 756 455 744 q 506 787 494 767 l 535 771 q 472 688 514 726 q 367 650 431 650 m 38 79 l 17 103 l 76 152 l 76 449 l 337 598 l 503 471 l 503 155 l 249 0 l 86 117 l 38 79 m 360 88 l 360 421 l 227 510 l 227 177 l 360 88 z "},"œ":{"ha":792,"x_min":17,"x_max":788,"o":"m 38 79 l 17 103 l 76 152 l 76 449 l 337 598 l 463 502 l 639 594 l 756 416 l 756 411 l 506 255 l 506 205 l 645 111 l 772 211 l 788 183 l 550 -12 l 406 96 l 249 0 l 86 117 l 38 79 m 360 88 l 360 421 l 227 510 l 227 177 l 360 88 m 506 492 l 506 284 l 627 360 l 528 505 l 506 492 z "},"p":{"ha":556,"x_min":17,"x_max":550,"o":"m 102 -201 l 102 91 q 42 101 72 97 l 102 150 l 102 440 q 92 472 102 454 q 56 491 82 491 q 30 481 42 491 l 17 500 l 157 594 q 236 508 208 561 l 236 486 l 382 596 l 494 497 l 529 525 l 550 500 l 506 465 l 506 144 q 314 9 404 86 q 236 49 277 31 l 236 -3 q 248 -59 236 -37 q 289 -86 260 -81 l 289 -102 l 124 -201 l 102 -201 m 286 487 l 236 448 l 236 134 q 362 80 300 110 l 362 424 l 286 487 z "},"þ":{"ha":566,"x_min":17,"x_max":550,"o":"m 102 -201 l 102 91 q 42 101 72 97 l 102 150 l 102 657 q 90 705 102 686 q 56 723 79 723 q 30 713 41 723 l 17 731 l 157 825 q 236 740 208 793 l 236 486 l 382 596 l 494 497 l 529 525 l 550 500 l 506 465 l 506 144 q 314 9 404 86 q 236 49 277 31 l 236 -3 q 248 -59 236 -37 q 289 -86 260 -81 l 289 -102 l 124 -201 l 102 -201 m 286 487 l 236 448 l 236 134 q 362 80 300 110 l 362 424 l 286 487 z "},"q":{"ha":546,"x_min":61,"x_max":559,"o":"m 325 -198 l 325 91 l 179 -3 l 61 106 l 61 449 l 323 597 l 498 492 l 542 520 l 559 498 l 481 448 l 481 13 q 491 -23 481 -8 q 536 -47 501 -37 l 536 -65 l 347 -198 l 325 -198 m 204 168 l 273 95 l 325 130 l 325 431 l 204 502 l 204 168 z "},"r":{"ha":466,"x_min":8,"x_max":480,"o":"m 219 -6 l 91 94 l 52 66 l 36 88 l 108 139 l 108 443 l 69 493 l 24 465 l 8 488 l 163 594 l 249 502 l 329 594 l 341 594 q 394 565 359 565 q 424 573 411 565 q 446 594 438 582 l 480 594 q 452 487 473 522 q 406 442 431 453 q 365 432 382 432 q 318 442 346 432 q 262 480 289 453 l 262 139 l 307 103 l 369 145 l 391 119 l 219 -6 z "},"ŕ":{"ha":466,"x_min":8,"x_max":480,"o":"m 241 671 l 231 679 l 330 883 l 390 837 l 241 671 m 219 -6 l 91 94 l 52 66 l 36 88 l 108 139 l 108 443 l 69 493 l 24 465 l 8 488 l 163 594 l 249 502 l 329 594 l 341 594 q 394 565 359 565 q 424 573 411 565 q 446 594 438 582 l 480 594 q 452 487 473 522 q 406 442 431 453 q 365 432 382 432 q 318 442 346 432 q 262 480 289 453 l 262 139 l 307 103 l 369 145 l 391 119 l 219 -6 z "},"ř":{"ha":466,"x_min":8,"x_max":508,"o":"m 297 676 l 141 819 l 226 911 l 362 785 l 486 911 l 508 890 l 297 676 m 219 -6 l 91 94 l 52 66 l 36 88 l 108 139 l 108 443 l 69 493 l 24 465 l 8 488 l 163 594 l 249 502 l 329 594 l 341 594 q 394 565 359 565 q 424 573 411 565 q 446 594 438 582 l 480 594 q 452 487 473 522 q 406 442 431 453 q 365 432 382 432 q 318 442 346 432 q 262 480 289 453 l 262 139 l 307 103 l 369 145 l 391 119 l 219 -6 z "},"ŗ":{"ha":466,"x_min":8,"x_max":480,"o":"m 119 -233 l 112 -225 q 163 -192 134 -215 q 192 -126 192 -168 q 158 -56 192 -82 q 84 -20 124 -29 l 209 39 q 267 0 240 27 q 295 -66 295 -27 q 283 -109 295 -84 q 233 -166 271 -134 q 119 -233 196 -197 m 219 -6 l 91 94 l 52 66 l 36 88 l 108 139 l 108 443 l 69 493 l 24 465 l 8 488 l 163 594 l 249 502 l 329 594 l 341 594 q 394 565 359 565 q 424 573 411 565 q 446 594 438 582 l 480 594 q 452 487 473 522 q 406 442 431 453 q 365 432 382 432 q 318 442 346 432 q 262 480 289 453 l 262 139 l 307 103 l 369 145 l 391 119 l 219 -6 z "},"ꝛ":{"ha":374,"x_min":45,"x_max":334,"o":"m 234 -1 l 71 106 q 90 130 71 106 q 136 192 110 154 q 182 271 162 229 q 201 351 201 314 q 188 418 201 396 q 155 448 174 441 q 123 456 137 456 q 87 439 103 456 q 72 406 72 422 l 45 424 l 146 593 q 174 579 146 593 q 240 541 203 566 q 305 479 277 515 q 333 396 333 442 q 309 310 333 348 q 251 240 285 271 q 184 184 216 209 l 291 117 l 317 141 l 334 124 l 234 -1 z "},"s":{"ha":505,"x_min":34,"x_max":471,"o":"m 106 -60 q 55 -21 76 -49 q 34 47 34 7 q 54 122 34 83 q 144 222 75 160 l 56 292 l 56 454 l 295 593 q 329 558 308 574 q 380 542 351 542 q 419 556 403 542 q 438 590 435 569 l 439 590 l 439 590 l 471 590 q 442 473 464 524 q 370 376 419 421 l 470 302 l 470 127 l 241 -12 q 208 26 229 9 q 155 43 186 43 q 118 31 135 43 q 101 -1 101 20 q 117 -30 101 -21 l 106 -60 m 205 367 l 253 318 l 338 391 q 363 415 351 402 q 388 444 376 428 q 330 433 361 433 q 258 453 293 433 q 205 517 223 473 l 205 367 m 185 166 q 270 138 235 166 q 321 76 304 111 l 321 227 l 256 278 l 214 242 q 155 190 184 215 q 104 138 125 164 q 185 166 139 166 z "},"ś":{"ha":505,"x_min":34,"x_max":471,"o":"m 234 653 l 225 661 l 323 865 l 383 818 l 234 653 m 106 -60 q 55 -21 76 -49 q 34 47 34 7 q 54 122 34 83 q 144 222 75 160 l 56 292 l 56 454 l 295 593 q 329 558 308 574 q 380 542 351 542 q 419 556 403 542 q 438 590 435 569 l 439 590 l 439 590 l 471 590 q 442 473 464 524 q 370 376 419 421 l 470 302 l 470 127 l 241 -12 q 208 26 229 9 q 155 43 186 43 q 118 31 135 43 q 101 -1 101 20 q 117 -30 101 -21 l 106 -60 m 205 367 l 253 318 l 338 391 q 363 415 351 402 q 388 444 376 428 q 330 433 361 433 q 258 453 293 433 q 205 517 223 473 l 205 367 m 185 166 q 270 138 235 166 q 321 76 304 111 l 321 227 l 256 278 l 214 242 q 155 190 184 215 q 104 138 125 164 q 185 166 139 166 z "},"š":{"ha":505,"x_min":34,"x_max":501,"o":"m 291 657 l 134 801 l 219 892 l 355 766 l 479 892 l 501 872 l 291 657 m 106 -60 q 55 -21 76 -49 q 34 47 34 7 q 54 122 34 83 q 144 222 75 160 l 56 292 l 56 454 l 295 593 q 329 558 308 574 q 380 542 351 542 q 419 556 403 542 q 438 590 435 569 l 439 590 l 439 590 l 471 590 q 442 473 464 524 q 370 376 419 421 l 470 302 l 470 127 l 241 -12 q 208 26 229 9 q 155 43 186 43 q 118 31 135 43 q 101 -1 101 20 q 117 -30 101 -21 l 106 -60 m 205 367 l 253 318 l 338 391 q 363 415 351 402 q 388 444 376 428 q 330 433 361 433 q 258 453 293 433 q 205 517 223 473 l 205 367 m 185 166 q 270 138 235 166 q 321 76 304 111 l 321 227 l 256 278 l 214 242 q 155 190 184 215 q 104 138 125 164 q 185 166 139 166 z "},"ş":{"ha":505,"x_min":34,"x_max":471,"o":"m 182 -247 l 175 -238 q 226 -205 197 -229 q 255 -140 255 -182 q 220 -69 255 -96 q 147 -34 186 -43 l 272 25 q 330 -14 302 13 q 358 -80 358 -41 q 345 -123 358 -98 q 296 -179 333 -148 q 182 -247 258 -211 m 106 -60 q 55 -21 76 -49 q 34 47 34 7 q 54 122 34 83 q 144 222 75 160 l 56 292 l 56 454 l 295 593 q 329 558 308 574 q 380 542 351 542 q 419 556 403 542 q 438 590 435 569 l 439 590 l 439 590 l 471 590 q 442 473 464 524 q 370 376 419 421 l 470 302 l 470 127 l 241 -12 q 208 26 229 9 q 155 43 186 43 q 118 31 135 43 q 101 -1 101 20 q 117 -30 101 -21 l 106 -60 m 205 367 l 253 318 l 338 391 q 363 415 351 402 q 388 444 376 428 q 330 433 361 433 q 258 453 293 433 q 205 517 223 473 l 205 367 m 185 166 q 270 138 235 166 q 321 76 304 111 l 321 227 l 256 278 l 214 242 q 155 190 184 215 q 104 138 125 164 q 185 166 139 166 z "},"ŝ":{"ha":505,"x_min":34,"x_max":471,"o":"m 112 632 l 91 653 l 297 858 l 441 723 l 355 632 l 230 749 l 112 632 m 106 -60 q 55 -21 76 -49 q 34 47 34 7 q 54 122 34 83 q 144 222 75 160 l 56 292 l 56 454 l 295 593 q 329 558 308 574 q 380 542 351 542 q 419 556 403 542 q 438 590 435 569 l 439 590 l 439 590 l 471 590 q 442 473 464 524 q 370 376 419 421 l 470 302 l 470 127 l 241 -12 q 208 26 229 9 q 155 43 186 43 q 118 31 135 43 q 101 -1 101 20 q 117 -30 101 -21 l 106 -60 m 205 367 l 253 318 l 338 391 q 363 415 351 402 q 388 444 376 428 q 330 433 361 433 q 258 453 293 433 q 205 517 223 473 l 205 367 m 185 166 q 270 138 235 166 q 321 76 304 111 l 321 227 l 256 278 l 214 242 q 155 190 184 215 q 104 138 125 164 q 185 166 139 166 z "},"ß":{"ha":634,"x_min":17,"x_max":610,"o":"m 200 0 l 79 105 l 34 78 l 17 100 l 95 149 l 95 149 l 95 149 l 95 456 q 76 500 95 490 q 39 510 58 510 l 39 528 l 95 587 l 95 736 l 353 882 l 508 786 l 365 706 l 238 785 l 238 488 l 376 615 l 574 479 l 468 383 q 560 296 529 345 q 600 200 590 247 q 610 125 610 154 q 578 -19 610 42 q 493 -116 545 -79 q 381 -170 441 -154 q 267 -178 322 -185 l 266 -150 q 368 -113 324 -145 q 436 -35 412 -82 q 461 66 461 13 q 417 197 461 144 q 316 272 374 251 l 444 390 l 288 501 l 238 456 l 238 139 l 304 83 l 343 104 l 360 82 l 200 0 z "},"ſ":{"ha":383,"x_min":17,"x_max":508,"o":"m 200 0 l 79 105 l 34 78 l 17 100 l 95 149 l 95 149 l 95 149 l 95 456 q 76 500 95 490 q 39 510 58 510 l 39 528 l 95 587 l 95 736 l 353 882 l 508 786 l 365 706 l 238 785 l 238 139 l 304 83 l 343 104 l 360 82 l 200 0 z "},"t":{"ha":397,"x_min":24,"x_max":395,"o":"m 207 -1 l 84 104 l 41 76 l 24 98 l 102 148 l 102 427 q 83 471 102 461 q 46 481 64 481 l 46 499 l 235 688 l 257 688 l 257 554 l 395 554 l 340 491 l 257 491 l 257 138 l 311 82 l 350 103 l 366 81 l 207 -1 z "},"ť":{"ha":397,"x_min":24,"x_max":433,"o":"m 363 653 q 348 668 348 653 q 353 686 348 678 q 358 720 358 694 q 342 789 358 764 q 307 830 326 815 q 271 860 287 845 q 256 900 256 875 q 274 944 256 926 q 317 962 292 962 q 366 942 339 962 q 413 888 394 922 q 433 809 433 853 q 416 726 433 762 q 375 659 398 691 q 363 653 370 653 m 207 -1 l 84 104 l 41 76 l 24 98 l 102 148 l 102 427 q 83 471 102 461 q 46 481 64 481 l 46 499 l 235 688 l 257 688 l 257 554 l 395 554 l 340 491 l 257 491 l 257 138 l 311 82 l 350 103 l 366 81 l 207 -1 z "},"ţ":{"ha":397,"x_min":24,"x_max":395,"o":"m 97 -264 l 90 -256 q 141 -223 112 -247 q 170 -157 170 -199 q 136 -87 170 -113 q 63 -51 102 -60 l 188 8 q 245 -31 218 -5 q 273 -97 273 -58 q 261 -141 273 -116 q 211 -197 249 -166 q 97 -264 174 -228 m 207 -1 l 84 104 l 41 76 l 24 98 l 102 148 l 102 427 q 83 471 102 461 q 46 481 64 481 l 46 499 l 235 688 l 257 688 l 257 554 l 395 554 l 340 491 l 257 491 l 257 138 l 311 82 l 350 103 l 366 81 l 207 -1 z "},"u":{"ha":603,"x_min":3,"x_max":601,"o":"m 227 -5 l 69 127 l 106 157 l 106 429 l 106 429 q 96 476 106 456 q 60 495 86 495 q 34 489 45 495 q 15 476 23 483 l 3 492 l 153 589 q 219 540 193 573 q 244 450 244 507 l 244 171 l 317 103 l 372 144 l 372 199 l 372 438 l 311 491 l 420 590 l 497 524 l 535 554 l 554 530 l 505 490 l 505 214 l 506 167 q 513 119 506 140 q 537 87 520 98 l 580 123 l 601 94 l 462 -2 q 405 27 431 -1 q 374 110 380 54 l 227 -5 z "},"ú":{"ha":603,"x_min":3,"x_max":601,"o":"m 269 667 l 259 675 l 358 878 l 418 832 l 269 667 m 227 -5 l 69 127 l 106 157 l 106 429 l 106 429 q 96 476 106 456 q 60 495 86 495 q 34 489 45 495 q 15 476 23 483 l 3 492 l 153 589 q 219 540 193 573 q 244 450 244 507 l 244 171 l 317 103 l 372 144 l 372 199 l 372 438 l 311 491 l 420 590 l 497 524 l 535 554 l 554 530 l 505 490 l 505 214 l 506 167 q 513 119 506 140 q 537 87 520 98 l 580 123 l 601 94 l 462 -2 q 405 27 431 -1 q 374 110 380 54 l 227 -5 z "},"ŭ":{"ha":603,"x_min":3,"x_max":601,"o":"m 227 -5 l 69 127 l 106 157 l 106 429 l 106 429 q 96 476 106 456 q 60 495 86 495 q 34 489 45 495 q 15 476 23 483 l 3 492 l 153 589 q 219 540 193 573 q 244 450 244 507 l 244 171 l 317 103 l 372 144 l 372 199 l 372 438 l 311 491 l 420 590 l 497 524 l 535 554 l 554 530 l 505 490 l 505 214 l 506 167 q 513 119 506 140 q 537 87 520 98 l 580 123 l 601 94 l 462 -2 q 405 27 431 -1 q 374 110 380 54 l 227 -5 m 315 675 q 218 701 259 675 q 152 763 177 727 l 230 832 q 284 787 250 804 q 362 770 317 770 q 456 817 433 770 l 485 803 q 423 715 464 756 q 315 675 382 675 z "},"û":{"ha":603,"x_min":3,"x_max":601,"o":"m 147 646 l 126 667 l 332 872 l 476 737 l 390 646 l 265 763 l 147 646 m 227 -5 l 69 127 l 106 157 l 106 429 l 106 429 q 96 476 106 456 q 60 495 86 495 q 34 489 45 495 q 15 476 23 483 l 3 492 l 153 589 q 219 540 193 573 q 244 450 244 507 l 244 171 l 317 103 l 372 144 l 372 199 l 372 438 l 311 491 l 420 590 l 497 524 l 535 554 l 554 530 l 505 490 l 505 214 l 506 167 q 513 119 506 140 q 537 87 520 98 l 580 123 l 601 94 l 462 -2 q 405 27 431 -1 q 374 110 380 54 l 227 -5 z "},"ü":{"ha":603,"x_min":3,"x_max":601,"o":"m 454 692 l 348 797 l 453 902 l 558 796 l 454 692 m 188 692 l 82 797 l 186 902 l 292 796 l 188 692 m 227 -5 l 69 127 l 106 157 l 106 429 l 106 429 q 96 476 106 456 q 60 495 86 495 q 34 489 45 495 q 15 476 23 483 l 3 492 l 153 589 q 219 540 193 573 q 244 450 244 507 l 244 171 l 317 103 l 372 144 l 372 199 l 372 438 l 311 491 l 420 590 l 497 524 l 535 554 l 554 530 l 505 490 l 505 214 l 506 167 q 513 119 506 140 q 537 87 520 98 l 580 123 l 601 94 l 462 -2 q 405 27 431 -1 q 374 110 380 54 l 227 -5 z "},"ù":{"ha":603,"x_min":3,"x_max":601,"o":"m 407 667 l 259 832 l 318 878 l 418 675 l 407 667 m 227 -5 l 69 127 l 106 157 l 106 429 l 106 429 q 96 476 106 456 q 60 495 86 495 q 34 489 45 495 q 15 476 23 483 l 3 492 l 153 589 q 219 540 193 573 q 244 450 244 507 l 244 171 l 317 103 l 372 144 l 372 199 l 372 438 l 311 491 l 420 590 l 497 524 l 535 554 l 554 530 l 505 490 l 505 214 l 506 167 q 513 119 506 140 q 537 87 520 98 l 580 123 l 601 94 l 462 -2 q 405 27 431 -1 q 374 110 380 54 l 227 -5 z "},"ű":{"ha":603,"x_min":3,"x_max":601,"o":"m 269 667 l 259 675 l 358 878 l 418 832 l 269 667 m 391 667 l 382 675 l 480 878 l 541 832 l 391 667 m 227 -5 l 69 127 l 106 157 l 106 429 l 106 429 q 96 476 106 456 q 60 495 86 495 q 34 489 45 495 q 15 476 23 483 l 3 492 l 153 589 q 219 540 193 573 q 244 450 244 507 l 244 171 l 317 103 l 372 144 l 372 199 l 372 438 l 311 491 l 420 590 l 497 524 l 535 554 l 554 530 l 505 490 l 505 214 l 506 167 q 513 119 506 140 q 537 87 520 98 l 580 123 l 601 94 l 462 -2 q 405 27 431 -1 q 374 110 380 54 l 227 -5 z "},"ū":{"ha":603,"x_min":3,"x_max":601,"o":"m 494 698 l 178 699 l 178 823 l 494 822 l 494 698 m 227 -5 l 69 127 l 106 157 l 106 429 l 106 429 q 96 476 106 456 q 60 495 86 495 q 34 489 45 495 q 15 476 23 483 l 3 492 l 153 589 q 219 540 193 573 q 244 450 244 507 l 244 171 l 317 103 l 372 144 l 372 199 l 372 438 l 311 491 l 420 590 l 497 524 l 535 554 l 554 530 l 505 490 l 505 214 l 506 167 q 513 119 506 140 q 537 87 520 98 l 580 123 l 601 94 l 462 -2 q 405 27 431 -1 q 374 110 380 54 l 227 -5 z "},"ų":{"ha":603,"x_min":3,"x_max":601,"o":"m 560 -316 q 516 -285 545 -306 q 457 -234 487 -264 q 406 -166 427 -204 q 384 -86 384 -128 q 410 3 384 -35 q 470 61 436 41 l 595 -21 q 520 -73 552 -35 q 487 -169 487 -112 q 510 -251 487 -216 q 567 -303 534 -285 l 560 -316 m 227 -5 l 69 127 l 106 157 l 106 429 l 106 429 q 96 476 106 456 q 60 495 86 495 q 34 489 45 495 q 15 476 23 483 l 3 492 l 153 589 q 219 540 193 573 q 244 450 244 507 l 244 171 l 317 103 l 372 144 l 372 199 l 372 438 l 311 491 l 420 590 l 497 524 l 535 554 l 554 530 l 505 490 l 505 214 l 506 167 q 513 119 506 140 q 537 87 520 98 l 580 123 l 601 94 l 462 -2 q 405 27 431 -1 q 374 110 380 54 l 227 -5 z "},"ů":{"ha":603,"x_min":3,"x_max":601,"o":"m 296 579 q 219 611 251 579 q 188 688 188 642 q 219 764 188 733 q 296 796 251 796 q 373 764 341 796 q 405 688 405 733 q 373 611 405 642 q 296 579 341 579 m 296 611 q 350 634 328 611 q 373 688 373 656 q 350 741 373 719 q 296 764 328 764 q 242 741 265 764 q 220 688 220 719 q 242 634 220 656 q 296 611 265 611 m 227 -5 l 69 127 l 106 157 l 106 429 l 106 429 q 96 476 106 456 q 60 495 86 495 q 34 489 45 495 q 15 476 23 483 l 3 492 l 153 589 q 219 540 193 573 q 244 450 244 507 l 244 171 l 317 103 l 372 144 l 372 199 l 372 438 l 311 491 l 420 590 l 497 524 l 535 554 l 554 530 l 505 490 l 505 214 l 506 167 q 513 119 506 140 q 537 87 520 98 l 580 123 l 601 94 l 462 -2 q 405 27 431 -1 q 374 110 380 54 l 227 -5 z "},"ũ":{"ha":603,"x_min":3,"x_max":601,"o":"m 395 664 q 328 677 356 664 q 270 701 299 689 q 205 713 241 713 q 152 702 174 713 q 113 675 130 691 l 84 691 q 126 743 103 716 q 181 788 149 770 q 255 806 213 806 q 323 793 293 806 q 385 770 354 781 q 454 758 417 758 q 502 770 483 758 q 534 801 522 781 l 563 785 q 500 702 542 740 q 395 664 458 664 m 227 -5 l 69 127 l 106 157 l 106 429 l 106 429 q 96 476 106 456 q 60 495 86 495 q 34 489 45 495 q 15 476 23 483 l 3 492 l 153 589 q 219 540 193 573 q 244 450 244 507 l 244 171 l 317 103 l 372 144 l 372 199 l 372 438 l 311 491 l 420 590 l 497 524 l 535 554 l 554 530 l 505 490 l 505 214 l 506 167 q 513 119 506 140 q 537 87 520 98 l 580 123 l 601 94 l 462 -2 q 405 27 431 -1 q 374 110 380 54 l 227 -5 z "},"v":{"ha":595,"x_min":5,"x_max":578,"o":"m 76 50 l 57 75 l 109 117 l 109 336 q 105 402 109 378 q 94 441 102 426 q 69 471 86 456 q 27 516 50 492 q 5 579 5 541 q 30 649 5 620 q 82 692 54 677 q 159 715 118 712 l 164 693 q 129 672 145 688 q 113 634 113 657 q 130 590 113 608 q 170 560 147 573 q 208 532 192 546 q 245 472 236 507 q 252 385 253 436 l 252 142 l 356 75 l 390 95 l 390 447 l 339 494 l 461 594 l 578 491 l 535 456 l 535 142 l 270 -16 l 112 80 l 76 50 z "},"w":{"ha":829,"x_min":7,"x_max":841,"o":"m 79 50 l 58 75 l 110 117 l 110 363 q 101 428 110 406 q 72 471 91 450 q 30 516 52 492 q 7 579 7 541 q 50 669 7 628 q 160 715 94 709 l 166 693 q 131 672 147 688 q 116 634 116 657 q 135 588 116 605 q 172 559 154 571 q 225 515 207 537 q 249 461 243 493 q 255 374 255 428 l 255 142 l 346 82 l 368 95 l 368 447 l 317 494 l 438 594 l 556 491 l 513 456 l 513 142 l 604 82 l 628 96 l 628 447 l 578 494 l 699 594 l 772 530 l 821 571 l 841 545 l 773 490 l 773 126 l 505 -16 l 392 65 l 247 -16 l 115 79 l 79 50 z "},"ŵ":{"ha":829,"x_min":7,"x_max":841,"o":"m 345 632 l 324 653 l 530 858 l 674 723 l 588 632 l 463 749 l 345 632 m 79 50 l 58 75 l 110 117 l 110 363 q 101 428 110 406 q 72 471 91 450 q 30 516 52 492 q 7 579 7 541 q 50 669 7 628 q 160 715 94 709 l 166 693 q 131 672 147 688 q 116 634 116 657 q 135 588 116 605 q 172 559 154 571 q 225 515 207 537 q 249 461 243 493 q 255 374 255 428 l 255 142 l 346 82 l 368 95 l 368 447 l 317 494 l 438 594 l 556 491 l 513 456 l 513 142 l 604 82 l 628 96 l 628 447 l 578 494 l 699 594 l 772 530 l 821 571 l 841 545 l 773 490 l 773 126 l 505 -16 l 392 65 l 247 -16 l 115 79 l 79 50 z "},"ƿ":{"ha":556,"x_min":17,"x_max":550,"o":"m 102 -201 l 102 -10 l 42 -1 l 102 50 l 102 440 q 90 476 102 462 q 56 491 78 491 q 30 481 42 491 l 17 500 l 157 594 q 236 508 208 561 l 236 486 l 382 596 l 494 497 l 529 525 l 550 500 l 506 465 l 506 193 l 236 19 l 236 -3 q 248 -59 236 -37 q 289 -86 260 -81 l 289 -102 l 124 -201 l 102 -201 m 236 104 l 362 186 l 362 424 l 286 487 l 236 448 l 236 104 z "},"x":{"ha":615,"x_min":31,"x_max":594,"o":"m 41 8 q 55 84 43 47 q 93 145 67 122 q 161 168 118 168 q 194 164 178 168 q 222 154 209 161 l 251 226 l 146 464 q 130 488 140 477 q 102 500 120 500 q 73 491 86 500 q 50 476 60 483 l 31 503 l 178 603 l 271 547 l 330 420 l 398 590 l 426 590 l 426 590 l 426 590 q 478 563 444 563 q 510 571 497 563 q 531 590 523 579 l 565 590 q 550 516 560 553 q 517 455 539 479 q 453 431 494 431 q 409 437 429 431 q 372 451 389 443 l 346 385 l 464 133 q 476 114 469 123 q 498 105 484 105 q 521 113 507 105 q 563 142 536 120 l 594 113 l 432 0 l 321 72 l 269 189 l 198 8 l 198 9 l 198 8 l 185 8 q 125 37 162 37 q 90 28 105 37 q 65 8 75 20 l 41 8 z "},"y":{"ha":600,"x_min":6,"x_max":572,"o":"m 278 0 l 111 116 l 111 441 l 68 491 l 22 463 l 6 485 l 161 590 l 250 485 l 250 189 l 384 104 q 384 119 384 110 l 383 441 l 322 515 l 433 590 l 538 466 l 538 161 q 546 91 538 113 q 563 57 554 69 q 572 23 572 44 q 558 -17 572 -2 q 525 -41 544 -31 q 492 -61 507 -51 l 278 -212 q 230 -167 259 -185 q 160 -149 200 -149 q 72 -178 111 -149 l 56 -167 q 124 -78 75 -116 q 240 -39 172 -39 q 383 -100 325 -39 q 413 -84 402 -98 q 425 -50 425 -69 q 417 -11 425 -25 q 400 21 410 3 q 387 75 391 39 l 278 0 z "},"ý":{"ha":600,"x_min":6,"x_max":572,"o":"m 275 662 l 266 670 l 365 874 l 425 828 l 275 662 m 278 0 l 111 116 l 111 441 l 68 491 l 22 463 l 6 485 l 161 590 l 250 485 l 250 189 l 384 104 q 384 119 384 110 l 383 441 l 322 515 l 433 590 l 538 466 l 538 161 q 546 91 538 113 q 563 57 554 69 q 572 23 572 44 q 558 -17 572 -2 q 525 -41 544 -31 q 492 -61 507 -51 l 278 -212 q 230 -167 259 -185 q 160 -149 200 -149 q 72 -178 111 -149 l 56 -167 q 124 -78 75 -116 q 240 -39 172 -39 q 383 -100 325 -39 q 413 -84 402 -98 q 425 -50 425 -69 q 417 -11 425 -25 q 400 21 410 3 q 387 75 391 39 l 278 0 z "},"ŷ":{"ha":600,"x_min":6,"x_max":572,"o":"m 154 641 l 133 662 l 339 867 l 483 733 l 397 641 l 272 758 l 154 641 m 278 0 l 111 116 l 111 441 l 68 491 l 22 463 l 6 485 l 161 590 l 250 485 l 250 189 l 384 104 q 384 119 384 110 l 383 441 l 322 515 l 433 590 l 538 466 l 538 161 q 546 91 538 113 q 563 57 554 69 q 572 23 572 44 q 558 -17 572 -2 q 525 -41 544 -31 q 492 -61 507 -51 l 278 -212 q 230 -167 259 -185 q 160 -149 200 -149 q 72 -178 111 -149 l 56 -167 q 124 -78 75 -116 q 240 -39 172 -39 q 383 -100 325 -39 q 413 -84 402 -98 q 425 -50 425 -69 q 417 -11 425 -25 q 400 21 410 3 q 387 75 391 39 l 278 0 z "},"ÿ":{"ha":600,"x_min":6,"x_max":572,"o":"m 461 688 l 355 793 l 459 897 l 565 792 l 461 688 m 194 688 l 89 793 l 193 897 l 299 792 l 194 688 m 278 0 l 111 116 l 111 441 l 68 491 l 22 463 l 6 485 l 161 590 l 250 485 l 250 189 l 384 104 q 384 119 384 110 l 383 441 l 322 515 l 433 590 l 538 466 l 538 161 q 546 91 538 113 q 563 57 554 69 q 572 23 572 44 q 558 -17 572 -2 q 525 -41 544 -31 q 492 -61 507 -51 l 278 -212 q 230 -167 259 -185 q 160 -149 200 -149 q 72 -178 111 -149 l 56 -167 q 124 -78 75 -116 q 240 -39 172 -39 q 383 -100 325 -39 q 413 -84 402 -98 q 425 -50 425 -69 q 417 -11 425 -25 q 400 21 410 3 q 387 75 391 39 l 278 0 z "},"z":{"ha":500,"x_min":16,"x_max":488,"o":"m 28 0 l 16 10 q 72 130 36 73 q 154 242 109 188 l 161 250 l 83 250 l 56 222 l 38 238 l 133 350 l 249 350 l 328 438 q 221 421 275 421 q 142 430 177 421 q 72 455 106 439 l 44 411 l 22 421 l 111 588 q 197 560 153 572 q 295 549 241 549 q 381 557 340 549 q 455 588 422 566 l 466 572 q 388 455 431 509 q 300 350 345 400 l 383 350 l 411 377 l 427 360 l 333 250 l 212 250 q 190 225 200 237 q 168 199 179 212 l 133 155 q 251 172 191 172 q 350 161 304 172 q 439 127 395 149 l 471 167 l 488 155 l 366 6 q 280 36 326 23 q 179 50 234 50 q 94 36 131 50 q 28 0 58 23 z "},"ź":{"ha":500,"x_min":16,"x_max":488,"o":"m 184 657 l 175 666 l 273 869 l 333 823 l 184 657 m 28 0 l 16 10 q 72 130 36 73 q 154 242 109 188 l 161 250 l 83 250 l 56 222 l 38 238 l 133 350 l 249 350 l 328 438 q 221 421 275 421 q 142 430 177 421 q 72 455 106 439 l 44 411 l 22 421 l 111 588 q 197 560 153 572 q 295 549 241 549 q 381 557 340 549 q 455 588 422 566 l 466 572 q 388 455 431 509 q 300 350 345 400 l 383 350 l 411 377 l 427 360 l 333 250 l 212 250 q 190 225 200 237 q 168 199 179 212 l 133 155 q 251 172 191 172 q 350 161 304 172 q 439 127 395 149 l 471 167 l 488 155 l 366 6 q 280 36 326 23 q 179 50 234 50 q 94 36 131 50 q 28 0 58 23 z "},"ž":{"ha":500,"x_min":16,"x_max":488,"o":"m 241 662 l 84 806 l 169 897 l 306 771 l 429 897 l 451 876 l 241 662 m 28 0 l 16 10 q 72 130 36 73 q 154 242 109 188 l 161 250 l 83 250 l 56 222 l 38 238 l 133 350 l 249 350 l 328 438 q 221 421 275 421 q 142 430 177 421 q 72 455 106 439 l 44 411 l 22 421 l 111 588 q 197 560 153 572 q 295 549 241 549 q 381 557 340 549 q 455 588 422 566 l 466 572 q 388 455 431 509 q 300 350 345 400 l 383 350 l 411 377 l 427 360 l 333 250 l 212 250 q 190 225 200 237 q 168 199 179 212 l 133 155 q 251 172 191 172 q 350 161 304 172 q 439 127 395 149 l 471 167 l 488 155 l 366 6 q 280 36 326 23 q 179 50 234 50 q 94 36 131 50 q 28 0 58 23 z "},"ż":{"ha":500,"x_min":16,"x_max":488,"o":"m 242 692 l 137 797 l 241 902 l 346 796 l 242 692 m 28 0 l 16 10 q 72 130 36 73 q 154 242 109 188 l 161 250 l 83 250 l 56 222 l 38 238 l 133 350 l 249 350 l 328 438 q 221 421 275 421 q 142 430 177 421 q 72 455 106 439 l 44 411 l 22 421 l 111 588 q 197 560 153 572 q 295 549 241 549 q 381 557 340 549 q 455 588 422 566 l 466 572 q 388 455 431 509 q 300 350 345 400 l 383 350 l 411 377 l 427 360 l 333 250 l 212 250 q 190 225 200 237 q 168 199 179 212 l 133 155 q 251 172 191 172 q 350 161 304 172 q 439 127 395 149 l 471 167 l 488 155 l 366 6 q 280 36 326 23 q 179 50 234 50 q 94 36 131 50 q 28 0 58 23 z "},"ﬁ":{"ha":639,"x_min":17,"x_max":656,"o":"m 490 -6 l 378 94 l 200 0 l 79 105 l 34 78 l 17 100 l 95 149 l 95 456 q 80 497 95 481 q 39 510 65 512 l 39 528 l 95 587 l 95 736 l 353 882 l 550 763 l 407 683 l 238 785 l 238 583 l 434 583 l 539 582 l 539 139 l 578 100 l 628 133 l 656 111 l 490 -6 m 238 139 l 304 83 l 395 139 l 395 444 q 384 497 395 480 q 360 516 374 513 q 334 520 346 520 l 238 520 l 238 139 z "},"ﬂ":{"ha":664,"x_min":17,"x_max":662,"o":"m 200 0 l 79 105 l 34 78 l 17 100 l 95 149 l 95 149 l 95 149 l 95 456 q 80 497 95 481 q 39 510 65 512 l 39 528 l 95 587 l 95 736 l 353 882 l 458 816 l 545 883 l 567 883 l 567 139 l 612 94 l 645 122 l 662 100 l 517 0 l 396 105 l 360 82 l 360 82 l 354 79 l 351 78 l 351 78 l 200 0 m 365 706 l 238 785 l 238 583 l 412 583 l 412 645 q 398 684 412 672 q 366 706 383 696 l 365 706 m 238 139 l 304 83 l 336 100 l 412 149 l 412 520 l 238 520 l 238 139 z "},"ª":{"ha":426,"x_min":34,"x_max":429,"o":"m 150 436 q 71 472 109 442 q 34 551 34 502 q 134 676 34 623 q 83 708 104 689 q 63 758 63 728 q 80 804 63 787 q 117 832 98 822 l 213 882 l 341 800 l 376 828 l 391 809 l 346 772 l 346 553 l 388 512 l 425 537 l 429 520 l 308 436 l 242 503 l 150 436 m 88 764 q 113 718 88 736 q 174 689 139 700 q 238 671 208 678 l 238 752 l 135 816 q 102 793 116 806 q 88 764 88 781 m 139 630 q 148 578 139 605 q 175 531 156 550 q 220 512 193 512 q 238 514 233 512 l 238 646 q 194 656 218 650 q 149 670 171 662 q 142 653 146 663 q 139 630 139 642 z "},"º":{"ha":410,"x_min":13,"x_max":377,"o":"m 186 429 l 65 517 l 28 488 l 13 507 l 58 543 l 58 766 l 253 878 l 377 782 l 377 546 l 186 429 m 270 495 l 270 745 l 170 813 l 170 563 l 270 495 z "},"⁄":{"ha":214,"x_min":-351,"x_max":579,"o":"m -219 -50 l -351 -50 l 444 917 l 579 917 l -219 -50 z "}," ":{"ha":291,"x_min":0,"x_max":0,"o":""}," ":{"ha":291,"x_min":0,"x_max":0,"o":""}," ":{"ha":581,"x_min":0,"x_max":0,"o":""}," ":{"ha":1256,"x_min":0,"x_max":0,"o":""}," ":{"ha":35,"x_min":0,"x_max":0,"o":""},".":{"ha":302,"x_min":46,"x_max":256,"o":"m 152 -13 l 46 93 l 150 197 l 256 91 l 152 -13 z "},",":{"ha":273,"x_min":17,"x_max":260,"o":"m 84 -178 l 78 -166 q 134 -114 112 -148 q 156 -31 156 -80 q 148 25 156 -3 q 122 72 139 53 q 78 91 104 91 q 60 89 67 91 q 47 81 53 86 l 32 72 l 17 96 l 175 199 q 234 141 207 178 q 260 52 260 103 q 251 -1 260 32 q 204 -79 241 -34 q 84 -178 167 -124 z "},":":{"ha":256,"x_min":46,"x_max":256,"o":"m 152 381 l 46 486 l 150 590 l 256 485 l 152 381 m 152 -13 l 46 93 l 150 197 l 256 91 l 152 -13 z "},";":{"ha":296,"x_min":30,"x_max":273,"o":"m 152 311 l 46 417 l 150 521 l 256 416 l 152 311 m 97 -178 l 90 -166 q 147 -114 125 -148 q 169 -31 169 -80 q 160 25 169 -3 q 134 72 152 53 q 90 91 117 91 q 73 89 80 91 q 60 81 66 86 l 45 72 l 30 96 l 188 199 q 247 141 220 178 q 273 52 273 103 q 263 -1 273 32 q 216 -79 253 -34 q 97 -178 179 -124 z "},"…":{"ha":735,"x_min":52,"x_max":683,"o":"m 157 -13 l 52 93 l 156 197 l 262 91 l 157 -13 m 369 -13 l 264 93 l 368 197 l 473 91 l 369 -13 m 579 -14 l 473 91 l 578 196 l 683 90 l 579 -14 z "},"!":{"ha":247,"x_min":17,"x_max":229,"o":"m 117 245 l 63 694 q 50 748 58 728 q 17 769 43 769 l 17 785 l 177 888 l 199 888 l 149 245 l 117 245 m 125 -13 l 20 93 l 124 197 l 229 91 l 125 -13 z "},"¡":{"ha":247,"x_min":17,"x_max":229,"o":"m 124 678 l 20 781 l 125 888 l 229 784 l 124 678 m 177 -13 l 17 90 l 17 106 q 53 130 47 110 q 64 192 59 150 l 117 630 l 149 630 l 199 -13 l 177 -13 z "},"?":{"ha":404,"x_min":24,"x_max":380,"o":"m 100 230 l 76 449 l 309 558 l 25 742 l 117 916 l 140 904 l 120 861 l 380 683 q 352 626 363 656 q 336 558 341 595 q 334 486 331 523 q 345 414 338 448 l 235 369 q 163 325 196 353 q 130 231 130 296 l 100 230 m 130 -13 l 24 93 l 128 197 l 234 91 l 130 -13 z "},"¿":{"ha":369,"x_min":-1,"x_max":354,"o":"m 249 916 l 354 810 l 250 706 l 145 811 l 249 916 m 279 672 l 302 454 l 69 345 l 353 162 l 262 -13 l 238 -1 l 258 42 l -1 220 q 26 277 15 247 q 43 345 37 308 q 44 417 47 380 q 34 488 41 455 l 144 534 q 216 578 183 550 q 249 671 249 606 l 279 672 z "},"·":{"ha":244,"x_min":46,"x_max":256,"o":"m 152 362 l 46 468 l 150 572 l 256 466 l 152 362 z "},"#":{"ha":807,"x_min":90,"x_max":712,"o":"m 226 159 l 226 286 l 94 286 l 90 410 l 226 410 l 226 529 l 94 529 l 90 653 l 226 653 l 226 782 l 350 782 l 350 653 l 469 653 l 469 775 l 593 775 l 593 653 l 712 653 l 712 529 l 593 529 l 593 410 l 712 410 l 712 286 l 593 286 l 593 159 l 469 159 l 469 286 l 350 286 l 350 159 l 226 159 m 350 410 l 469 410 l 469 529 l 350 529 l 350 410 z "},"/":{"ha":483,"x_min":-7,"x_max":500,"o":"m 125 -50 l -7 -50 l 366 917 l 500 917 l 125 -50 z "},"\\":{"ha":483,"x_min":-7,"x_max":500,"o":"m 367 -50 l -7 917 l 126 917 l 500 -50 l 367 -50 z "},"-":{"ha":613,"x_min":46,"x_max":583,"o":"m 63 354 l 46 370 l 188 529 l 541 529 l 567 557 l 583 541 l 442 382 l 90 382 l 63 354 z "},"­":{"ha":572,"x_min":46,"x_max":583,"o":"m 63 354 l 46 370 l 188 529 l 541 529 l 567 557 l 583 541 l 442 382 l 90 382 l 63 354 z "},"⸗":{"ha":449,"x_min":56,"x_max":403,"o":"m 89 296 l 57 341 l 370 573 l 403 528 l 89 296 m 88 139 l 56 183 l 369 414 l 403 370 l 88 139 z "},"_":{"ha":922,"x_min":13,"x_max":904,"o":"m 792 -125 l 13 -124 l 125 0 l 904 -1 l 792 -125 z "},"(":{"ha":369,"x_min":14,"x_max":352,"o":"m 339 -52 q 178 54 252 -16 q 59 222 104 125 q 14 438 14 319 q 59 652 14 554 q 178 820 104 750 q 340 927 252 890 l 352 907 q 194 712 257 834 q 131 435 131 589 q 160 246 131 334 q 238 86 189 157 q 351 -34 288 15 l 339 -52 z "},")":{"ha":369,"x_min":14,"x_max":352,"o":"m 27 -52 l 15 -34 q 127 86 78 15 q 206 246 177 157 q 235 435 235 334 q 172 712 235 589 q 14 907 109 834 l 25 927 q 188 820 113 890 q 307 652 262 750 q 352 438 352 554 q 307 222 352 319 q 188 54 262 125 q 27 -52 113 -16 z "},"{":{"ha":370,"x_min":15,"x_max":341,"o":"m 192 2 q 128 90 145 42 q 108 190 111 139 q 102 289 105 241 q 82 376 100 337 q 15 439 64 414 l 15 451 q 79 539 63 491 q 98 639 96 588 q 104 738 101 690 q 124 825 106 786 q 192 888 142 865 l 341 888 l 341 875 q 274 813 292 851 q 253 729 256 775 q 248 634 250 683 q 231 536 247 584 q 172 447 216 488 q 235 380 219 420 q 253 293 251 340 q 259 197 256 247 q 278 100 262 147 q 341 15 295 53 l 341 2 l 192 2 z "},"}":{"ha":370,"x_min":15,"x_max":341,"o":"m 15 2 l 15 15 q 77 100 60 53 q 97 197 94 147 q 102 293 100 247 q 122 380 105 340 q 183 447 138 420 q 124 536 139 488 q 107 634 109 584 q 102 729 105 683 q 82 813 100 775 q 15 875 64 851 l 15 888 l 164 888 q 231 825 213 865 q 252 738 249 786 q 258 639 255 690 q 277 539 260 588 q 341 451 294 491 l 341 439 q 274 376 292 414 q 253 289 256 337 q 248 190 250 241 q 229 90 245 139 q 164 2 212 42 l 15 2 z "},"[":{"ha":337,"x_min":27,"x_max":314,"o":"m 314 0 l 27 0 l 27 928 l 314 928 l 314 895 l 176 895 l 176 34 l 314 34 l 314 0 z "},"]":{"ha":337,"x_min":27,"x_max":314,"o":"m 27 0 l 27 34 l 164 34 l 164 895 l 27 895 l 27 928 l 314 928 l 314 0 l 27 0 z "},"“":{"ha":589,"x_min":17,"x_max":573,"o":"m 193 500 q 73 600 110 554 q 27 678 36 645 q 17 730 17 711 q 43 819 17 781 q 103 877 69 856 l 260 774 l 245 750 l 230 759 q 216 767 223 764 q 200 770 209 770 q 155 751 172 770 q 130 703 138 731 q 122 647 122 675 q 144 564 122 598 q 200 513 166 530 l 193 500 m 506 500 q 385 600 422 554 q 339 678 348 645 q 330 730 330 711 q 356 819 330 781 q 416 877 382 856 l 573 774 l 558 750 l 543 759 q 529 767 536 764 q 513 770 522 770 q 468 751 485 770 q 442 703 450 731 q 434 647 434 675 q 456 564 434 598 q 513 513 478 530 l 506 500 z "},"”":{"ha":589,"x_min":17,"x_max":573,"o":"m 397 500 l 390 513 q 447 564 425 530 q 469 647 469 598 q 460 703 469 675 q 434 751 451 731 q 390 770 417 770 q 373 767 380 770 q 360 759 366 764 l 345 750 l 330 774 l 487 877 q 546 819 520 856 q 573 730 573 781 q 563 678 573 711 q 516 600 553 645 q 397 500 479 554 m 84 500 l 78 513 q 134 564 112 530 q 156 647 156 598 q 148 703 156 675 q 122 751 139 731 q 78 770 104 770 q 60 767 67 770 q 47 759 53 764 l 32 750 l 17 774 l 175 877 q 234 819 207 856 q 260 730 260 781 q 251 678 260 711 q 204 600 241 645 q 84 500 167 554 z "},"‘":{"ha":277,"x_min":32,"x_max":275,"o":"m 208 500 q 88 600 125 554 q 42 678 51 645 q 32 730 32 711 q 58 819 32 781 q 118 877 84 856 l 275 774 l 260 750 l 245 759 q 231 767 238 764 q 215 770 225 770 q 170 751 188 770 q 145 703 153 731 q 137 647 137 675 q 159 564 137 598 q 215 513 181 530 l 208 500 z "},"’":{"ha":277,"x_min":17,"x_max":260,"o":"m 84 500 l 78 513 q 134 564 112 530 q 156 647 156 598 q 148 703 156 675 q 122 751 139 731 q 78 770 104 770 q 60 767 67 770 q 47 759 53 764 l 32 750 l 17 774 l 175 877 q 234 819 207 856 q 260 730 260 781 q 251 678 260 711 q 204 600 241 645 q 84 500 167 554 z "},"«":{"ha":660,"x_min":29,"x_max":619,"o":"m 619 116 q 506 262 565 201 q 396 361 448 322 q 307 424 344 400 q 468 547 403 483 q 571 663 534 612 q 619 731 608 714 q 589 588 615 649 q 530 485 563 527 q 476 424 498 443 q 568 304 538 366 q 608 191 598 242 q 619 116 618 140 m 341 116 q 229 262 287 201 q 118 361 170 322 q 29 424 66 400 q 190 547 125 483 q 293 663 256 612 q 341 731 330 714 q 311 588 337 649 q 252 485 285 527 q 198 424 220 443 q 291 304 260 366 q 330 191 321 242 q 341 116 340 140 z "},"»":{"ha":660,"x_min":29,"x_max":619,"o":"m 307 116 q 318 191 308 140 q 358 304 328 242 q 450 424 388 366 q 396 485 428 443 q 337 588 363 527 q 307 731 311 649 q 355 663 318 714 q 458 547 392 612 q 619 424 523 483 q 530 361 582 400 q 420 262 478 322 q 307 116 361 201 m 29 116 q 40 191 30 140 q 80 304 50 242 q 172 424 110 366 q 118 485 150 443 q 60 588 86 527 q 29 731 34 649 q 78 663 41 714 q 180 547 115 612 q 341 424 245 483 q 252 361 304 400 q 142 262 200 322 q 29 116 83 201 z "},"\"":{"ha":458,"x_min":17,"x_max":442,"o":"m 360 459 l 328 657 q 310 729 322 696 q 260 769 299 763 l 260 785 l 420 888 l 442 888 l 392 459 l 360 459 m 117 459 l 84 657 q 67 729 79 696 q 17 769 56 763 l 17 785 l 177 888 l 199 888 l 149 459 l 117 459 z "},"'":{"ha":215,"x_min":17,"x_max":199,"o":"m 117 459 l 84 657 q 67 729 79 696 q 17 769 56 763 l 17 785 l 177 888 l 199 888 l 149 459 l 117 459 z "}}}
